<svg width="1355" height="660" viewBox="0 0 1355 660" fill="none" xmlns="http://www.w3.org/2000/svg">
<g opacity="0.05" clip-path="url(#clip0_47_86)">
<path d="M734.3 652.628C732.802 652.628 731.598 651.419 731.598 649.914V543.186C731.598 541.681 732.802 540.472 734.3 540.472C735.798 540.472 737.001 541.681 737.001 543.186V649.914C737.001 651.419 735.798 652.628 734.3 652.628Z" fill="white"/>
<path d="M749.714 545.9H718.886C714.459 545.9 710.85 542.274 710.85 537.827V517.827C710.85 513.38 714.459 509.754 718.886 509.754H749.714C754.14 509.754 757.75 513.38 757.75 517.827V537.827C757.75 542.297 754.14 545.9 749.714 545.9ZM718.886 515.204C717.433 515.204 716.275 516.39 716.275 517.827V537.827C716.275 539.286 717.456 540.449 718.886 540.449H749.714C751.167 540.449 752.324 539.264 752.324 537.827V517.827C752.324 516.367 751.144 515.204 749.714 515.204H718.886Z" fill="white"/>
<path d="M745.491 525.421H734.027C732.529 525.421 731.326 524.212 731.326 522.707C731.326 521.202 732.529 519.993 734.027 519.993H745.491C746.99 519.993 748.193 521.202 748.193 522.707C748.193 524.19 746.99 525.421 745.491 525.421Z" fill="white"/>
<path d="M726.241 525.421H723.108C721.61 525.421 720.407 524.212 720.407 522.707C720.407 521.202 721.61 519.993 723.108 519.993H726.241C727.739 519.993 728.942 521.202 728.942 522.707C728.965 524.19 727.739 525.421 726.241 525.421Z" fill="white"/>
<path d="M745.491 535.683H734.027C732.529 535.683 731.326 534.475 731.326 532.97C731.326 531.465 732.529 530.256 734.027 530.256H745.491C746.99 530.256 748.193 531.465 748.193 532.97C748.193 534.475 746.99 535.683 745.491 535.683Z" fill="white"/>
<path d="M726.241 535.683H723.108C721.61 535.683 720.407 534.475 720.407 532.97C720.407 531.465 721.61 530.256 723.108 530.256H726.241C727.739 530.256 728.943 531.465 728.943 532.97C728.943 534.475 727.739 535.683 726.241 535.683Z" fill="white"/>
<path d="M708.625 496.39L707.059 491.464H436.896L435.329 496.39L453.558 509.548V650.575L456.259 653.288H687.672L690.374 650.575V509.548L708.625 496.39ZM698.66 496.892L686.81 505.444H457.145L445.295 496.892H698.66ZM534.646 510.871V609.526H502.751L500.049 612.239V624.166L502.751 626.88H534.668V647.861H470.833V510.871H534.646ZM603.883 510.871V609.526H540.071V510.871H603.883ZM606.653 621.43C606.63 621.43 606.607 621.43 606.585 621.43C606.562 621.43 606.539 621.43 606.517 621.43H537.415C537.392 621.43 537.37 621.43 537.347 621.43C537.324 621.43 537.302 621.43 537.279 621.43H505.452V614.953H638.502V621.43H606.653ZM540.071 626.88H603.906V647.861H540.071V626.88ZM609.286 626.88H641.204L643.905 624.166V612.239L641.204 609.526H609.286V510.871H673.121V647.861H609.286V626.88ZM458.961 510.871H465.408V647.861H458.961V510.871ZM684.994 647.838H678.524V510.871H684.971V647.838H684.994Z" fill="white"/>
<path d="M905.081 658.184H510.554C509.202 658.184 508.117 657.094 508.117 655.736C508.117 654.379 509.202 653.288 510.554 653.288H905.081C906.433 653.288 907.518 654.379 907.518 655.736C907.518 657.094 906.433 658.184 905.081 658.184Z" fill="white"/>
<path d="M512.004 447.795C510.724 447.795 509.696 446.764 509.696 445.479V431.682C509.696 430.397 510.724 429.366 512.004 429.366C513.284 429.366 514.312 430.397 514.312 431.682V445.479C514.312 446.764 513.284 447.795 512.004 447.795Z" fill="white"/>
<path d="M512.004 475.722C510.724 475.722 509.696 474.69 509.696 473.406V459.608C509.696 458.324 510.724 457.292 512.004 457.292C513.284 457.292 514.312 458.324 514.312 459.608V473.406C514.312 474.69 513.284 475.722 512.004 475.722Z" fill="white"/>
<path d="M512.004 419.888C510.724 419.888 509.696 418.857 509.696 417.572V403.774C509.696 402.49 510.724 401.458 512.004 401.458C513.284 401.458 514.312 402.49 514.312 403.774V417.572C514.312 418.837 513.284 419.888 512.004 419.888Z" fill="white"/>
<path d="M531.398 447.795C530.118 447.795 529.09 446.764 529.09 445.479V431.682C529.09 430.397 530.118 429.366 531.398 429.366C532.678 429.366 533.706 430.397 533.706 431.682V445.479C533.706 446.764 532.678 447.795 531.398 447.795Z" fill="white"/>
<path d="M531.398 475.722C530.118 475.722 529.09 474.69 529.09 473.406V459.608C529.09 458.324 530.118 457.292 531.398 457.292C532.678 457.292 533.706 458.324 533.706 459.608V473.406C533.706 474.69 532.678 475.722 531.398 475.722Z" fill="white"/>
<path d="M531.398 419.888C530.118 419.888 529.09 418.857 529.09 417.572V403.774C529.09 402.49 530.118 401.458 531.398 401.458C532.678 401.458 533.706 402.49 533.706 403.774V417.572C533.706 418.837 532.678 419.888 531.398 419.888Z" fill="white"/>
<path d="M550.791 447.795C549.511 447.795 548.484 446.764 548.484 445.479V431.682C548.484 430.397 549.511 429.366 550.791 429.366C552.071 429.366 553.099 430.397 553.099 431.682V445.479C553.099 446.764 552.071 447.795 550.791 447.795Z" fill="white"/>
<path d="M550.791 475.722C549.511 475.722 548.484 474.69 548.484 473.406V459.608C548.484 458.324 549.511 457.292 550.791 457.292C552.071 457.292 553.099 458.324 553.099 459.608V473.406C553.099 474.69 552.071 475.722 550.791 475.722Z" fill="white"/>
<path d="M550.791 419.888C549.511 419.888 548.484 418.857 548.484 417.572V403.774C548.484 402.49 549.511 401.458 550.791 401.458C552.071 401.458 553.099 402.49 553.099 403.774V417.572C553.099 418.837 552.071 419.888 550.791 419.888Z" fill="white"/>
<path d="M572.454 489.753C571.174 489.753 570.146 488.722 570.146 487.438V390.541H492.649V487.438C492.649 488.722 491.621 489.753 490.341 489.753C489.062 489.753 488.034 488.722 488.034 487.438V388.225L490.341 385.909H572.454L574.762 388.225V487.438C574.762 488.722 573.734 489.753 572.454 489.753Z" fill="white"/>
</g>
<g opacity="0.05" clip-path="url(#clip1_47_86)">
<path d="M1263.55 489.753C1262.27 489.753 1261.24 488.722 1261.24 487.438V337.315H1150.66V487.438C1150.66 488.722 1149.63 489.753 1148.35 489.753C1147.07 489.753 1146.05 488.722 1146.05 487.438V334.999L1148.35 332.683H1263.57L1265.88 334.999V487.438C1265.88 488.722 1264.83 489.753 1263.55 489.753Z" fill="white"/>
<path d="M1212.84 357.438H1199.09C1197.81 357.438 1196.78 356.406 1196.78 355.122C1196.78 353.837 1197.81 352.806 1199.09 352.806H1212.84C1214.12 352.806 1215.14 353.837 1215.14 355.122C1215.14 356.387 1214.12 357.438 1212.84 357.438Z" fill="white"/>
<path d="M1212.84 376.004H1199.09C1197.81 376.004 1196.78 374.972 1196.78 373.688C1196.78 372.403 1197.81 371.372 1199.09 371.372H1212.84C1214.12 371.372 1215.14 372.403 1215.14 373.688C1215.14 374.972 1214.12 376.004 1212.84 376.004Z" fill="white"/>
<path d="M1212.84 394.569H1199.09C1197.81 394.569 1196.78 393.538 1196.78 392.254C1196.78 390.969 1197.81 389.938 1199.09 389.938H1212.84C1214.12 389.938 1215.14 390.969 1215.14 392.254C1215.14 393.538 1214.12 394.569 1212.84 394.569Z" fill="white"/>
<path d="M1212.84 413.135H1199.09C1197.81 413.135 1196.78 412.104 1196.78 410.819C1196.78 409.535 1197.81 408.503 1199.09 408.503H1212.84C1214.12 408.503 1215.14 409.535 1215.14 410.819C1215.14 412.104 1214.12 413.135 1212.84 413.135Z" fill="white"/>
<path d="M1212.84 431.701H1199.09C1197.81 431.701 1196.78 430.67 1196.78 429.385C1196.78 428.101 1197.81 427.069 1199.09 427.069H1212.84C1214.12 427.069 1215.14 428.101 1215.14 429.385C1215.14 430.67 1214.12 431.701 1212.84 431.701Z" fill="white"/>
<path d="M1212.84 450.267H1199.09C1197.81 450.267 1196.78 449.236 1196.78 447.951C1196.78 446.667 1197.81 445.635 1199.09 445.635H1212.84C1214.12 445.635 1215.14 446.667 1215.14 447.951C1215.14 449.236 1214.12 450.267 1212.84 450.267Z" fill="white"/>
<path d="M1212.84 468.833H1199.09C1197.81 468.833 1196.78 467.801 1196.78 466.517C1196.78 465.233 1197.81 464.201 1199.09 464.201H1212.84C1214.12 464.201 1215.14 465.233 1215.14 466.517C1215.14 467.801 1214.12 468.833 1212.84 468.833Z" fill="white"/>
<path d="M1245.32 357.438H1231.57C1230.29 357.438 1229.26 356.406 1229.26 355.122C1229.26 353.837 1230.29 352.806 1231.57 352.806H1245.32C1246.6 352.806 1247.63 353.837 1247.63 355.122C1247.63 356.387 1246.6 357.438 1245.32 357.438Z" fill="white"/>
<path d="M1245.32 376.004H1231.57C1230.29 376.004 1229.26 374.972 1229.26 373.688C1229.26 372.403 1230.29 371.372 1231.57 371.372H1245.32C1246.6 371.372 1247.63 372.403 1247.63 373.688C1247.63 374.972 1246.6 376.004 1245.32 376.004Z" fill="white"/>
<path d="M1245.32 394.569H1231.57C1230.29 394.569 1229.26 393.538 1229.26 392.254C1229.26 390.969 1230.29 389.938 1231.57 389.938H1245.32C1246.6 389.938 1247.63 390.969 1247.63 392.254C1247.63 393.538 1246.6 394.569 1245.32 394.569Z" fill="white"/>
<path d="M1245.32 413.135H1231.57C1230.29 413.135 1229.26 412.104 1229.26 410.819C1229.26 409.535 1230.29 408.503 1231.57 408.503H1245.32C1246.6 408.503 1247.63 409.535 1247.63 410.819C1247.63 412.104 1246.6 413.135 1245.32 413.135Z" fill="white"/>
<path d="M1245.32 431.701H1231.57C1230.29 431.701 1229.26 430.67 1229.26 429.385C1229.26 428.101 1230.29 427.069 1231.57 427.069H1245.32C1246.6 427.069 1247.63 428.101 1247.63 429.385C1247.63 430.67 1246.6 431.701 1245.32 431.701Z" fill="white"/>
<path d="M1245.32 450.267H1231.57C1230.29 450.267 1229.26 449.236 1229.26 447.951C1229.26 446.667 1230.29 445.635 1231.57 445.635H1245.32C1246.6 445.635 1247.63 446.667 1247.63 447.951C1247.63 449.236 1246.6 450.267 1245.32 450.267Z" fill="white"/>
<path d="M1245.32 468.833H1231.57C1230.29 468.833 1229.26 467.801 1229.26 466.517C1229.26 465.233 1230.29 464.201 1231.57 464.201H1245.32C1246.6 464.201 1247.63 465.233 1247.63 466.517C1247.63 467.801 1246.6 468.833 1245.32 468.833Z" fill="white"/>
<path d="M1316.01 447.795C1314.73 447.795 1313.7 446.764 1313.7 445.479V431.682C1313.7 430.397 1314.73 429.366 1316.01 429.366C1317.29 429.366 1318.32 430.397 1318.32 431.682V445.479C1318.32 446.764 1317.29 447.795 1316.01 447.795Z" fill="white"/>
<path d="M1316.01 475.722C1314.73 475.722 1313.7 474.69 1313.7 473.406V459.608C1313.7 458.324 1314.73 457.292 1316.01 457.292C1317.29 457.292 1318.32 458.324 1318.32 459.608V473.406C1318.32 474.69 1317.29 475.722 1316.01 475.722Z" fill="white"/>
<path d="M1316.01 419.888C1314.73 419.888 1313.7 418.857 1313.7 417.572V403.774C1313.7 402.49 1314.73 401.458 1316.01 401.458C1317.29 401.458 1318.32 402.49 1318.32 403.774V417.572C1318.32 418.837 1317.29 419.888 1316.01 419.888Z" fill="white"/>
<path d="M1335.4 447.795C1334.12 447.795 1333.1 446.764 1333.1 445.479V431.682C1333.1 430.397 1334.12 429.366 1335.4 429.366C1336.68 429.366 1337.71 430.397 1337.71 431.682V445.479C1337.71 446.764 1336.68 447.795 1335.4 447.795Z" fill="white"/>
<path d="M1335.4 475.722C1334.12 475.722 1333.1 474.69 1333.1 473.406V459.608C1333.1 458.324 1334.12 457.292 1335.4 457.292C1336.68 457.292 1337.71 458.324 1337.71 459.608V473.406C1337.71 474.69 1336.68 475.722 1335.4 475.722Z" fill="white"/>
<path d="M1335.4 419.888C1334.12 419.888 1333.1 418.857 1333.1 417.572V403.774C1333.1 402.49 1334.12 401.458 1335.4 401.458C1336.68 401.458 1337.71 402.49 1337.71 403.774V417.572C1337.71 418.837 1336.68 419.888 1335.4 419.888Z" fill="white"/>
<path d="M1354.8 447.795C1353.52 447.795 1352.49 446.764 1352.49 445.479V431.682C1352.49 430.397 1353.52 429.366 1354.8 429.366C1356.08 429.366 1357.11 430.397 1357.11 431.682V445.479C1357.11 446.764 1356.08 447.795 1354.8 447.795Z" fill="white"/>
<path d="M1354.8 475.722C1353.52 475.722 1352.49 474.69 1352.49 473.406V459.608C1352.49 458.324 1353.52 457.292 1354.8 457.292C1356.08 457.292 1357.11 458.324 1357.11 459.608V473.406C1357.11 474.69 1356.08 475.722 1354.8 475.722Z" fill="white"/>
<path d="M1354.8 419.888C1353.52 419.888 1352.49 418.857 1352.49 417.572V403.774C1352.49 402.49 1353.52 401.458 1354.8 401.458C1356.08 401.458 1357.11 402.49 1357.11 403.774V417.572C1357.11 418.837 1356.08 419.888 1354.8 419.888Z" fill="white"/>
<path d="M1513.81 657.683H614.194C612.914 657.683 611.887 656.652 611.887 655.367C611.887 654.083 612.914 653.051 614.194 653.051H1513.79C1515.07 653.051 1516.1 654.083 1516.1 655.367C1516.1 656.652 1515.07 657.683 1513.81 657.683Z" fill="white"/>
<path d="M1376.46 489.753C1375.18 489.753 1374.15 488.722 1374.15 487.438V390.541H1296.66V487.438C1296.66 488.722 1295.63 489.753 1294.35 489.753C1293.07 489.753 1292.04 488.722 1292.04 487.438V388.225L1294.35 385.909H1376.46L1378.77 388.225V487.438C1378.77 488.722 1377.74 489.753 1376.46 489.753Z" fill="white"/>
<path d="M1429.6 485.122H952.109C946.252 485.239 940.57 486.951 935.644 490.084C931.629 492.634 928.255 496.039 925.734 500.048H925.714H913.302C898.292 500.048 886.074 512.309 886.074 527.372C886.074 531.206 889.196 534.339 893.017 534.339C896.837 534.339 899.96 531.206 899.96 527.372C899.96 519.996 905.933 513.983 913.302 513.983H919.256C911.285 534.203 907.814 555.474 904.187 577.795C903.935 579.372 903.683 580.929 903.412 582.505C903.392 582.622 903.353 582.914 903.353 583.965V599.514C902.636 600.798 901.317 603.737 900.91 608.777C900.464 614.363 902.481 618.8 903.353 620.396V628.861C903.353 636.743 909.753 643.165 917.608 643.165H1017.31C1022.64 650.405 1031.02 654.667 1040.06 654.667C1049.37 654.667 1057.63 650.132 1062.79 643.165H1273.23C1278.39 650.132 1286.65 654.667 1295.96 654.667C1305.33 654.667 1313.65 650.074 1318.78 643.029C1319.04 643.126 1319.29 643.165 1319.58 643.165H1417.54C1432.04 643.165 1443.85 631.313 1443.85 616.757V499.426C1443.85 491.525 1437.45 485.122 1429.6 485.122ZM952.73 489.754H1429.6C1434.91 489.754 1439.24 494.093 1439.24 499.426V500.048H931.377C936.478 493.587 944.255 489.754 952.73 489.754ZM1382.32 562.382C1381.35 561.545 1379.89 561.662 1379.06 562.635L1363.84 580.559H1335.99V504.68H1376.13L1361.33 522.098C1360.5 523.071 1360.62 524.531 1361.59 525.367C1362.01 525.737 1362.56 525.912 1363.08 525.912C1363.74 525.912 1364.38 525.64 1364.84 525.095L1382.2 504.68H1388.7L1350.82 549.246C1349.99 550.219 1350.11 551.679 1351.07 552.516C1351.5 552.885 1352.04 553.06 1352.57 553.06C1353.23 553.06 1353.87 552.788 1354.33 552.243L1394.26 505.264C1394.42 505.089 1394.54 504.875 1394.63 504.661H1403.2V580.539H1369.91L1382.57 565.632C1383.4 564.679 1383.29 563.2 1382.32 562.382ZM1302.84 580.559L1315.51 565.652C1316.34 564.679 1316.22 563.219 1315.25 562.382C1314.29 561.545 1312.83 561.662 1312 562.635L1296.77 580.559H1271.23V504.68H1313.14L1285.14 537.608C1284.3 538.581 1284.42 540.041 1285.39 540.878C1285.82 541.248 1286.36 541.423 1286.88 541.423C1287.54 541.423 1288.18 541.15 1288.65 540.605L1319.19 504.661H1331.35V580.539H1302.84V580.559ZM1206.13 580.559V504.68H1250.5L1222.49 537.608C1221.66 538.581 1221.78 540.041 1222.75 540.878C1223.17 541.248 1223.72 541.423 1224.24 541.423C1224.9 541.423 1225.54 541.15 1226.01 540.605L1256.55 504.661H1266.6V580.539H1206.13V580.559ZM1178.37 560.339C1177.4 559.502 1175.95 559.619 1175.12 560.592L1158.15 580.539H1151.65L1189.14 536.441C1189.97 535.468 1189.86 534.008 1188.89 533.171C1187.92 532.334 1186.46 532.451 1185.63 533.424L1145.7 580.423C1145.66 580.462 1145.64 580.501 1145.6 580.559H1134.29V504.68H1201.51V580.559H1164.24L1178.65 563.608C1179.46 562.635 1179.34 561.176 1178.37 560.339ZM1035.56 580.559L1048.22 565.652C1049.06 564.679 1048.94 563.219 1047.97 562.382C1047 561.545 1045.55 561.662 1044.71 562.635L1029.49 580.559H1004.63V504.68H1041.77L1026.97 522.098C1026.13 523.071 1026.25 524.531 1027.22 525.367C1027.65 525.737 1028.19 525.912 1028.71 525.912C1029.37 525.912 1030.01 525.64 1030.48 525.095L1047.84 504.68H1054.33L1016.46 549.246C1015.62 550.219 1015.74 551.679 1016.71 552.516C1017.14 552.885 1017.68 553.06 1018.2 553.06C1018.86 553.06 1019.5 552.788 1019.97 552.243L1059.9 505.264C1060.05 505.089 1060.17 504.875 1060.27 504.661H1064.46V580.539H1035.56V580.559ZM980.676 580.559V504.68H1000.01V580.559H980.676ZM961.786 564.951C960.817 564.114 959.362 564.231 958.528 565.204L945.496 580.539H938.999L963.803 551.348C964.637 550.375 964.521 548.915 963.551 548.078C962.582 547.242 961.127 547.358 960.293 548.331L933.433 579.936C933.278 580.111 933.161 580.325 933.064 580.539H932.812V504.68H972.356L944.332 537.608C943.498 538.581 943.615 540.041 944.584 540.878C945.011 541.248 945.554 541.423 946.078 541.423C946.737 541.423 947.377 541.15 947.842 540.605L976.06 507.444V580.559H951.566L962.039 568.24C962.872 567.248 962.756 565.788 961.786 564.951ZM1069.09 504.68H1116.33L1088.33 537.608C1087.5 538.581 1087.61 540.041 1088.58 540.878C1089.01 541.248 1089.55 541.423 1090.08 541.423C1090.73 541.423 1091.37 541.15 1091.84 540.605L1122.39 504.661H1129.66V580.539H1069.07V504.68H1069.09ZM1407.8 504.68H1425.95V574.254C1425.95 577.737 1423.12 580.559 1419.67 580.559H1407.8V504.68ZM913.302 509.331C903.412 509.331 895.344 517.408 895.344 527.352C895.344 528.637 894.297 529.688 893.017 529.688C891.737 529.688 890.689 528.637 890.689 527.352C890.689 514.839 900.832 504.661 913.283 504.661H923.271C922.534 506.218 921.836 507.775 921.157 509.331H913.302ZM928.158 505.186L928.177 505.147V580.559H908.396C908.512 579.878 908.609 579.197 908.725 578.535C912.973 552.535 916.968 527.995 928.158 505.186ZM906.495 616.095C905.875 614.402 905.293 611.93 905.506 609.147C905.797 605.489 906.631 603.27 907.135 602.239L918.946 599.845C916.483 604.224 912.1 611.132 906.495 616.095ZM907.969 628.861V620.921C918.403 612.592 925.055 598.191 925.346 597.568L922.786 594.337L907.969 597.354V585.21H928.197V638.553H917.588C912.274 638.533 907.969 634.194 907.969 628.861ZM1040.04 650.035C1031.93 650.035 1024.49 645.948 1020.08 639.098C1017.64 635.283 1016.34 630.846 1016.34 626.273C1016.34 613.156 1026.97 602.511 1040.02 602.511C1053.07 602.511 1063.7 613.176 1063.7 626.273C1063.74 639.37 1053.11 650.035 1040.04 650.035ZM1295.94 650.035C1282.87 650.035 1272.26 639.37 1272.26 626.273C1272.26 613.156 1282.89 602.511 1295.94 602.511C1308.99 602.511 1319.62 613.176 1319.62 626.273C1319.64 639.37 1309.01 650.035 1295.94 650.035ZM1417.54 638.533H1321.48C1323.26 634.816 1324.25 630.652 1324.25 626.254C1324.25 610.587 1311.55 597.84 1295.94 597.84C1280.33 597.84 1267.62 610.587 1267.62 626.254C1267.62 630.652 1268.63 634.816 1270.4 638.533H1065.58C1067.37 634.816 1068.35 630.652 1068.35 626.254C1068.35 610.587 1055.65 597.84 1040.04 597.84C1024.43 597.84 1011.72 610.587 1011.72 626.254C1011.72 630.535 1012.68 634.719 1014.5 638.533H932.774V585.191H1405.47H1419.65C1425.66 585.191 1430.57 580.286 1430.57 574.234V504.68H1439.2V616.757C1439.22 628.764 1429.5 638.533 1417.54 638.533Z" fill="white"/>
<path d="M1295.94 612.358C1288.3 612.358 1282.07 618.605 1282.07 626.273C1282.07 633.941 1288.3 640.188 1295.94 640.188C1303.58 640.188 1309.81 633.941 1309.81 626.273C1309.81 618.586 1303.58 612.358 1295.94 612.358ZM1295.94 635.517C1290.84 635.517 1286.71 631.352 1286.71 626.254C1286.71 621.135 1290.86 616.99 1295.94 616.99C1301.02 616.99 1305.17 621.155 1305.17 626.254C1305.19 631.372 1301.04 635.517 1295.94 635.517Z" fill="white"/>
<path d="M1316.01 447.795C1314.73 447.795 1313.7 446.764 1313.7 445.479V431.682C1313.7 430.397 1314.73 429.366 1316.01 429.366C1317.29 429.366 1318.32 430.397 1318.32 431.682V445.479C1318.32 446.764 1317.29 447.795 1316.01 447.795Z" fill="white"/>
<path d="M1316.01 475.722C1314.73 475.722 1313.7 474.69 1313.7 473.406V459.608C1313.7 458.324 1314.73 457.292 1316.01 457.292C1317.29 457.292 1318.32 458.324 1318.32 459.608V473.406C1318.32 474.69 1317.29 475.722 1316.01 475.722Z" fill="white"/>
<path d="M1316.01 419.888C1314.73 419.888 1313.7 418.857 1313.7 417.572V403.774C1313.7 402.49 1314.73 401.458 1316.01 401.458C1317.29 401.458 1318.32 402.49 1318.32 403.774V417.572C1318.32 418.837 1317.29 419.888 1316.01 419.888Z" fill="white"/>
<path d="M1335.4 447.795C1334.12 447.795 1333.1 446.764 1333.1 445.479V431.682C1333.1 430.397 1334.12 429.366 1335.4 429.366C1336.68 429.366 1337.71 430.397 1337.71 431.682V445.479C1337.71 446.764 1336.68 447.795 1335.4 447.795Z" fill="white"/>
<path d="M1335.4 475.722C1334.12 475.722 1333.1 474.69 1333.1 473.406V459.608C1333.1 458.324 1334.12 457.292 1335.4 457.292C1336.68 457.292 1337.71 458.324 1337.71 459.608V473.406C1337.71 474.69 1336.68 475.722 1335.4 475.722Z" fill="white"/>
<path d="M1335.4 419.888C1334.12 419.888 1333.1 418.857 1333.1 417.572V403.774C1333.1 402.49 1334.12 401.458 1335.4 401.458C1336.68 401.458 1337.71 402.49 1337.71 403.774V417.572C1337.71 418.837 1336.68 419.888 1335.4 419.888Z" fill="white"/>
<path d="M1354.8 447.795C1353.52 447.795 1352.49 446.764 1352.49 445.479V431.682C1352.49 430.397 1353.52 429.366 1354.8 429.366C1356.08 429.366 1357.11 430.397 1357.11 431.682V445.479C1357.11 446.764 1356.08 447.795 1354.8 447.795Z" fill="white"/>
<path d="M1354.8 475.722C1353.52 475.722 1352.49 474.69 1352.49 473.406V459.608C1352.49 458.324 1353.52 457.292 1354.8 457.292C1356.08 457.292 1357.11 458.324 1357.11 459.608V473.406C1357.11 474.69 1356.08 475.722 1354.8 475.722Z" fill="white"/>
<path d="M1354.8 419.888C1353.52 419.888 1352.49 418.857 1352.49 417.572V403.774C1352.49 402.49 1353.52 401.458 1354.8 401.458C1356.08 401.458 1357.11 402.49 1357.11 403.774V417.572C1357.11 418.837 1356.08 419.888 1354.8 419.888Z" fill="white"/>
<path d="M1376.46 489.753C1375.18 489.753 1374.15 488.722 1374.15 487.438V390.541H1296.66V487.438C1296.66 488.722 1295.63 489.753 1294.35 489.753C1293.07 489.753 1292.04 488.722 1292.04 487.438V388.225L1294.35 385.909H1376.46L1378.77 388.225V487.438C1378.77 488.722 1377.74 489.753 1376.46 489.753Z" fill="white"/>
</g>
<g opacity="0.05" clip-path="url(#clip2_47_86)">
<path d="M57.4046 407.55C57.4046 412.394 61.3376 416.326 66.1831 416.326H101.299C106.145 416.326 110.077 412.394 110.077 407.55V354.887C110.077 350.043 106.145 346.111 101.299 346.111H66.1841C61.3386 346.111 57.4056 350.043 57.4056 354.887V407.55H57.4046ZM74.9626 363.665H92.5205V398.773H74.9626V363.665Z" fill="white" stroke="#7700D1" stroke-width="11"/>
<path d="M285.654 618.2C285.654 623.044 289.587 626.976 294.432 626.976H329.547C334.393 626.976 338.326 623.044 338.326 618.2V565.537C338.326 560.693 334.393 556.76 329.547 556.76H294.432C289.587 556.76 285.654 560.693 285.654 565.537V618.2ZM303.212 574.315H320.77V609.423H303.212V574.315Z" fill="white" stroke="#7700D1" stroke-width="11"/>
<path d="M294.432 416.328H329.547C334.393 416.328 338.326 412.395 338.326 407.551V354.889C338.326 350.044 334.393 346.112 329.547 346.112H294.432C289.587 346.112 285.654 350.044 285.654 354.889V407.551C285.654 412.395 289.587 416.328 294.432 416.328ZM303.212 363.665H320.77V398.773H303.212V363.665Z" fill="white" stroke="#7700D1" stroke-width="11"/>
<path d="M145.193 407.55C145.193 412.394 149.126 416.326 153.972 416.326H189.087C193.932 416.326 197.865 412.394 197.865 407.55V354.887C197.865 350.043 193.932 346.111 189.087 346.111H153.972C149.126 346.111 145.193 350.043 145.193 354.887V407.55ZM162.75 363.665H180.308V398.773H162.75V363.665Z" fill="white" stroke="#7700D1" stroke-width="11"/>
<path fill-rule="evenodd" clip-rule="evenodd" d="M276.876 293.449H382.222C387.067 293.449 391 297.381 391 302.225V688.416C391 702.934 379.184 714.748 364.664 714.748H294.435C279.915 714.748 268.098 702.934 268.098 688.416C268.098 673.899 279.915 662.085 294.435 662.085C295.953 662.085 297.463 662.217 298.947 662.48C305.004 651.57 316.531 644.531 329.55 644.531C342.569 644.531 354.095 651.57 360.152 662.48C361.636 662.217 363.146 662.085 364.665 662.085C367.763 662.085 370.687 662.717 373.443 663.7V333.956H387.105V297.181H352.827V311.002H276.876C272.03 311.002 268.097 307.07 268.097 302.225C268.097 297.381 272.03 293.449 276.876 293.449ZM294.433 697.193H364.664C369.501 697.193 373.442 693.253 373.443 688.416C373.443 681.895 365.621 677.384 359.907 681.07C357.5 682.615 354.49 682.896 351.847 681.825C349.196 680.755 347.238 678.455 346.597 675.673C344.745 667.677 337.73 662.085 329.549 662.085C321.367 662.085 314.353 667.677 312.5 675.673C311.859 678.455 309.901 680.755 307.25 681.825C304.599 682.896 301.596 682.615 299.191 681.07C297.715 680.122 296.118 679.64 294.433 679.64C289.595 679.64 285.654 683.58 285.654 688.416C285.654 693.253 289.595 697.193 294.433 697.193Z" fill="white"/>
<path d="M298.947 662.48L297.986 667.896L301.85 668.582L303.755 665.15L298.947 662.48ZM360.152 662.48L355.344 665.15L357.249 668.582L361.114 667.896L360.152 662.48ZM373.443 663.7L371.595 668.88L378.943 671.502V663.7H373.443ZM373.443 333.956V328.456H367.943V333.956H373.443ZM387.105 333.956V339.456H392.605V333.956H387.105ZM387.105 297.181H392.605V291.681H387.105V297.181ZM352.827 297.181V291.681H347.327V297.181H352.827ZM352.827 311.002V316.502H358.327V311.002H352.827ZM373.443 688.416L378.943 688.418V688.416H373.443ZM359.907 681.07L362.878 685.699L362.888 685.692L359.907 681.07ZM351.847 681.825L353.912 676.728L353.907 676.726L351.847 681.825ZM346.597 675.673L351.957 674.438L351.955 674.431L346.597 675.673ZM312.5 675.673L307.142 674.431L307.14 674.438L312.5 675.673ZM299.191 681.07L296.217 685.697L296.218 685.698L299.191 681.07ZM382.222 287.949H276.876V298.949H382.222V287.949ZM396.5 302.225C396.5 294.342 390.104 287.949 382.222 287.949V298.949C384.031 298.949 385.5 300.42 385.5 302.225H396.5ZM396.5 688.416V302.225H385.5V688.416H396.5ZM364.664 720.248C382.22 720.248 396.5 705.972 396.5 688.416H385.5C385.5 699.895 376.147 709.248 364.664 709.248V720.248ZM294.435 720.248H364.664V709.248H294.435V720.248ZM262.598 688.416C262.598 705.972 276.878 720.248 294.435 720.248V709.248C282.951 709.248 273.598 699.895 273.598 688.416H262.598ZM294.435 656.585C276.878 656.585 262.598 670.861 262.598 688.416H273.598C273.598 676.938 282.951 667.585 294.435 667.585V656.585ZM299.908 657.065C298.103 656.744 296.271 656.585 294.435 656.585V667.585C295.635 667.585 296.824 667.689 297.986 667.896L299.908 657.065ZM329.55 639.031C314.504 639.031 301.152 647.179 294.138 659.81L303.755 665.15C308.857 655.962 318.557 650.031 329.55 650.031V639.031ZM364.961 659.81C357.948 647.179 344.595 639.031 329.55 639.031V650.031C340.542 650.031 350.242 655.962 355.344 665.15L364.961 659.81ZM364.665 656.585C362.828 656.585 360.996 656.744 359.191 657.065L361.114 667.896C362.275 667.689 363.464 667.585 364.665 667.585V656.585ZM375.291 658.52C372.077 657.373 368.522 656.585 364.665 656.585V667.585C367.004 667.585 369.297 668.06 371.595 668.88L375.291 658.52ZM367.943 333.956V663.7H378.943V333.956H367.943ZM387.105 328.456H373.443V339.456H387.105V328.456ZM381.605 297.181V333.956H392.605V297.181H381.605ZM352.827 302.681H387.105V291.681H352.827V302.681ZM358.327 311.002V297.181H347.327V311.002H358.327ZM276.876 316.502H352.827V305.502H276.876V316.502ZM262.597 302.225C262.597 310.109 268.994 316.502 276.876 316.502V305.502C275.067 305.502 273.597 304.031 273.597 302.225H262.597ZM276.876 287.949C268.994 287.949 262.597 294.342 262.597 302.225H273.597C273.597 300.42 275.067 298.949 276.876 298.949V287.949ZM364.664 691.693H294.433V702.693H364.664V691.693ZM367.943 688.415C367.943 690.214 366.464 691.693 364.664 691.693V702.693C372.538 702.693 378.941 696.291 378.943 688.418L367.943 688.415ZM362.888 685.692C363.781 685.116 364.966 685.068 366.148 685.724C367.366 686.4 367.943 687.47 367.943 688.416H378.943C378.943 677.661 366.401 670.336 356.925 676.449L362.888 685.692ZM349.782 686.923C354.083 688.666 358.971 688.207 362.878 685.699L356.935 676.442C356.029 677.024 354.897 677.127 353.912 676.728L349.782 686.923ZM341.238 676.907C342.281 681.434 345.467 685.18 349.787 686.925L353.907 676.726C352.925 676.329 352.196 675.475 351.957 674.438L341.238 676.907ZM329.549 667.585C335.158 667.585 339.961 671.399 341.239 676.914L351.955 674.431C349.528 663.954 340.303 656.585 329.549 656.585V667.585ZM317.858 676.914C319.136 671.399 323.939 667.585 329.549 667.585V656.585C318.795 656.585 309.569 663.954 307.142 674.431L317.858 676.914ZM309.31 686.925C313.631 685.18 316.817 681.434 317.86 676.907L307.14 674.438C306.901 675.475 306.172 676.329 305.19 676.726L309.31 686.925ZM296.218 685.698C300.126 688.208 305.005 688.664 309.31 686.925L305.19 676.726C304.192 677.129 303.066 677.022 302.163 676.443L296.218 685.698ZM294.433 685.14C295.012 685.14 295.585 685.291 296.217 685.697L302.165 676.444C299.846 674.953 297.223 674.14 294.433 674.14V685.14ZM291.154 688.416C291.154 686.619 292.632 685.14 294.433 685.14V674.14C286.559 674.14 280.154 680.542 280.154 688.416H291.154ZM294.433 691.693C292.632 691.693 291.154 690.214 291.154 688.416H280.154C280.154 696.291 286.559 702.693 294.433 702.693V691.693Z" fill="#7700D1"/>
<path d="M153.972 311.003H189.087C193.932 311.003 197.865 307.071 197.865 302.226V249.564C197.865 244.72 193.932 240.787 189.087 240.787H153.972C149.126 240.787 145.193 244.72 145.193 249.564V302.226C145.193 307.071 149.126 311.003 153.972 311.003ZM162.75 258.341H180.308V293.449H162.75V258.341Z" fill="white" stroke="#7700D1" stroke-width="11"/>
<path d="M145.193 512.875C145.193 517.719 149.126 521.651 153.972 521.651H189.087C193.932 521.651 197.865 517.719 197.865 512.875V460.212C197.865 455.368 193.932 451.436 189.087 451.436H153.972C149.126 451.436 145.193 455.368 145.193 460.212V512.875ZM162.75 468.99H180.308V504.098H162.75V468.99Z" fill="white" stroke="#7700D1" stroke-width="11"/>
<path d="M66.1843 311.003H101.299C106.145 311.003 110.078 307.071 110.078 302.226V249.564C110.078 244.72 106.145 240.787 101.299 240.787H66.1843C61.3388 240.787 57.4058 244.72 57.4058 249.564V302.226C57.4047 307.071 61.3377 311.003 66.1843 311.003ZM74.9627 258.341H92.5207V293.449H74.9627V258.341Z" fill="white" stroke="#7700D1" stroke-width="11"/>
<path d="M121.402 611.968C119.822 613.635 118.856 615.918 118.856 618.2C118.856 620.483 119.822 622.764 121.402 624.432C123.07 626.012 125.353 626.978 127.635 626.978C129.918 626.978 132.2 626.012 133.869 624.432C135.449 622.765 136.415 620.483 136.415 618.2C136.415 615.918 135.449 613.636 133.869 611.968C130.532 608.72 124.738 608.72 121.402 611.968Z" fill="white" stroke="#7700D1" stroke-width="11"/>
<path d="M57.4046 512.875C57.4046 517.719 61.3376 521.651 66.1831 521.651H101.299C106.145 521.651 110.077 517.719 110.077 512.875V460.212C110.077 455.368 106.145 451.436 101.299 451.436H66.1841C61.3386 451.436 57.4056 455.368 57.4056 460.212V512.875H57.4046ZM74.9626 468.99H92.5205V504.098H74.9626V468.99Z" fill="white" stroke="#7700D1" stroke-width="11"/>
<path d="M39.8479 565.537C39.8479 570.382 43.7809 574.314 48.6263 574.314H74.9628V653.307C74.9628 658.152 78.8958 662.084 83.7413 662.084C88.5868 662.084 92.5198 658.152 92.5198 653.307V574.314H162.751V653.307C162.751 658.152 166.684 662.084 171.529 662.084C176.375 662.084 180.308 658.152 180.308 653.307V574.314H206.644C211.49 574.314 215.423 570.382 215.423 565.537C215.423 560.693 211.49 556.76 206.644 556.76H48.6263C43.7809 556.76 39.8479 560.693 39.8479 565.537Z" fill="white" stroke="#7700D1" stroke-width="11"/>
<path d="M285.654 512.875C285.654 517.719 289.587 521.651 294.432 521.651H329.547C334.393 521.651 338.326 517.719 338.326 512.875V460.212C338.326 455.368 334.393 451.436 329.547 451.436H294.432C289.587 451.436 285.654 455.368 285.654 460.212V512.875ZM303.212 468.99H320.77V504.098H303.212V468.99Z" fill="white" stroke="#7700D1" stroke-width="11"/>
<path fill-rule="evenodd" clip-rule="evenodd" d="M13.5112 188.124H205.98V205.677H57.4058V189.744H8.43053C9.86482 188.724 11.6184 188.124 13.5112 188.124ZM7.42182 234.857H22.2897V653.307C22.2897 658.152 18.3567 662.084 13.5112 662.084C8.66574 662.084 4.73276 658.152 4.73276 653.307V196.901C4.73276 194.419 5.76436 192.178 7.42182 190.581V234.857ZM232.981 235.685V653.307C232.981 658.152 236.914 662.084 241.76 662.084C246.605 662.084 250.538 658.152 250.538 653.307V235.685H232.981ZM19.3201 381.399H8.18576V533.616H19.3201V381.399Z" fill="white"/>
<path d="M205.98 188.124H210.98V183.124H205.98V188.124ZM205.98 205.677V210.677H210.98V205.677H205.98ZM57.4058 205.677H52.4058V210.677H57.4058V205.677ZM57.4058 189.744H62.4058V184.744H57.4058V189.744ZM8.43053 189.744L5.53266 185.669L-7.2268 194.744H8.43053V189.744ZM22.2897 234.857H27.2897V229.857H22.2897V234.857ZM7.42182 234.857H2.42182V239.857H7.42182V234.857ZM7.42182 190.581H12.4218V178.821L3.95274 186.98L7.42182 190.581ZM232.981 235.685V230.685H227.981V235.685H232.981ZM250.538 235.685H255.538V230.685H250.538V235.685ZM8.18576 381.399V376.399H3.18576V381.399H8.18576ZM19.3201 381.399H24.3201V376.399H19.3201V381.399ZM8.18576 533.616H3.18576V538.616H8.18576V533.616ZM19.3201 533.616V538.616H24.3201V533.616H19.3201ZM205.98 183.124H13.5112V193.124H205.98V183.124ZM210.98 205.677V188.124H200.98V205.677H210.98ZM57.4058 210.677H205.98V200.677H57.4058V210.677ZM52.4058 189.744V205.677H62.4058V189.744H52.4058ZM8.43053 194.744H57.4058V184.744H8.43053V194.744ZM13.5112 183.124C10.5451 183.124 7.78461 184.068 5.53266 185.669L11.3284 193.818C11.945 193.38 12.6917 193.124 13.5112 193.124V183.124ZM22.2897 229.857H7.42182V239.857H22.2897V229.857ZM27.2897 653.307V234.857H17.2897V653.307H27.2897ZM13.5112 667.084C21.1172 667.084 27.2897 660.914 27.2897 653.307H17.2897C17.2897 655.39 15.5962 657.084 13.5112 657.084V667.084ZM-0.267242 653.307C-0.267242 660.914 5.90522 667.084 13.5112 667.084V657.084C11.4263 657.084 9.73276 655.39 9.73276 653.307H-0.267242ZM-0.267242 196.901V653.307H9.73276V196.901H-0.267242ZM3.95274 186.98C1.35887 189.479 -0.267242 193.004 -0.267242 196.901H9.73276C9.73276 195.835 10.1699 194.876 10.8909 194.181L3.95274 186.98ZM12.4218 234.857V190.581H2.42182V234.857H12.4218ZM237.981 653.307V235.685H227.981V653.307H237.981ZM241.76 657.084C239.675 657.084 237.981 655.39 237.981 653.307H227.981C227.981 660.914 234.154 667.084 241.76 667.084V657.084ZM245.538 653.307C245.538 655.39 243.845 657.084 241.76 657.084V667.084C249.366 667.084 255.538 660.914 255.538 653.307H245.538ZM245.538 235.685V653.307H255.538V235.685H245.538ZM232.981 240.685H250.538V230.685H232.981V240.685ZM8.18576 386.399H19.3201V376.399H8.18576V386.399ZM13.1858 533.616V381.399H3.18576V533.616H13.1858ZM19.3201 528.616H8.18576V538.616H19.3201V528.616ZM14.3201 381.399V533.616H24.3201V381.399H14.3201Z" fill="#7700D1"/>
<path fill-rule="evenodd" clip-rule="evenodd" d="M325.972 306.348V299.348H347.254C368.241 299.348 385.254 316.361 385.254 337.348V346.111H378.254V337.348C378.254 320.227 364.375 306.348 347.254 306.348H325.972Z" fill="white"/>
<path fill-rule="evenodd" clip-rule="evenodd" d="M185.451 201.172V194.172H206.844C227.83 194.172 244.844 211.185 244.844 232.172V240.788H237.844V232.172C237.844 215.051 223.964 201.172 206.844 201.172H185.451Z" fill="white"/>
<path fill-rule="evenodd" clip-rule="evenodd" d="M69.4976 200.459V193.459H48.2159C27.2291 193.459 10.2159 210.472 10.2159 231.459V240.788H17.2159V231.459C17.2159 214.338 31.0951 200.459 48.2159 200.459H69.4976Z" fill="white"/>
</g>
<defs>
<clipPath id="clip0_47_86">
<rect width="341" height="303" fill="white" transform="translate(434.262 356.683)"/>
</clipPath>
<clipPath id="clip1_47_86">
<rect width="396" height="325" fill="white" transform="translate(1205 332.683)"/>
</clipPath>
<clipPath id="clip2_47_86">
<rect width="391" height="657" fill="white"/>
</clipPath>
</defs>
</svg>
