<svg width="1916" height="436" viewBox="0 0 1916 436" fill="none" xmlns="http://www.w3.org/2000/svg">
<g opacity="0.05" clip-path="url(#clip0_2_782)">
<path d="M-1.56506 436H1912.46C1914.41 436 1916 434.567 1916 432.802C1916 431.038 1914.41 429.604 1912.46 429.604H-1.56506C-3.51794 429.604 -5.10461 431.038 -5.10461 432.802C-5.10461 434.567 -3.51794 436 -1.56506 436Z" fill="white"/>
<path d="M1505.84 410.583C1506.78 410.583 1507.66 410.197 1508.27 409.425L1561.09 346.516C1562.25 345.138 1562.03 343.153 1560.71 341.995C1559.33 340.837 1557.35 341.058 1556.19 342.381L1503.42 405.29C1502.26 406.668 1502.48 408.653 1503.8 409.811C1504.41 410.307 1505.13 410.583 1505.84 410.583Z" fill="white"/>
<path d="M1505.18 391.892C1506.06 391.892 1507 391.506 1507.6 390.734L1530.8 363.387C1531.95 362.064 1531.79 360.024 1530.41 358.866C1529.09 357.708 1527.05 357.874 1525.89 359.252L1502.7 386.599C1501.55 387.922 1501.71 389.962 1503.09 391.12C1503.69 391.616 1504.47 391.892 1505.18 391.892Z" fill="white"/>
<path d="M1558.72 417.861C1559.6 417.861 1560.54 417.475 1561.15 416.703L1584.34 389.356C1585.49 388.033 1585.33 385.993 1583.95 384.835C1582.63 383.677 1580.59 383.842 1579.44 385.221L1556.24 412.568C1555.09 413.891 1555.25 415.931 1556.63 417.089C1557.24 417.585 1557.95 417.861 1558.72 417.861Z" fill="white"/>
<path d="M1613.59 417.861C1614.52 417.861 1615.41 417.475 1616.01 416.703L1668.84 353.794C1669.99 352.415 1669.77 350.431 1668.45 349.273C1667.07 348.115 1665.09 348.28 1663.93 349.659L1611.11 412.568C1609.95 413.946 1610.17 415.931 1611.49 417.089C1612.1 417.585 1612.87 417.861 1613.59 417.861Z" fill="white"/>
<path d="M1633.14 375.572C1634.02 375.572 1634.96 375.186 1635.57 374.469L1665.59 339.238C1666.74 337.915 1666.58 335.875 1665.26 334.717C1663.93 333.559 1661.9 333.724 1660.74 335.048L1630.72 370.279C1629.56 371.602 1629.73 373.642 1631.05 374.8C1631.65 375.351 1632.43 375.572 1633.14 375.572Z" fill="white"/>
<path d="M1689.55 396.689C1690.43 396.689 1691.37 396.303 1691.97 395.586L1721.99 360.355C1723.15 359.031 1722.98 356.991 1721.66 355.834C1720.34 354.676 1718.3 354.841 1717.15 356.164L1687.12 391.396C1685.97 392.719 1686.13 394.759 1687.46 395.917C1688.12 396.468 1688.83 396.689 1689.55 396.689Z" fill="white"/>
<path d="M1444.31 436H1781.65L1784.84 432.802V191.311L1781.65 188.113H1722.87C1721.11 188.113 1719.68 189.547 1719.68 191.311C1719.68 193.075 1721.11 194.509 1722.87 194.509H1778.45V429.549H1447.56V194.509H1503.09C1504.85 194.509 1506.28 193.075 1506.28 191.311C1506.28 189.547 1504.85 188.113 1503.09 188.113H1444.31L1441.12 191.311V432.802L1444.31 436Z" fill="white"/>
<path d="M1504.24 228.582H1721.72L1724.91 225.384V154.26L1721.72 151.062H1504.24L1501.05 154.26V225.384L1504.24 228.582ZM1718.52 222.186H1507.44V157.458H1718.52V222.186Z" fill="white"/>
<path d="M1504.24 434.511C1506.01 434.511 1507.44 433.078 1507.44 431.313V306.267H1718.52V431.313C1718.52 433.078 1719.96 434.511 1721.72 434.511C1723.48 434.511 1724.91 433.078 1724.91 431.313V303.014L1721.72 299.816H1504.24L1501.05 303.014V431.258C1501.05 433.078 1502.48 434.511 1504.24 434.511Z" fill="white"/>
<path d="M1612.98 434.511C1614.74 434.511 1616.18 433.078 1616.18 431.313V303.014C1616.18 301.25 1614.74 299.816 1612.98 299.816C1611.22 299.816 1609.79 301.25 1609.79 303.014V431.258C1609.79 433.078 1611.22 434.511 1612.98 434.511Z" fill="white"/>
<path d="M1504.24 335.599H1721.72C1723.48 335.599 1724.91 334.166 1724.91 332.401C1724.91 330.637 1723.48 329.204 1721.72 329.204H1504.24C1502.48 329.204 1501.05 330.637 1501.05 332.401C1501.05 334.166 1502.48 335.599 1504.24 335.599Z" fill="white"/>
<path d="M1667.35 434.512C1669.11 434.512 1670.54 433.078 1670.54 431.314V332.401C1670.54 330.637 1669.11 329.204 1667.35 329.204C1665.59 329.204 1664.15 330.637 1664.15 332.401V431.314C1664.15 433.078 1665.59 434.512 1667.35 434.512Z" fill="white"/>
<path d="M1558.61 434.512C1560.38 434.512 1561.81 433.078 1561.81 431.314V332.401C1561.81 330.637 1560.38 329.204 1558.61 329.204C1556.85 329.204 1555.42 330.637 1555.42 332.401V431.314C1555.42 433.078 1556.85 434.512 1558.61 434.512Z" fill="white"/>
<path d="M1444.37 266.074H1781.65V272.47H1444.37V266.074Z" fill="white"/>
<path d="M1444.31 256.48H1569.91C1571.67 256.48 1573.1 255.047 1573.1 253.283C1573.1 251.518 1571.67 250.085 1569.91 250.085H1444.31C1442.55 250.085 1441.12 251.518 1441.12 253.283C1441.12 255.047 1442.55 256.48 1444.31 256.48Z" fill="white"/>
<path d="M1867.75 360.189C1891.87 360.189 1910.11 338.191 1910.11 309.024C1910.16 258.52 1871.93 208.954 1870.28 206.859H1865.21C1863.56 208.954 1825.39 258.465 1825.39 309.024C1825.39 338.191 1843.62 360.189 1867.75 360.189ZM1867.75 214.247C1876.34 226.322 1903.72 268.059 1903.72 309.024C1903.72 334.552 1888.24 353.794 1867.75 353.794C1847.26 353.794 1831.78 334.552 1831.78 309.024C1831.78 268.059 1859.21 226.322 1867.75 214.247Z" fill="white"/>
<path d="M1867.75 435.504C1869.51 435.504 1870.94 434.07 1870.94 432.306V292.098C1870.94 290.333 1869.51 288.9 1867.75 288.9C1865.98 288.9 1864.55 290.333 1864.55 292.098V432.306C1864.55 434.07 1865.98 435.504 1867.75 435.504Z" fill="white"/>
<path d="M468.98 374.428C488.546 374.428 503.332 356.588 503.332 332.935C503.377 291.98 472.375 251.784 471.035 250.085H466.925C465.585 251.784 434.629 291.935 434.629 332.935C434.629 356.588 449.415 374.428 468.98 374.428ZM468.98 256.076C475.949 265.868 498.15 299.715 498.15 332.935C498.15 353.637 485.598 369.241 468.98 369.241C452.363 369.241 439.81 353.637 439.81 332.935C439.81 299.715 462.056 265.868 468.98 256.076Z" fill="white"/>
<path d="M468.98 435.504C470.41 435.504 471.571 434.341 471.571 432.91V319.209C471.571 317.778 470.41 316.615 468.98 316.615C467.551 316.615 466.389 317.778 466.389 319.209V432.91C466.389 434.341 467.551 435.504 468.98 435.504Z" fill="white"/>
<path d="M1392.2 436C1393.96 436 1395.39 434.566 1395.39 432.802V365.041C1395.39 363.277 1393.96 361.843 1392.2 361.843C1390.44 361.843 1389 363.277 1389 365.041V432.802C1389 434.566 1390.44 436 1392.2 436Z" fill="white"/>
<path d="M1369.56 368.018H1414.73L1418.14 364.6V340.561L1414.73 337.143H1369.56L1366.14 340.561V364.6L1369.56 368.018ZM1411.37 361.182H1372.97V343.924H1411.37V361.182Z" fill="white"/>
</g>
<defs>
<clipPath id="clip0_2_782">
<rect width="1963" height="436" fill="white" transform="matrix(-1 0 0 1 1916 0)"/>
</clipPath>
</defs>
</svg>
