<svg width="191" height="190" viewBox="0 0 191 190" fill="none" xmlns="http://www.w3.org/2000/svg">
<g id="Frame 1" clip-path="url(#clip0_51_286)">
<g id="&#208;&#175;&#209;&#137;&#208;&#184;&#208;&#186;">
<g id="Group 134">
<g id="Subtract">
<mask id="path-1-inside-1_51_286" fill="white">
<path fill-rule="evenodd" clip-rule="evenodd" d="M187.184 -4.30713H3.1347L-4.12451 2.95934V187.193L-0.974098 190.346V154.169H10.4581V40.1917H3.65233V-0.0982666H49.1473V10.2901H145.994V-0.0982666H190.431V40.1917H179.924V154.169H190.431V191.209L194.443 187.193V2.95934L187.184 -4.30713ZM158.788 194.459H30.6692V179.926H158.788V194.459Z"/>
</mask>
<path fill-rule="evenodd" clip-rule="evenodd" d="M187.184 -4.30713H3.1347L-4.12451 2.95934V187.193L-0.974098 190.346V154.169H10.4581V40.1917H3.65233V-0.0982666H49.1473V10.2901H145.994V-0.0982666H190.431V40.1917H179.924V154.169H190.431V191.209L194.443 187.193V2.95934L187.184 -4.30713ZM158.788 194.459H30.6692V179.926H158.788V194.459Z" fill="white"/>
<path d="M3.1347 -4.30713V-8.30713H1.47668L0.304861 -7.13414L3.1347 -4.30713ZM187.184 -4.30713L190.014 -7.13411L188.842 -8.30713H187.184V-4.30713ZM-4.12451 2.95934L-6.95435 0.132329L-8.12451 1.30366V2.95934H-4.12451ZM-4.12451 187.193H-8.12451V188.848L-6.95435 190.02L-4.12451 187.193ZM-0.974098 190.346L-3.80394 193.173L3.0259 200.01V190.346H-0.974098ZM-0.974098 154.169V150.169H-4.9741V154.169H-0.974098ZM10.4581 154.169V158.169H14.4581V154.169H10.4581ZM10.4581 40.1917H14.4581V36.1917H10.4581V40.1917ZM3.65233 40.1917H-0.347673V44.1917H3.65233V40.1917ZM3.65233 -0.0982666V-4.09827H-0.347673V-0.0982666H3.65233ZM49.1473 -0.0982666H53.1473V-4.09827H49.1473V-0.0982666ZM49.1473 10.2901H45.1473V14.2901H49.1473V10.2901ZM145.994 10.2901V14.2901H149.994V10.2901H145.994ZM145.994 -0.0982666V-4.09827H141.994V-0.0982666H145.994ZM190.431 -0.0982666H194.431V-4.09827H190.431V-0.0982666ZM190.431 40.1917V44.1917H194.431V40.1917H190.431ZM179.924 40.1917V36.1917H175.924V40.1917H179.924ZM179.924 154.169H175.924V158.169H179.924V154.169ZM190.431 154.169H194.431V150.169H190.431V154.169ZM190.431 191.209H186.431V200.872L193.261 194.035L190.431 191.209ZM194.443 187.193L197.273 190.02L198.443 188.848V187.193H194.443ZM194.443 2.95934H198.443V1.30369L197.273 0.13236L194.443 2.95934ZM30.6692 194.459H26.6692V198.459H30.6692V194.459ZM158.788 194.459V198.459H162.788V194.459H158.788ZM30.6692 179.926V175.926H26.6692V179.926H30.6692ZM158.788 179.926H162.788V175.926H158.788V179.926ZM3.1347 -0.307129H187.184V-8.30713H3.1347V-0.307129ZM-1.29467 5.78636L5.96454 -1.48012L0.304861 -7.13414L-6.95435 0.132329L-1.29467 5.78636ZM-0.124512 187.193V2.95934H-8.12451V187.193H-0.124512ZM1.85574 187.519L-1.29467 184.366L-6.95435 190.02L-3.80394 193.173L1.85574 187.519ZM-4.9741 154.169V190.346H3.0259V154.169H-4.9741ZM10.4581 150.169H-0.974098V158.169H10.4581V150.169ZM6.45806 40.1917V154.169H14.4581V40.1917H6.45806ZM10.4581 36.1917H3.65233V44.1917H10.4581V36.1917ZM7.65233 40.1917V-0.0982666H-0.347673V40.1917H7.65233ZM3.65233 3.90173H49.1473V-4.09827H3.65233V3.90173ZM45.1473 -0.0982666V10.2901H53.1473V-0.0982666H45.1473ZM145.994 6.2901H49.1473V14.2901H145.994V6.2901ZM141.994 -0.0982666V10.2901H149.994V-0.0982666H141.994ZM190.431 -4.09827H145.994V3.90173H190.431V-4.09827ZM194.431 40.1917V-0.0982666H186.431V40.1917H194.431ZM179.924 44.1917H190.431V36.1917H179.924V44.1917ZM183.924 154.169V40.1917H175.924V154.169H183.924ZM190.431 150.169H179.924V158.169H190.431V150.169ZM194.431 191.209V154.169H186.431V191.209H194.431ZM191.613 184.366L187.601 188.382L193.261 194.035L197.273 190.02L191.613 184.366ZM190.443 2.95934V187.193H198.443V2.95934H190.443ZM184.354 -1.48015L191.613 5.78632L197.273 0.13236L190.014 -7.13411L184.354 -1.48015ZM30.6692 198.459H158.788V190.459H30.6692V198.459ZM26.6692 179.926V194.459H34.6692V179.926H26.6692ZM158.788 175.926H30.6692V183.926H158.788V175.926ZM162.788 194.459V179.926H154.788V194.459H162.788Z" fill="#7700D1" mask="url(#path-1-inside-1_51_286)"/>
</g>
<g id="Group 111">
<g id="Union">
<mask id="path-3-inside-2_51_286" fill="white">
<path fill-rule="evenodd" clip-rule="evenodd" d="M50.9844 77.6929H79.551H109.886H138.453L145.994 70.3537V13.0321C145.994 8.98286 142.614 5.69287 138.453 5.69287C134.292 5.69287 130.911 8.98286 130.911 13.0321V62.888H109.886H79.551H58.5259V13.0321C58.5259 8.98286 55.1452 5.69287 50.9844 5.69287C46.8235 5.69287 43.4429 8.98286 43.4429 13.0321V70.3537L50.9844 77.6929Z"/>
</mask>
<path fill-rule="evenodd" clip-rule="evenodd" d="M50.9844 77.6929H79.551H109.886H138.453L145.994 70.3537V13.0321C145.994 8.98286 142.614 5.69287 138.453 5.69287C134.292 5.69287 130.911 8.98286 130.911 13.0321V62.888H109.886H79.551H58.5259V13.0321C58.5259 8.98286 55.1452 5.69287 50.9844 5.69287C46.8235 5.69287 43.4429 8.98286 43.4429 13.0321V70.3537L50.9844 77.6929Z" fill="white"/>
<path d="M50.9844 77.6929L48.1947 80.5595L49.3593 81.6929H50.9844V77.6929ZM138.453 77.6929V81.6929H140.078L141.242 80.5595L138.453 77.6929ZM145.994 70.3537L148.784 73.2203L149.994 72.0425V70.3537H145.994ZM130.911 62.888V66.888H134.911V62.888H130.911ZM58.5259 62.888H54.5259V66.888H58.5259V62.888ZM43.4429 70.3537H39.4429V72.0425L40.6532 73.2203L43.4429 70.3537ZM79.551 73.6929H50.9844V81.6929H79.551V73.6929ZM79.551 81.6929H109.886V73.6929H79.551V81.6929ZM109.886 81.6929H138.453V73.6929H109.886V81.6929ZM141.242 80.5595L148.784 73.2203L143.204 67.4871L135.663 74.8263L141.242 80.5595ZM149.994 70.3537V13.0321H141.994V70.3537H149.994ZM149.994 13.0321C149.994 6.67189 144.719 1.69287 138.453 1.69287V9.69287C140.508 9.69287 141.994 11.2938 141.994 13.0321H149.994ZM138.453 1.69287C132.186 1.69287 126.911 6.67188 126.911 13.0321H134.911C134.911 11.2938 136.398 9.69287 138.453 9.69287V1.69287ZM126.911 13.0321V62.888H134.911V13.0321H126.911ZM130.911 58.888H109.886V66.888H130.911V58.888ZM109.886 58.888H79.551V66.888H109.886V58.888ZM58.5259 66.888H79.551V58.888H58.5259V66.888ZM54.5259 13.0321V62.888H62.5259V13.0321H54.5259ZM50.9844 9.69287C53.0393 9.69287 54.5259 11.2938 54.5259 13.0321H62.5259C62.5259 6.67189 57.2511 1.69287 50.9844 1.69287V9.69287ZM47.4429 13.0321C47.4429 11.2938 48.9295 9.69287 50.9844 9.69287V1.69287C44.7176 1.69287 39.4429 6.67189 39.4429 13.0321H47.4429ZM47.4429 70.3537V13.0321H39.4429V70.3537H47.4429ZM53.7741 74.8263L46.2326 67.4871L40.6532 73.2203L48.1947 80.5595L53.7741 74.8263Z" fill="#7700D1" mask="url(#path-3-inside-2_51_286)"/>
</g>
<rect id="Rectangle 37" x="-1.75432" y="1.75432" width="3.50863" height="10.4914" transform="matrix(-1 0 0 1 138.41 2.69287)" fill="white" stroke="white" stroke-width="3.50863"/>
<rect id="Rectangle 38" x="-1.78855" y="1.78855" width="3.57709" height="10.4229" transform="matrix(-1 0 0 1 50.957 2.69287)" fill="white" stroke="white" stroke-width="3.57709"/>
</g>
<path id="Subtract_2" fill-rule="evenodd" clip-rule="evenodd" d="M134.901 6.45479H152.431C169.662 6.45479 183.631 20.4235 183.631 37.6548V47.3583H190.431V37.6548C190.431 16.668 173.418 -0.345215 152.431 -0.345215H133.159C131.686 -0.345215 130.232 -0.261375 128.803 -0.0982056H134.901V6.45479Z" fill="white"/>
<path id="Subtract_3" fill-rule="evenodd" clip-rule="evenodd" d="M183.596 135.237L183.596 152.767C183.596 169.998 169.627 183.967 152.396 183.967L144.656 183.967L144.656 190.767L152.396 190.767C173.383 190.767 190.396 173.754 190.396 152.767L190.396 133.495C190.396 132.053 190.316 130.629 190.159 129.229L190.159 135.237L183.596 135.237Z" fill="white"/>
<path id="Subtract_4" fill-rule="evenodd" clip-rule="evenodd" d="M6.65504 135.237L6.65504 152.767C6.65504 169.998 20.6237 183.967 37.855 183.967L45.5945 183.967L45.5945 190.767L37.855 190.767C16.8682 190.767 -0.144957 173.754 -0.144957 152.767L-0.144958 133.495C-0.144958 132.053 -0.0646003 130.629 0.091883 129.229L0.0918833 135.237L6.65504 135.237Z" fill="white"/>
<path id="Subtract_5" fill-rule="evenodd" clip-rule="evenodd" d="M55.3851 6.45479H37.8551C20.6238 6.45479 6.65511 20.4235 6.65511 37.6548V47.3583H-0.144894V37.6548C-0.144894 16.668 16.8683 -0.345215 37.8551 -0.345215H57.1269C58.6001 -0.345215 60.0538 -0.261375 61.4834 -0.0982056H55.3851V6.45479Z" fill="white"/>
</g>
</g>
</g>
<defs>
<clipPath id="clip0_51_286">
<rect width="190" height="190" fill="white" transform="translate(0.283813 0.00415039)"/>
</clipPath>
</defs>
</svg>
