<svg width="360" height="177" viewBox="0 0 360 177" fill="none" xmlns="http://www.w3.org/2000/svg">
<g clip-path="url(#clip0_2_1198)">
<rect x="76.4819" y="4.41724" width="159.599" height="117.65" fill="#7700D1"/>
<path d="M206.627 42.0127L281.718 44.7271L309.376 71.2188L347.77 108.926L354.139 118.401L356.686 129.036L354.139 146.596L339.043 148.69L335.054 149.887L206.627 152.942V42.0127Z" fill="#7700D1"/>
<path d="M23.9238 69.76H2.54007C1.14726 69.76 0.000244141 68.6094 0.000244141 67.2123C0.000244141 65.8151 1.14726 64.6646 2.54007 64.6646H23.9238C25.3166 64.6646 26.4636 65.8151 26.4636 67.2123C26.4636 68.6505 25.3166 69.76 23.9238 69.76Z" fill="white"/>
<path d="M46.4953 42.9676H25.1116C23.7188 42.9676 22.5718 41.817 22.5718 40.4198C22.5718 39.0227 23.7188 37.8721 25.1116 37.8721H46.4953C47.8882 37.8721 49.0352 39.0227 49.0352 40.4198C49.0352 41.817 47.8882 42.9676 46.4953 42.9676Z" fill="white"/>
<path d="M46.4953 96.5935H25.1116C23.7188 96.5935 22.5718 95.4429 22.5718 94.0458C22.5718 92.6486 23.7188 91.498 25.1116 91.498H46.4953C47.8882 91.498 49.0352 92.6486 49.0352 94.0458C49.0352 95.4429 47.8882 96.5935 46.4953 96.5935Z" fill="white"/>
<path d="M356.477 127.66C356.395 127.66 356.313 127.66 356.231 127.66C340.788 126.016 330.464 107.524 330.014 106.743L332.103 103.209H348.571C349.882 103.209 350.947 104.278 350.947 105.593C350.947 106.908 349.882 107.976 348.571 107.976H336.445C340.009 113.072 347.506 121.948 356.723 122.934C358.034 123.057 358.976 124.249 358.853 125.564C358.689 126.756 357.665 127.66 356.477 127.66Z" fill="white"/>
<path d="M345.335 151.165H334.971C333.66 151.165 332.595 150.096 332.595 148.781C332.595 147.466 333.66 146.398 334.971 146.398H345.335C350.783 146.398 355.207 141.96 355.207 136.495V122.728C355.207 116.688 351.152 108.51 346.4 104.853L346.236 104.73L284.42 48.1041C281.061 45.5975 279.053 45.5975 274.342 45.6797C273.523 45.6797 272.622 45.7208 271.68 45.7208H239.522C238.211 45.7208 237.146 44.6524 237.146 43.3374C237.146 42.0224 238.211 40.954 239.522 40.954H271.68C272.622 40.954 273.482 40.954 274.301 40.9129C279.34 40.8307 282.658 40.7896 287.369 44.3647L287.533 44.488L349.349 101.073C355.289 105.675 359.959 115.167 359.959 122.687V136.453C360 144.549 353.405 151.165 345.335 151.165Z" fill="white"/>
<path d="M284.215 151.165H238.457C237.146 151.165 236.081 150.096 236.081 148.781C236.081 147.466 237.146 146.398 238.457 146.398H284.215C285.526 146.398 286.591 147.466 286.591 148.781C286.591 150.096 285.526 151.165 284.215 151.165Z" fill="white"/>
<path d="M309.572 176.683C294.292 176.683 281.839 164.191 281.839 148.863C281.839 133.536 294.292 121.043 309.572 121.043C324.852 121.043 337.306 133.536 337.306 148.863C337.347 164.191 324.893 176.683 309.572 176.683ZM309.572 125.81C296.914 125.81 286.591 136.166 286.591 148.863C286.591 161.561 296.914 171.916 309.572 171.916C322.231 171.916 332.554 161.561 332.554 148.863C332.554 136.166 322.272 125.81 309.572 125.81Z" fill="white"/>
<path d="M309.572 162.547C302.035 162.547 295.931 156.424 295.931 148.863C295.931 141.302 302.035 135.179 309.572 135.179C317.11 135.179 323.214 141.302 323.214 148.863C323.214 156.424 317.11 162.547 309.572 162.547ZM309.572 139.946C304.656 139.946 300.683 143.932 300.683 148.863C300.683 153.794 304.656 157.78 309.572 157.78C314.488 157.78 318.462 153.794 318.462 148.863C318.462 143.932 314.488 139.946 309.572 139.946Z" fill="white"/>
<path d="M285.69 125.81H252.262C250.952 125.81 249.886 124.742 249.886 123.427C249.886 122.112 250.952 121.043 252.262 121.043H285.69C287.001 121.043 288.066 122.112 288.066 123.427C288.066 124.742 287.001 125.81 285.69 125.81Z" fill="white"/>
<path d="M317.642 92.4021H252.262L249.886 90.0187V54.5557L252.262 52.1724H280.036L281.675 52.8298L319.281 88.2928L317.642 92.4021ZM254.638 87.6354H311.661L279.094 56.9391H254.638V87.6354Z" fill="white"/>
<path d="M238.334 149.768C237.023 149.768 235.958 148.699 235.958 147.384V43.6251C235.958 42.3101 237.023 41.2417 238.334 41.2417C239.645 41.2417 240.71 42.3101 240.71 43.6251V147.384C240.71 148.699 239.645 149.768 238.334 149.768Z" fill="white"/>
<path d="M256.523 151.165H162.385C161.074 151.165 160.009 150.096 160.009 148.781C160.009 147.466 161.074 146.398 162.385 146.398H256.523C257.834 146.398 258.899 147.466 258.899 148.781C258.899 150.096 257.834 151.165 256.523 151.165Z" fill="white"/>
<path d="M111.671 151.164H108.148C100.528 151.164 94.3425 144.959 94.3425 137.316V123.427C94.3425 122.112 95.4076 121.043 96.7185 121.043C98.0294 121.043 99.0945 122.112 99.0945 123.427V137.316C99.0945 142.329 103.15 146.398 108.148 146.398H111.671C112.982 146.398 114.047 147.466 114.047 148.781C114.047 150.096 112.982 151.164 111.671 151.164Z" fill="white"/>
<path d="M137.028 176.683C121.748 176.683 109.295 164.191 109.295 148.863C109.295 133.536 121.748 121.043 137.028 121.043C152.308 121.043 164.761 133.536 164.761 148.863C164.761 164.191 152.308 176.683 137.028 176.683ZM137.028 125.81C124.37 125.81 114.047 136.166 114.047 148.863C114.047 161.561 124.37 171.916 137.028 171.916C149.686 171.916 160.009 161.561 160.009 148.863C160.009 136.166 149.686 125.81 137.028 125.81Z" fill="white"/>
<path d="M137.028 162.547C129.491 162.547 123.387 156.424 123.387 148.863C123.387 141.302 129.491 135.179 137.028 135.179C144.566 135.179 150.669 141.302 150.669 148.863C150.669 156.424 144.525 162.547 137.028 162.547ZM137.028 139.946C132.112 139.946 128.139 143.932 128.139 148.863C128.139 153.794 132.112 157.78 137.028 157.78C141.944 157.78 145.917 153.794 145.917 148.863C145.917 143.932 141.903 139.946 137.028 139.946Z" fill="white"/>
<rect x="334.894" y="150.159" width="2.75615" height="8.71269" transform="rotate(-90 334.894 150.159)" fill="white"/>
<rect x="254.569" y="150.159" width="2.75615" height="28.6644" transform="rotate(-90 254.569 150.159)" fill="white"/>
<rect x="162.656" y="150.159" width="2.75615" height="28.6644" transform="rotate(-90 162.656 150.159)" fill="white"/>
<path d="M266.436 74.65C265.904 74.65 265.33 74.4445 264.88 74.0747C263.897 73.2117 263.774 71.7324 264.634 70.7051L279.054 53.7338C279.914 52.7476 281.389 52.6243 282.413 53.4872C283.396 54.3502 283.519 55.8295 282.658 56.8568L268.239 73.8281C267.788 74.4034 267.092 74.65 266.436 74.65Z" fill="white"/>
<path d="M267.296 92.4022C266.764 92.4022 266.19 92.1967 265.74 91.8269C264.757 90.9639 264.634 89.4846 265.494 88.4573L281.798 69.267C282.658 68.2808 284.133 68.1575 285.157 69.0204C286.14 69.8834 286.263 71.3627 285.403 72.39L269.14 91.5803C268.648 92.1145 267.993 92.4022 267.296 92.4022Z" fill="white"/>
<path d="M263.282 98.8535H252.262V103.62H263.282V98.8535Z" fill="white"/>
<path fill-rule="evenodd" clip-rule="evenodd" d="M74.0574 36.2968V123.427L76.4334 125.81H238.777L241.153 123.427V36.2968H236.401V121.044H78.8093V36.2968H74.0574ZM118.91 5.44986H194V0.683105H118.91V5.44986Z" fill="white"/>
<rect x="350.488" y="104.216" width="2.75615" height="5.30178" transform="rotate(90 350.488 104.216)" fill="white"/>
<rect x="358.243" y="123.719" width="2.78785" height="3.15145" transform="rotate(90 358.243 123.719)" fill="white"/>
<rect x="273.75" y="88.6487" width="2.75342" height="8.83124" transform="rotate(90 273.75 88.6487)" fill="white"/>
<path d="M112.43 54.4037C113.881 54.4037 114.98 54.7973 115.725 55.5845C116.483 56.3583 116.862 57.4991 116.862 59.0067V63.8098C116.862 65.3175 116.483 66.4649 115.725 67.2521C114.98 68.0259 113.881 68.4128 112.43 68.4128H104.915V54.4037H112.43ZM113.393 59.0067C113.393 57.806 112.815 57.2056 111.659 57.2056H108.383V65.611H111.659C112.815 65.611 113.393 65.0106 113.393 63.8098V59.0067Z" fill="white"/>
<path d="M128.033 58.2062C128.033 57.4057 127.648 57.0054 126.877 57.0054H123.601C122.83 57.0054 122.445 57.4057 122.445 58.2062V64.6104C122.445 65.4109 122.83 65.8111 123.601 65.8111H126.877C127.648 65.8111 128.033 65.4109 128.033 64.6104V58.2062ZM131.502 64.6104C131.502 66.0113 131.193 67.0319 130.577 67.6724C129.973 68.2994 128.997 68.613 127.648 68.613H122.83C121.481 68.613 120.499 68.2994 119.882 67.6724C119.278 67.0319 118.976 66.0113 118.976 64.6104V58.2062C118.976 56.8053 119.278 55.7913 119.882 55.1642C120.499 54.5238 121.481 54.2036 122.83 54.2036H127.648C128.997 54.2036 129.973 54.5238 130.577 55.1642C131.193 55.7913 131.502 56.8053 131.502 58.2062V64.6104Z" fill="white"/>
<path d="M133.611 65.511C137.131 65.7111 139.514 65.8111 140.76 65.8111C141.056 65.8111 141.287 65.7244 141.454 65.551C141.634 65.3642 141.724 65.1174 141.724 64.8105V63.0093H137.292C135.943 63.0093 134.96 62.6958 134.343 62.0687C133.739 61.4283 133.438 60.4076 133.438 59.0067V58.4063C133.438 57.0054 133.739 55.9914 134.343 55.3644C134.96 54.724 135.943 54.4037 137.292 54.4037H144.055V57.2056H138.062C137.292 57.2056 136.906 57.6058 136.906 58.4063V58.8066C136.906 59.6071 137.292 60.0074 138.062 60.0074H141.531C142.79 60.0074 143.715 60.3142 144.306 60.928C144.897 61.5417 145.192 62.5023 145.192 63.8098V64.8105C145.192 66.118 144.897 67.0786 144.306 67.6924C143.715 68.3061 142.79 68.613 141.531 68.613C140.876 68.613 140.182 68.5996 139.45 68.5729L137.677 68.4929C136.367 68.4262 135.011 68.3328 133.611 68.2127V65.511Z" fill="white"/>
<path d="M153.095 68.4128H149.626V57.2056H145.58V54.4037H157.142V57.2056H153.095V68.4128Z" fill="white"/>
<path d="M160.125 68.4128H156.367L161.474 54.4037H165.328L170.434 68.4128H166.676L165.809 65.9112H160.992L160.125 68.4128ZM161.859 63.3095H164.942L163.401 58.6065L161.859 63.3095Z" fill="white"/>
<path d="M176.305 64.2101L179.58 54.4037H183.338L178.232 68.4128H174.378L169.271 54.4037H173.029L176.305 64.2101Z" fill="white"/>
<path d="M195.574 68.4128H184.879V54.4037H195.574V57.2056H188.347V59.9073H194.032V62.7091H188.347V65.611H195.574V68.4128Z" fill="white"/>
<path d="M197.689 54.4037H205.782C207.131 54.4037 208.107 54.724 208.711 55.3644C209.328 55.9914 209.636 57.0054 209.636 58.4063V60.2075C209.636 61.3149 209.456 62.1755 209.097 62.7892C208.75 63.4029 208.191 63.8098 207.42 64.01L209.829 68.4128H206.071L203.855 64.2101H201.157V68.4128H197.689V54.4037ZM206.168 58.4063C206.168 57.6058 205.782 57.2056 205.011 57.2056H201.157V61.4083H205.011C205.782 61.4083 206.168 61.008 206.168 60.2075V58.4063Z" fill="white"/>
<rect x="244.92" y="41.9526" width="2.75621" height="7.53412" transform="rotate(90 244.92 41.9526)" fill="white"/>
<rect x="236.97" y="122.594" width="2.75615" height="25.9179" fill="white"/>
<path fill-rule="evenodd" clip-rule="evenodd" d="M177.429 5.48311H204.127C221.838 5.48311 236.216 19.7545 236.388 37.4248H241.188C241.016 17.1034 224.489 0.683105 204.127 0.683105H177.429C175.801 0.683105 174.197 0.788104 172.625 0.991699H176.506V5.49606C176.813 5.48744 177.121 5.48311 177.429 5.48311Z" fill="white"/>
<path fill-rule="evenodd" clip-rule="evenodd" d="M137.816 5.48311H111.119C93.4076 5.48311 79.0298 19.7545 78.8576 37.4248H74.0574C74.2297 17.1034 90.7566 0.683105 111.119 0.683105H137.816C139.445 0.683105 141.048 0.788104 142.621 0.991699H138.74V5.49606C138.433 5.48744 138.125 5.48311 137.816 5.48311Z" fill="white"/>
</g>
<defs>
<clipPath id="clip0_2_1198">
<rect width="360" height="176" fill="white" transform="translate(0.000244141 0.683105)"/>
</clipPath>
</defs>
</svg>
