<svg width="85" height="41" viewBox="0 0 85 41" fill="none" xmlns="http://www.w3.org/2000/svg">
<g opacity="0.2">
<path d="M2.23444 31.6998H45.8997C47.1444 31.6998 48.1323 30.6911 48.1323 29.4649C48.1323 28.2189 47.1247 27.23 45.8997 27.23H2.23444C0.989681 27.23 0.00177002 28.2386 0.00177002 29.4649C0.00177002 30.6911 1.00944 31.6998 2.23444 31.6998Z" fill="white"/>
<path d="M20.9855 40.8767H69.2742C77.5726 40.8767 84.3101 34.1325 84.3101 25.8258C84.3101 17.5192 77.5726 10.775 69.2742 10.775C67.2589 10.775 65.283 11.1705 63.4653 11.9418C62.4576 9.07405 60.6992 6.48318 58.348 4.48562C55.1867 1.77606 51.156 0.272949 46.9871 0.272949C41.1189 0.272949 35.7053 3.25939 32.4847 7.98628C30.6867 5.98872 27.6637 3.93183 22.8625 3.93183C15.6508 3.93183 9.80243 9.80584 9.80243 17.0049C9.80243 18.2509 10.8101 19.2398 12.0351 19.2398C13.2799 19.2398 14.2677 18.2312 14.2677 17.0049C14.2677 12.2583 18.1206 8.42139 22.8428 8.42139C28.7702 8.42139 30.4891 13.0098 30.5484 13.2076V13.1878L34.7766 13.2472C36.6536 8.16428 41.5536 4.7625 46.9871 4.7625C53.3689 4.7625 58.7629 9.35095 59.8101 15.6601L63.2875 17.1434C65.0657 15.9172 67.1206 15.2645 69.2742 15.2645C75.1028 15.2645 79.825 20.0112 79.825 25.8258C79.825 31.6603 75.0831 36.3872 69.2742 36.3872H20.9855C19.7407 36.3872 18.7528 37.3958 18.7528 38.6221C18.7331 39.8681 19.7407 40.8767 20.9855 40.8767Z" fill="white"/>
</g>
</svg>
