<svg width="80" height="41" viewBox="0 0 80 41" fill="none" xmlns="http://www.w3.org/2000/svg">
<g id="Group" opacity="0.2">
<path id="Vector" d="M58.6799 12.1467L58.1895 12.3549L58.0128 11.8522C57.0341 9.0667 55.3261 6.55055 53.0435 4.6113L53.0418 4.60988C49.9705 1.9774 46.055 0.517578 42.0063 0.517578C32.641 0.517578 25.0204 8.14503 25.0204 17.5209C25.0204 18.4884 25.8018 19.2558 26.7531 19.2558C27.7015 19.2558 28.4858 18.4715 28.4858 17.5209C28.4858 10.0659 34.5378 4.00713 41.9866 4.00713C48.5222 4.00713 54.0601 8.64223 55.2549 15.0511L58.2335 16.3216C60.0399 15.1389 62.1091 14.5091 64.2737 14.5091C70.3795 14.5091 75.3245 19.4808 75.3245 25.5705C75.3245 31.6812 70.3586 36.6318 64.2737 36.6318H15.9849C15.0197 36.6318 14.2523 37.4133 14.2523 38.3667C14.2523 39.3144 15.0535 40.1214 16.0245 40.1214H64.2935C72.3152 40.1214 78.8293 33.6015 78.8293 25.5705C78.8293 17.5395 72.3152 11.0196 64.2935 11.0196C62.3435 11.0196 60.4342 11.4023 58.6799 12.1467Z" fill="white" stroke="#7700D1"/>
<path id="Vector_2" d="M2.23408 30.9444H45.8994C46.8647 30.9444 47.6321 30.1629 47.6321 29.2095C47.6321 28.2421 46.8507 27.4746 45.8994 27.4746H2.23408C1.26881 27.4746 0.501419 28.2561 0.501419 29.2095C0.501419 30.1769 1.28281 30.9444 2.23408 30.9444Z" fill="white" stroke="#7700D1"/>
</g>
</svg>
