<svg width="415" height="68" viewBox="0 0 415 68" fill="none" xmlns="http://www.w3.org/2000/svg">
<path opacity="0.12" d="M413.695 24.095C413.781 25.821 412.735 27.7644 410.168 29.9016C407.624 32.02 403.759 34.1765 398.655 36.3259C388.457 40.62 373.542 44.7911 354.977 48.602C317.861 56.2207 266.332 62.3647 209.194 65.219C152.056 68.0733 100.171 67.0954 62.4811 63.2136C43.6282 61.2718 28.3719 58.6079 17.7971 55.3516C12.5037 53.7215 8.44355 51.9609 5.70042 50.1066C2.93306 48.236 1.69859 46.4064 1.61237 44.6805C1.52615 42.9545 2.57214 41.0111 5.13929 38.8739C7.68396 36.7555 11.5484 34.599 16.653 32.4496C26.8507 28.1555 41.7655 23.9844 60.331 20.1735C97.4466 12.5548 148.976 6.41083 206.114 3.55652C263.252 0.70221 315.136 1.68015 352.827 5.56195C371.679 7.50366 386.936 10.1676 397.511 13.424C402.804 15.054 406.864 16.8146 409.607 18.6689C412.375 20.5395 413.609 22.3691 413.695 24.095Z" stroke="white" stroke-width="2"/>
</svg>
