<svg width="25" height="25" viewBox="0 0 25 25" fill="none" xmlns="http://www.w3.org/2000/svg">
<g id="Frame" clip-path="url(#clip0_2_389)">
<g id="Group">
<g id="Group_2">
<g id="Group_3">
<path id="Vector" d="M22.5741 16.6922C21.1048 16.6922 19.662 16.4624 18.2948 16.0106C17.6249 15.7821 16.8013 15.9917 16.3924 16.4117L13.6939 18.4488C10.5643 16.7782 8.63657 14.8511 6.98882 11.745L8.966 9.11678C9.47969 8.60378 9.66394 7.8544 9.44319 7.15128C8.98944 5.7769 8.75894 4.33484 8.75894 2.86484C8.759 1.8029 7.89507 0.938965 6.83319 0.938965H2.42569C1.36382 0.938965 0.499878 1.8029 0.499878 2.86478C0.499878 15.0367 10.4023 24.939 22.5741 24.939C23.636 24.939 24.4999 24.075 24.4999 23.0132V18.618C24.4999 17.5562 23.6359 16.6922 22.5741 16.6922Z" fill="white"/>
</g>
</g>
</g>
</g>
<defs>
<clipPath id="clip0_2_389">
<rect width="24" height="24" fill="white" transform="translate(0.499878 0.938965)"/>
</clipPath>
</defs>
</svg>
