<svg width="26" height="27" viewBox="0 0 26 27" fill="none" xmlns="http://www.w3.org/2000/svg">
<g id="Frame" clip-path="url(#clip0_2_399)">
<g id="Group">
<g id="Group_2">
<path id="Vector" d="M12.9997 26.939C14.5583 26.939 15.9005 25.9975 16.4894 24.6538H9.51012C10.099 25.9975 11.4412 26.939 12.9997 26.939Z" fill="white"/>
<path id="Vector_2" d="M20.8709 13.5257V11.8569C20.8709 8.31129 18.514 5.3061 15.2849 4.32455V3.22412C15.2849 1.96409 14.2598 0.938965 12.9998 0.938965C11.7397 0.938965 10.7146 1.96409 10.7146 3.22412V4.32455C7.48542 5.3061 5.12866 8.31123 5.12866 11.8569V13.5257C5.12866 16.6402 3.9415 19.5935 1.78588 21.8414C1.57463 22.0617 1.51527 22.3868 1.63501 22.6675C1.75475 22.9482 2.0305 23.1304 2.33569 23.1304H23.6638C23.969 23.1304 24.2447 22.9482 24.3645 22.6675C24.4842 22.3868 24.4248 22.0617 24.2136 21.8414C22.058 19.5935 20.8709 16.6402 20.8709 13.5257ZM13.7615 4.02281C13.5108 3.99864 13.2567 3.98584 12.9998 3.98584C12.7428 3.98584 12.4887 3.99864 12.238 4.02281V3.22412C12.238 2.80411 12.5797 2.4624 12.9998 2.4624C13.4198 2.4624 13.7615 2.80411 13.7615 3.22412V4.02281Z" fill="white"/>
<path id="Vector_3" d="M22.9021 11.857C22.9021 12.2776 23.2431 12.6187 23.6638 12.6187C24.0845 12.6187 24.4255 12.2776 24.4255 11.857C24.4255 8.805 23.237 5.9357 21.079 3.77765C20.7816 3.48023 20.2993 3.48018 20.0018 3.77765C19.7043 4.07513 19.7043 4.5574 20.0018 4.85488C21.8721 6.7252 22.9021 9.21191 22.9021 11.857Z" fill="white"/>
<path id="Vector_4" d="M2.33569 12.6186C2.75637 12.6186 3.09741 12.2776 3.09741 11.8569C3.09741 9.21193 4.12746 6.72522 5.99773 4.8549C6.29521 4.55742 6.29521 4.07515 5.99773 3.77767C5.70031 3.4802 5.21799 3.4802 4.92051 3.77767C2.76246 5.93572 1.57397 8.80496 1.57397 11.8569C1.57397 12.2776 1.91502 12.6186 2.33569 12.6186Z" fill="white"/>
</g>
</g>
</g>
<defs>
<clipPath id="clip0_2_399">
<rect width="26" height="26" fill="white" transform="translate(-0.000244141 0.938965)"/>
</clipPath>
</defs>
</svg>
