<svg width="66" height="90" viewBox="0 0 66 90" fill="none" xmlns="http://www.w3.org/2000/svg">
<g id="Group">
<path id="Vector" opacity="0.97" d="M34.6751 89.8243C34.9887 89.5369 42.3837 82.4555 49.8832 71.9771C60.1003 57.6836 65.2742 44.5137 65.2742 32.8072C65.2742 14.8031 50.641 0.169922 32.637 0.169922C14.6329 0.169922 -0.000282288 14.8031 -0.000282288 32.8072C-0.000282288 44.4092 5.1736 57.579 15.3907 71.8987C22.8902 82.4032 30.2852 89.5369 30.5988 89.8243H34.6751ZM32.637 6.10159C47.3747 6.10159 59.3425 18.0956 59.3425 32.8072C59.3425 53.9207 39.2219 76.6283 32.637 83.4746C26.0782 76.5761 5.93137 53.764 5.93137 32.8072C5.93137 18.0694 17.8992 6.10159 32.637 6.10159Z" fill="white"/>
<path id="Vector_2" opacity="0.97" d="M32.637 47.8584C40.9465 47.8584 47.6882 41.1167 47.6882 32.8071C47.6882 24.4976 40.9465 17.7559 32.637 17.7559C24.3274 17.7559 17.5857 24.4976 17.5857 32.8071C17.5857 41.1167 24.3274 47.8584 32.637 47.8584ZM32.637 23.6875C37.6802 23.6875 41.7565 27.79 41.7565 32.8071C41.7565 37.8504 37.6541 41.9268 32.637 41.9268C27.6199 41.9268 23.5173 37.8242 23.5173 32.8071C23.5173 27.7639 27.5937 23.6875 32.637 23.6875Z" fill="white"/>
</g>
</svg>
