<svg width="457" height="582" viewBox="0 0 457 582" fill="none" xmlns="http://www.w3.org/2000/svg">
<g clip-path="url(#clip0_2_1171)">
<path d="M331.8 561.6H126C121.943 561.6 118.65 564.893 118.65 568.95V583.65C118.65 587.707 121.943 591 126 591C130.057 591 133.35 587.707 133.35 583.65V576.3H331.8C335.856 576.3 339.149 573.008 339.149 568.951C339.149 564.894 335.857 561.6 331.8 561.6Z" fill="white" stroke="#7700D1" stroke-width="10"/>
<path d="M177.45 333.75C177.45 337.806 180.742 341.099 184.799 341.099H214.2C218.257 341.099 221.55 337.806 221.55 333.75V289.65C221.55 285.593 218.257 282.3 214.2 282.3H184.8C180.743 282.3 177.45 285.593 177.45 289.65V333.75H177.45ZM192.15 297H206.85V326.4H192.15V297Z" fill="white" stroke="#7700D1" stroke-width="10"/>
<path fill-rule="evenodd" clip-rule="evenodd" d="M23.0996 238.2H111.3C115.357 238.2 118.649 241.494 118.649 245.551C118.649 249.608 115.356 252.9 111.3 252.9H52.7491V240.862H18.6699V275.302H30.4493V392.55C30.4493 396.607 27.1564 399.9 23.0996 399.9C19.0427 399.9 15.7499 396.607 15.7499 392.55V245.55C15.7499 241.493 19.0427 238.2 23.0996 238.2Z" fill="white"/>
<path d="M52.7491 252.9H47.7491V257.9H52.7491V252.9ZM52.7491 240.862H57.7491V235.862H52.7491V240.862ZM18.6699 240.862V235.862H13.6699V240.862H18.6699ZM18.6699 275.302H13.6699V280.302H18.6699V275.302ZM30.4493 275.302H35.4493V270.302H30.4493V275.302ZM111.3 233.2H23.0996V243.2H111.3V233.2ZM123.649 245.551C123.649 238.734 118.12 233.2 111.3 233.2V243.2C112.595 243.2 113.649 244.254 113.649 245.551H123.649ZM111.3 257.9C118.118 257.9 123.649 252.369 123.649 245.551H113.649C113.649 246.846 112.595 247.9 111.3 247.9V257.9ZM52.7491 257.9H111.3V247.9H52.7491V257.9ZM47.7491 240.862V252.9H57.7491V240.862H47.7491ZM18.6699 245.862H52.7491V235.862H18.6699V245.862ZM23.6699 275.302V240.862H13.6699V275.302H23.6699ZM30.4493 270.302H18.6699V280.302H30.4493V270.302ZM35.4493 392.55V275.302H25.4493V392.55H35.4493ZM23.0996 404.9C29.9179 404.9 35.4493 399.368 35.4493 392.55H25.4493C25.4493 393.846 24.395 394.9 23.0996 394.9V404.9ZM10.7499 392.55C10.7499 399.368 16.2813 404.9 23.0996 404.9V394.9C21.8041 394.9 20.7499 393.846 20.7499 392.55H10.7499ZM10.7499 245.55V392.55H20.7499V245.55H10.7499ZM23.0996 233.2C16.2813 233.2 10.7499 238.732 10.7499 245.55H20.7499C20.7499 244.254 21.8042 243.2 23.0996 243.2V233.2Z" fill="#7700D1"/>
<path fill-rule="evenodd" clip-rule="evenodd" d="M70.2127 247.94V243.14H58.5796C37.5927 243.14 20.5796 260.154 20.5796 281.14V282.3H25.3796V281.14C25.3796 262.805 40.2437 247.94 58.5796 247.94H70.2127Z" fill="white"/>
<path d="M368.55 510.15C368.55 514.207 371.843 517.5 375.899 517.5H405.299C409.356 517.5 412.649 514.207 412.649 510.15V466.05C412.649 461.993 409.356 458.7 405.299 458.7H375.899C371.843 458.7 368.55 461.993 368.55 466.05V510.15ZM383.25 473.401H397.95V502.8H383.25V473.401Z" fill="white" stroke="#7700D1" stroke-width="10"/>
<path d="M52.5002 414.6C16.1685 414.6 15.7499 509.195 15.7499 510.15C15.7499 527.9 28.3993 542.74 45.1496 546.158V583.65C45.1496 587.707 48.4425 591 52.4993 591C56.5562 591 59.849 587.707 59.849 583.65V546.158C76.5993 542.74 89.2487 527.9 89.2487 510.15C89.2496 509.195 88.831 414.6 52.5002 414.6ZM52.5002 532.2C40.3434 532.2 30.4502 522.307 30.4502 510.15C30.4502 473.532 40.2848 429.3 52.5002 429.3C64.7155 429.3 74.5502 473.532 74.5502 510.15C74.5502 522.307 64.657 532.2 52.5002 532.2Z" fill="white" stroke="#7700D1" stroke-width="10"/>
<path d="M96.6001 370.5H67.1996C63.1427 370.5 59.8499 373.793 59.8499 377.85V392.55C59.8499 396.607 63.1427 399.9 67.1996 399.9C71.2564 399.9 74.5493 396.607 74.5493 392.55V385.2H89.2496V421.951C89.2496 426.007 92.5424 429.3 96.5993 429.3C100.656 429.3 103.949 426.007 103.949 421.951V377.851C103.95 373.793 100.657 370.5 96.6001 370.5Z" fill="white" stroke="#7700D1" stroke-width="10"/>
<path d="M375.899 341.1H405.299C409.356 341.1 412.649 337.807 412.649 333.751V289.65C412.649 285.594 409.356 282.301 405.299 282.301H375.899C371.843 282.301 368.55 285.594 368.55 289.65V333.751C368.55 337.807 371.843 341.1 375.899 341.1ZM383.25 297H397.95V326.4H383.25V297Z" fill="white" stroke="#7700D1" stroke-width="10"/>
<path d="M96.6001 282.3H67.1996C63.1427 282.3 59.8499 285.593 59.8499 289.65V333.75C59.8499 337.806 63.1427 341.099 67.1996 341.099H96.5993C100.656 341.099 103.949 337.806 103.949 333.75V289.65C103.95 285.593 100.657 282.3 96.6001 282.3ZM89.2496 326.4H74.5501V297H89.2504V326.4H89.2496Z" fill="white" stroke="#7700D1" stroke-width="10"/>
<path d="M250.95 333.75C250.95 337.806 254.243 341.099 258.3 341.099H287.7C291.756 341.099 295.049 337.806 295.049 333.75V289.65C295.049 285.593 291.756 282.3 287.7 282.3H258.3C254.243 282.3 250.95 285.593 250.95 289.65V333.75ZM265.65 297H280.35V326.4H265.65V297Z" fill="white" stroke="#7700D1" stroke-width="10"/>
<path fill-rule="evenodd" clip-rule="evenodd" d="M361.2 238.2H449.4C451.215 238.2 452.877 238.859 454.159 239.95H422.472V252.9H361.2C357.143 252.9 353.85 249.607 353.85 245.55C353.85 241.493 357.143 238.2 361.2 238.2ZM442.05 276.725V548.252C439.743 547.429 437.295 546.9 434.701 546.9C433.429 546.9 432.165 547.01 430.923 547.231C425.851 538.095 416.201 532.2 405.301 532.2C394.401 532.2 384.751 538.095 379.679 547.231C378.437 547.01 377.173 546.9 375.901 546.9C363.745 546.9 353.851 556.793 353.851 568.95C353.851 581.107 363.745 591 375.901 591H434.7C446.857 591 456.75 581.107 456.75 568.95V276.725H442.05ZM375.9 576.3H434.7C438.75 576.3 442.05 573 442.05 568.95C442.05 563.489 435.502 559.712 430.717 562.799C428.702 564.092 426.182 564.327 423.969 563.431C421.75 562.534 420.111 560.608 419.574 558.278C418.023 551.582 412.15 546.9 405.3 546.9C398.45 546.9 392.578 551.582 391.026 558.278C390.49 560.608 388.851 562.534 386.631 563.431C384.411 564.327 381.897 564.092 379.883 562.799C378.648 562.004 377.31 561.6 375.9 561.6C371.85 561.6 368.55 564.9 368.55 568.95C368.55 573 371.85 576.3 375.9 576.3Z" fill="white"/>
<path d="M454.159 239.95V244.95H467.751L457.4 236.142L454.159 239.95ZM422.472 239.95V234.95H417.472V239.95H422.472ZM422.472 252.9V257.9H427.472V252.9H422.472ZM442.05 276.725V271.725H437.05V276.725H442.05ZM442.05 548.252L440.37 552.962L447.05 555.346V548.252H442.05ZM430.923 547.231L426.551 549.658L428.283 552.778L431.797 552.154L430.923 547.231ZM379.679 547.231L378.805 552.154L382.319 552.778L384.051 549.658L379.679 547.231ZM456.75 276.725H461.75V271.725H456.75V276.725ZM442.05 568.95L447.05 568.951V568.95H442.05ZM430.717 562.799L433.419 567.006L433.428 567L430.717 562.799ZM423.969 563.431L425.847 558.797L425.842 558.795L423.969 563.431ZM419.574 558.278L424.447 557.156L424.445 557.15L419.574 558.278ZM391.026 558.278L386.155 557.15L386.154 557.156L391.026 558.278ZM379.883 562.799L377.179 567.004L377.181 567.005L379.883 562.799ZM449.4 233.2H361.2V243.2H449.4V233.2ZM457.4 236.142C455.248 234.311 452.448 233.2 449.4 233.2V243.2C449.982 243.2 450.506 243.407 450.919 243.758L457.4 236.142ZM422.472 244.95H454.159V234.95H422.472V244.95ZM427.472 252.9V239.95H417.472V252.9H427.472ZM361.2 257.9H422.472V247.9H361.2V257.9ZM348.85 245.55C348.85 252.368 354.382 257.9 361.2 257.9V247.9C359.905 247.9 358.85 246.845 358.85 245.55H348.85ZM361.2 233.2C354.382 233.2 348.85 238.732 348.85 245.55H358.85C358.85 244.254 359.905 243.2 361.2 243.2V233.2ZM437.05 276.725V548.252H447.05V276.725H437.05ZM443.731 543.543C441.007 542.571 437.985 541.9 434.701 541.9V551.9C436.605 551.9 438.479 552.287 440.37 552.962L443.731 543.543ZM434.701 541.9C433.14 541.9 431.584 542.035 430.049 542.308L431.797 552.154C432.746 551.985 433.718 551.9 434.701 551.9V541.9ZM435.295 544.804C429.354 534.103 418.044 527.2 405.301 527.2V537.2C414.358 537.2 422.349 542.086 426.551 549.658L435.295 544.804ZM405.301 527.2C392.558 527.2 381.248 534.103 375.307 544.804L384.051 549.658C388.254 542.086 396.244 537.2 405.301 537.2V527.2ZM380.553 542.308C379.019 542.035 377.462 541.9 375.901 541.9V551.9C376.884 551.9 377.856 551.985 378.805 552.154L380.553 542.308ZM375.901 541.9C360.983 541.9 348.851 554.032 348.851 568.95H358.851C358.851 559.555 366.506 551.9 375.901 551.9V541.9ZM348.851 568.95C348.851 583.868 360.983 596 375.901 596V586C366.506 586 358.851 578.346 358.851 568.95H348.851ZM375.901 596H434.7V586H375.901V596ZM434.7 596C449.618 596 461.75 583.868 461.75 568.95H451.75C451.75 578.346 444.095 586 434.7 586V596ZM461.75 568.95V276.725H451.75V568.95H461.75ZM456.75 271.725H442.05V281.725H456.75V271.725ZM434.7 571.3H375.9V581.3H434.7V571.3ZM437.05 568.949C437.05 570.239 435.988 571.3 434.7 571.3V581.3C441.511 581.3 447.049 575.762 447.05 568.951L437.05 568.949ZM433.428 567C434.034 566.609 434.868 566.55 435.751 567.04C436.666 567.548 437.05 568.323 437.05 568.95H447.05C447.05 559.641 436.211 553.303 428.006 558.597L433.428 567ZM422.092 568.065C425.812 569.572 430.04 569.175 433.419 567.006L428.015 558.591C427.365 559.009 426.552 559.082 425.847 558.797L422.092 568.065ZM414.702 559.401C415.603 563.316 418.359 566.557 422.097 568.067L425.842 558.795C425.141 558.511 424.618 557.9 424.447 557.156L414.702 559.401ZM405.3 551.9C409.811 551.9 413.674 554.965 414.703 559.407L424.445 557.15C422.371 548.199 414.489 541.9 405.3 541.9V551.9ZM395.897 559.407C396.926 554.965 400.789 551.9 405.3 551.9V541.9C396.111 541.9 388.229 548.199 386.155 557.15L395.897 559.407ZM388.504 568.067C392.242 566.557 394.997 563.316 395.899 559.401L386.154 557.156C385.982 557.9 385.46 558.511 384.758 558.795L388.504 568.067ZM377.181 567.005C380.561 569.177 384.781 569.571 388.504 568.067L384.758 558.795C384.042 559.084 383.233 559.008 382.586 558.592L377.181 567.005ZM375.9 566.6C376.305 566.6 376.711 566.703 377.179 567.004L382.587 558.593C380.585 557.306 378.316 556.6 375.9 556.6V566.6ZM373.55 568.95C373.55 567.662 374.611 566.6 375.9 566.6V556.6C369.088 556.6 363.55 562.139 363.55 568.95H373.55ZM375.9 571.3C374.611 571.3 373.55 570.239 373.55 568.95H363.55C363.55 575.762 369.088 581.3 375.9 581.3V571.3Z" fill="#7700D1"/>
<path d="M258.3 252.901H287.7C291.756 252.901 295.049 249.608 295.049 245.551V201.451C295.049 197.394 291.756 194.101 287.7 194.101H258.3C254.243 194.101 250.95 197.394 250.95 201.451V245.551C250.95 249.608 254.243 252.901 258.3 252.901ZM265.65 208.8H280.35V238.2H265.65V208.8Z" fill="white" stroke="#7700D1" stroke-width="10"/>
<path d="M250.95 421.95C250.95 426.007 254.243 429.299 258.3 429.299H287.7C291.756 429.299 295.049 426.007 295.049 421.95V377.85C295.049 373.793 291.756 370.5 287.7 370.5H258.3C254.243 370.5 250.95 373.793 250.95 377.85V421.95ZM265.65 385.2H280.35V414.6H265.65V385.2Z" fill="white" stroke="#7700D1" stroke-width="10"/>
<path d="M184.8 252.901H214.2C218.257 252.901 221.55 249.608 221.55 245.551V201.451C221.55 197.394 218.257 194.101 214.2 194.101H184.8C180.743 194.101 177.451 197.394 177.451 201.451V245.551C177.45 249.608 180.743 252.901 184.8 252.901ZM192.15 208.8H206.85V238.2H192.15V208.8Z" fill="white" stroke="#7700D1" stroke-width="10"/>
<path d="M231.031 504.932C229.708 506.328 228.899 508.239 228.899 510.15C228.899 512.062 229.708 513.972 231.031 515.369C232.427 516.692 234.339 517.501 236.25 517.501C238.161 517.501 240.072 516.692 241.469 515.369C242.792 513.973 243.6 512.062 243.6 510.15C243.6 508.239 242.792 506.329 241.469 504.932C238.675 502.212 233.824 502.212 231.031 504.932Z" fill="white" stroke="#7700D1" stroke-width="10"/>
<path d="M177.45 421.95C177.45 426.007 180.742 429.299 184.799 429.299H214.2C218.257 429.299 221.55 426.007 221.55 421.95V377.85C221.55 373.793 218.257 370.5 214.2 370.5H184.8C180.743 370.5 177.45 373.793 177.45 377.85V421.95H177.45ZM192.15 385.2H206.85V414.6H192.15V385.2Z" fill="white" stroke="#7700D1" stroke-width="10"/>
<path d="M162.75 466.05C162.75 470.107 166.043 473.4 170.1 473.4H192.15V539.55C192.15 543.606 195.443 546.899 199.5 546.899C203.557 546.899 206.849 543.606 206.849 539.55V473.4H265.65V539.55C265.65 543.606 268.943 546.899 272.999 546.899C277.056 546.899 280.349 543.606 280.349 539.55V473.4H302.399C306.456 473.4 309.749 470.107 309.749 466.05C309.749 461.993 306.456 458.7 302.399 458.7H170.1C166.043 458.7 162.75 461.993 162.75 466.05Z" fill="white" stroke="#7700D1" stroke-width="10"/>
<path d="M368.55 421.95C368.55 426.007 371.843 429.299 375.899 429.299H405.299C409.356 429.299 412.649 426.007 412.649 421.95V377.85C412.649 373.793 409.356 370.5 405.299 370.5H375.899C371.843 370.5 368.55 373.793 368.55 377.85V421.95ZM383.25 385.2H397.95V414.6H383.25V385.2Z" fill="white" stroke="#7700D1" stroke-width="10"/>
<path fill-rule="evenodd" clip-rule="evenodd" d="M331.8 150H140.7C138.409 150 136.362 151.05 135.014 152.695H177.451V164.699H301.543V152.695H337.487C336.139 151.05 334.091 150 331.8 150ZM148.05 188.339H133.35V539.549C133.35 543.606 136.643 546.899 140.7 546.899C144.757 546.899 148.05 543.606 148.05 539.549V188.339ZM324.45 539.549V188.339H339.149V539.549C339.149 543.606 335.856 546.899 331.8 546.899C327.743 546.899 324.45 543.606 324.45 539.549Z" fill="white"/>
<path d="M135.014 152.695L131.147 149.525L124.45 157.695H135.014V152.695ZM177.451 152.695H182.451V147.695H177.451V152.695ZM177.451 164.699H172.451V169.699H177.451V164.699ZM301.543 164.699V169.699H306.543V164.699H301.543ZM301.543 152.695V147.695H296.543V152.695H301.543ZM337.487 152.695V157.695H348.05L341.354 149.525L337.487 152.695ZM148.05 188.339H153.05V183.339H148.05V188.339ZM133.35 188.339V183.339H128.35V188.339H133.35ZM324.45 188.339V183.339H319.45V188.339H324.45ZM339.149 188.339H344.149V183.339H339.149V188.339ZM140.7 155H331.8V145H140.7V155ZM138.881 155.865C139.321 155.327 139.972 155 140.7 155V145C136.846 145 133.403 146.773 131.147 149.525L138.881 155.865ZM135.014 157.695H177.451V147.695H135.014V157.695ZM172.451 152.695V164.699H182.451V152.695H172.451ZM301.543 159.699H177.451V169.699H301.543V159.699ZM296.543 152.695V164.699H306.543V152.695H296.543ZM337.487 147.695H301.543V157.695H337.487V147.695ZM331.8 155C332.528 155 333.18 155.328 333.62 155.865L341.354 149.525C339.097 146.773 335.654 145 331.8 145V155ZM148.05 183.339H133.35V193.339H148.05V183.339ZM138.35 539.549V188.339H128.35V539.549H138.35ZM140.7 541.899C139.405 541.899 138.35 540.845 138.35 539.549H128.35C128.35 546.368 133.882 551.899 140.7 551.899V541.899ZM143.05 539.549C143.05 540.845 141.996 541.899 140.7 541.899V551.899C147.518 551.899 153.05 546.368 153.05 539.549H143.05ZM143.05 188.339V539.549H153.05V188.339H143.05ZM319.45 188.339V539.549H329.45V188.339H319.45ZM339.149 183.339H324.45V193.339H339.149V183.339ZM344.149 539.549V188.339H334.149V539.549H344.149ZM331.8 551.899C338.618 551.899 344.149 546.368 344.149 539.549H334.149C334.149 540.845 333.095 541.899 331.8 541.899V551.899ZM319.45 539.549C319.45 546.368 324.981 551.899 331.8 551.899V541.899C330.504 541.899 329.45 540.845 329.45 539.549H319.45Z" fill="#7700D1"/>
<path fill-rule="evenodd" clip-rule="evenodd" d="M402.306 247.94V243.14H413.939C434.926 243.14 451.939 260.154 451.939 281.14V282.3H447.139V281.14C447.139 262.805 432.275 247.94 413.939 247.94H402.306Z" fill="white"/>
<path fill-rule="evenodd" clip-rule="evenodd" d="M284.656 159.742V154.942H296.289C317.276 154.942 334.289 171.955 334.289 192.942V194.101H329.489V192.942C329.489 174.606 314.625 159.742 296.289 159.742H284.656Z" fill="white"/>
<path fill-rule="evenodd" clip-rule="evenodd" d="M187.574 159.742V154.942H175.941C154.954 154.942 137.941 171.955 137.941 192.942V194.101H142.741V192.942C142.741 174.606 157.605 159.742 175.941 159.742H187.574Z" fill="white"/>
</g>
<defs>
<clipPath id="clip0_2_1171">
<rect width="456" height="582" fill="white" transform="translate(0.749878)"/>
</clipPath>
</defs>
</svg>
