<svg width="22" height="22" viewBox="0 0 22 22" fill="none" xmlns="http://www.w3.org/2000/svg">
<g id="Frame" clip-path="url(#clip0_2_493)">
<g id="Group">
<g id="Group_2">
<path id="Vector" d="M10.9996 0.000488281C4.92524 0.000488281 3.05176e-05 4.92569 3.05176e-05 11C3.05176e-05 17.0743 4.92524 22.0005 10.9996 22.0005C17.0739 22.0005 22 17.0743 22 11C22 4.92569 17.0739 0.000488281 10.9996 0.000488281ZM13.2894 17.0483C12.7232 17.2718 12.2725 17.4412 11.9345 17.5586C11.5974 17.6759 11.2054 17.7346 10.7593 17.7346C10.0739 17.7346 9.54035 17.567 9.16041 17.2327C8.78047 16.8983 8.59144 16.4746 8.59144 15.9597C8.59144 15.7595 8.6054 15.5546 8.63334 15.346C8.66221 15.1374 8.70784 14.9028 8.77023 14.6392L9.47889 12.1361C9.54128 11.8959 9.59529 11.6677 9.63813 11.4554C9.68096 11.2412 9.70145 11.0447 9.70145 10.8659C9.70145 10.5475 9.63533 10.324 9.50403 10.1982C9.37087 10.0725 9.12037 10.0111 8.74695 10.0111C8.56443 10.0111 8.37633 10.0381 8.18356 10.0949C7.99266 10.1535 7.82691 10.2066 7.69095 10.2588L7.87813 9.48773C8.34187 9.29869 8.78606 9.13666 9.20977 9.00256C9.63347 8.8666 10.0339 8.79956 10.411 8.79956C11.0918 8.79956 11.617 8.96531 11.9867 9.2931C12.3545 9.62182 12.5398 10.0492 12.5398 10.5745C12.5398 10.6834 12.5268 10.8752 12.5016 11.149C12.4765 11.4237 12.429 11.6742 12.3601 11.9042L11.6551 14.3999C11.5974 14.6001 11.5462 14.8292 11.4996 15.0853C11.454 15.3414 11.4316 15.5369 11.4316 15.6682C11.4316 15.9997 11.5052 16.226 11.6542 16.3461C11.8013 16.4663 12.0593 16.5268 12.4243 16.5268C12.5966 16.5268 12.7894 16.4961 13.0073 16.4365C13.2233 16.3769 13.3798 16.3238 13.4785 16.2782L13.2894 17.0483ZM13.1646 6.9185C12.8359 7.22394 12.4402 7.37666 11.9773 7.37666C11.5155 7.37666 11.1169 7.22394 10.7854 6.9185C10.4557 6.61306 10.289 6.2415 10.289 5.80756C10.289 5.37454 10.4567 5.00205 10.7854 4.69382C11.1169 4.38466 11.5155 4.23101 11.9773 4.23101C12.4402 4.23101 12.8369 4.38466 13.1646 4.69382C13.4934 5.00205 13.6582 5.37454 13.6582 5.80756C13.6582 6.24243 13.4934 6.61306 13.1646 6.9185Z" fill="#4C0085"/>
</g>
</g>
</g>
<defs>
<clipPath id="clip0_2_493">
<rect width="22" height="22" fill="white" transform="translate(3.05176e-05 0.000488281)"/>
</clipPath>
</defs>
</svg>
