<svg width="22.000000" height="22.000000" viewBox="0 0 22 22" fill="none" xmlns="http://www.w3.org/2000/svg" xmlns:xlink="http://www.w3.org/1999/xlink">
	<desc>
			Created with Pixso.
	</desc>
	<defs/>
	<path id="Vector" d="M10.9995 0C4.9252 0 0 4.9252 0 10.9995C0 17.0739 4.9252 22 10.9995 22C17.0739 22 22 17.0739 22 10.9995C22 4.9252 17.0739 0 10.9995 0ZM13.2894 17.0478C12.7232 17.2713 12.2725 17.4408 11.9345 17.5581C11.5974 17.6754 11.2053 17.7341 10.7593 17.7341C10.0739 17.7341 9.54031 17.5665 9.16037 17.2322C8.78046 16.8979 8.5914 16.4742 8.5914 15.9592C8.5914 15.759 8.60538 15.5541 8.6333 15.3455C8.66217 15.1369 8.70779 14.9023 8.7702 14.6387L9.47885 12.1356C9.54126 11.8954 9.59525 11.6672 9.63809 11.4549C9.68094 11.2407 9.70142 11.0442 9.70142 10.8654C9.70142 10.547 9.63531 10.3235 9.504 10.1978C9.37085 10.0721 9.12033 10.0106 8.74692 10.0106C8.56439 10.0106 8.37628 10.0376 8.18353 10.0944C7.99265 10.153 7.82687 10.2061 7.69092 10.2583L7.87808 9.48724C8.34183 9.29819 8.78604 9.13617 9.20975 9.00208C9.63345 8.86612 10.0339 8.79907 10.411 8.79907C11.0917 8.79907 11.6169 8.96481 11.9866 9.2926C12.3545 9.62134 12.5398 10.0488 12.5398 10.574C12.5398 10.6829 12.5267 10.8748 12.5016 11.1485C12.4764 11.4232 12.429 11.6737 12.36 11.9037L11.6551 14.3994C11.5974 14.5996 11.5461 14.8287 11.4996 15.0848C11.454 15.3409 11.4316 15.5364 11.4316 15.6677C11.4316 15.9992 11.5052 16.2255 11.6542 16.3456C11.8013 16.4658 12.0593 16.5263 12.4243 16.5263C12.5966 16.5263 12.7893 16.4956 13.0072 16.436C13.2233 16.3764 13.3797 16.3233 13.4784 16.2777L13.2894 17.0478ZM13.1646 6.918C12.8359 7.22345 12.4401 7.37616 11.9773 7.37616C11.5154 7.37616 11.1169 7.22345 10.7853 6.918C10.4557 6.61258 10.289 6.24103 10.289 5.80707C10.289 5.37405 10.4566 5.00156 10.7853 4.69333C11.1169 4.38416 11.5154 4.23053 11.9773 4.23053C12.4401 4.23053 12.8368 4.38416 13.1646 4.69333C13.4933 5.00156 13.6582 5.37405 13.6582 5.80707C13.6582 6.24194 13.4933 6.61258 13.1646 6.918Z" fill="#4C0085" fill-opacity="1.000000" fill-rule="nonzero"/>
</svg>
