<svg width="388" height="165" viewBox="0 0 388 165" fill="none" xmlns="http://www.w3.org/2000/svg">
<path d="M387.042 105.437C368.766 105.438 330.179 123.268 297.373 47.3368C264.566 -28.5946 211.921 1.51102 215.195 47.3369C218.468 93.1629 136.452 50.4471 167.458 109.849C193.602 159.936 41.6028 183.686 33.2904 142.124" stroke="white" stroke-width="2" stroke-dasharray="6 3"/>
<path opacity="0.97" d="M34.6751 136.824C34.9887 136.537 42.3837 129.455 49.8832 118.977C60.1003 104.684 65.2742 91.5137 65.2742 79.8072C65.2742 61.8031 50.641 47.1699 32.637 47.1699C14.6329 47.1699 -0.000282288 61.8031 -0.000282288 79.8072C-0.000282288 91.4092 5.1736 104.579 15.3907 118.899C22.8902 129.403 30.2852 136.537 30.5988 136.824H34.6751ZM32.637 53.1016C47.3747 53.1016 59.3425 65.0956 59.3425 79.8072C59.3425 100.921 39.2219 123.628 32.637 130.475C26.0782 123.576 5.93137 100.764 5.93137 79.8072C5.93137 65.0694 17.8992 53.1016 32.637 53.1016Z" fill="white"/>
<path opacity="0.97" d="M32.637 94.8584C40.9465 94.8584 47.6882 88.1167 47.6882 79.8071C47.6882 71.4976 40.9465 64.7559 32.637 64.7559C24.3274 64.7559 17.5857 71.4976 17.5857 79.8071C17.5857 88.1167 24.3274 94.8584 32.637 94.8584ZM32.637 70.6875C37.6802 70.6875 41.7565 74.79 41.7565 79.8071C41.7565 84.8504 37.6541 88.9268 32.637 88.9268C27.6199 88.9268 23.5173 84.8242 23.5173 79.8071C23.5173 74.7639 27.5937 70.6875 32.637 70.6875Z" fill="white"/>
</svg>
