<svg width="1175" height="377" viewBox="0 0 1175 377" fill="none" xmlns="http://www.w3.org/2000/svg">
<path fill-rule="evenodd" clip-rule="evenodd" d="M1172.69 4.25387C1173.19 3.38311 1173.68 2.52214 1174.15 1.67149L1172.4 0.703369C1171.94 1.54235 1171.45 2.39213 1170.96 3.25219L1172.69 4.25387ZM1167.94 11.9993C1169.06 10.2672 1170.12 8.56462 1171.13 6.89493L1169.41 5.86243C1168.42 7.51368 1167.37 9.19903 1166.26 10.9151L1167.94 11.9993ZM1162.91 19.4762C1164.09 17.7927 1165.22 16.1306 1166.31 14.4928L1164.64 13.3863C1163.56 15.01 1162.44 16.6587 1161.27 18.3297L1162.91 19.4762ZM1157.62 26.7846C1158.84 25.15 1160.02 23.531 1161.17 21.9299L1159.55 20.7655C1158.41 22.3553 1157.23 23.9634 1156.02 25.5876L1157.62 26.7846ZM1152.11 33.9453C1153.37 32.354 1154.6 30.7737 1155.79 29.2066L1154.2 27.9945C1153.01 29.5522 1151.8 31.1232 1150.55 32.7056L1152.11 33.9453ZM1068.02 115.19C1069.62 114.005 1071.23 112.804 1072.82 111.589L1071.61 109.997C1070.02 111.206 1068.43 112.401 1066.83 113.579L1068.02 115.19ZM1060.69 120.45C1062.32 119.307 1063.95 118.146 1065.58 116.968L1064.41 115.348C1062.79 116.519 1061.17 117.674 1059.54 118.811L1060.69 120.45ZM0.756104 146.688C1.36353 147.426 2.00342 148.172 2.67529 148.925L4.16699 147.592C3.51221 146.859 2.89014 146.134 2.30103 145.418L0.756104 146.688ZM4.72766 151.14C6.04675 152.516 7.46741 153.912 8.98547 155.326L10.3488 153.863C8.85559 152.472 7.46191 151.102 6.17126 149.756L4.72766 151.14ZM11.1918 157.333C12.6271 158.61 14.139 159.899 15.7249 161.201L16.9938 159.655C15.4269 158.369 13.9351 157.096 12.5206 155.839L11.1918 157.333ZM942.831 163.004C944.73 162.39 946.684 161.82 948.693 161.297L948.19 159.362C946.143 159.894 944.152 160.475 942.216 161.101L942.831 163.004ZM18.0588 163.084C19.5781 164.288 21.1586 165.502 22.7981 166.723L23.993 165.119C22.3685 163.909 20.804 162.708 19.3013 161.516L18.0588 163.084ZM934.258 166.218C936.089 165.431 937.978 164.688 939.928 163.991L939.255 162.108C937.267 162.818 935.338 163.577 933.468 164.38L934.258 166.218ZM926.046 170.237C927.792 169.27 929.601 168.346 931.473 167.468L930.624 165.657C928.711 166.554 926.863 167.499 925.077 168.487L926.046 170.237ZM25.1581 168.458C26.7312 169.598 28.3546 170.745 30.0266 171.897L31.1614 170.25C29.502 169.107 27.8916 167.969 26.332 166.838L25.1581 168.458ZM918.296 175.068C919.935 173.923 921.639 172.817 923.41 171.755L922.382 170.039C920.57 171.125 918.827 172.257 917.15 173.429L918.296 175.068ZM32.4757 173.565C34.0886 174.651 35.7437 175.741 37.4397 176.834L38.5232 175.153C36.838 174.067 35.1941 172.984 33.5925 171.906L32.4757 173.565ZM311.591 174.898C309.509 174.917 307.491 175.059 305.549 175.319L305.814 177.301C307.67 177.053 309.606 176.917 311.609 176.898L311.591 174.898ZM320.666 175.55C318.614 175.245 316.6 175.048 314.635 174.957L314.542 176.954C316.437 177.043 318.384 177.233 320.372 177.528L320.666 175.55ZM911.104 180.692C912.612 179.376 914.189 178.094 915.837 176.853L914.633 175.256C912.947 176.526 911.333 177.838 909.789 179.185L911.104 180.692ZM302.526 175.832C300.468 176.259 298.512 176.829 296.675 177.538L297.395 179.403C299.123 178.737 300.974 178.196 302.932 177.791L302.526 175.832ZM326.598 176.711C325.597 176.469 324.602 176.251 323.614 176.058L323.23 178.02C324.188 178.208 325.154 178.419 326.127 178.655C327.1 178.891 328.063 179.143 329.016 179.412L329.558 177.487C328.582 177.211 327.595 176.953 326.598 176.711ZM338.182 180.443C336.323 179.687 334.414 178.991 332.458 178.362L331.845 180.265C333.753 180.88 335.615 181.558 337.428 182.296L338.182 180.443ZM293.855 178.783C291.968 179.73 290.24 180.845 288.698 182.122L289.973 183.662C291.39 182.489 292.99 181.455 294.752 180.571L293.855 178.783ZM904.558 187.056C905.917 185.584 907.347 184.141 908.849 182.732L907.481 181.273C905.943 182.715 904.48 184.193 903.089 185.699L904.558 187.056ZM346.435 184.367C344.678 183.403 342.861 182.495 340.988 181.648L340.164 183.471C341.991 184.296 343.761 185.181 345.472 186.121L346.435 184.367ZM286.432 184.26C285.014 185.789 283.824 187.493 282.895 189.36L284.686 190.251C285.527 188.561 286.606 187.014 287.898 185.62L286.432 184.26ZM354.168 189.241C352.542 188.071 350.843 186.95 349.076 185.886L348.045 187.6C349.765 188.635 351.418 189.726 352.999 190.864L354.168 189.241ZM898.729 194.082C899.924 192.475 901.191 190.889 902.533 189.329L901.016 188.025C899.643 189.621 898.347 191.245 897.124 192.888L898.729 194.082ZM361.222 195.057C359.766 193.681 358.22 192.347 356.591 191.065L355.354 192.637C356.937 193.882 358.436 195.176 359.848 196.511L361.222 195.057ZM281.712 192.251C281.091 194.148 280.715 196.176 280.606 198.324L282.603 198.426C282.704 196.448 283.049 194.595 283.612 192.873L281.712 192.251ZM893.663 201.681C894.685 199.962 895.78 198.252 896.951 196.56L895.306 195.422C894.109 197.153 892.989 198.901 891.944 200.658L893.663 201.681ZM367.394 201.823C366.167 200.247 364.829 198.705 363.389 197.206L361.947 198.592C363.341 200.042 364.633 201.532 365.816 203.052L367.394 201.823ZM280.629 201.42C280.752 203.348 281.077 205.359 281.615 207.445L283.551 206.946C283.043 204.972 282.74 203.086 282.625 201.292L280.629 201.42ZM889.386 209.766C890.231 207.955 891.151 206.139 892.148 204.327L890.396 203.363C889.377 205.214 888.437 207.07 887.574 208.92L889.386 209.766ZM372.377 209.548C371.458 207.772 370.399 206.019 369.211 204.299L367.565 205.435C368.708 207.09 369.722 208.771 370.601 210.468L372.377 209.548ZM282.51 210.42C283.132 212.232 283.908 214.097 284.847 216.011L286.643 215.13C285.738 213.286 284.994 211.498 284.401 209.771L282.51 210.42ZM885.934 218.22C886.593 216.349 887.328 214.454 888.143 212.548L886.304 211.762C885.471 213.709 884.721 215.644 884.048 217.556L885.934 218.22ZM375.686 218.174C375.197 216.218 374.53 214.265 373.698 212.332L371.861 213.123C372.654 214.964 373.285 216.814 373.746 218.659L375.686 218.174ZM286.223 218.642C287.154 220.317 288.206 222.029 289.385 223.774L291.042 222.654C289.894 220.954 288.872 219.292 287.972 217.67L286.223 218.642ZM883.326 226.992C883.792 225.077 884.337 223.114 884.967 221.117L883.06 220.515C882.416 222.555 881.859 224.562 881.383 226.519L883.326 226.992ZM376.62 227.409C376.731 225.357 376.619 223.282 376.298 221.201L374.322 221.506C374.623 223.458 374.726 225.395 374.623 227.301L376.62 227.409ZM291.15 226.281C292.277 227.821 293.501 229.385 294.826 230.973L296.362 229.692C295.063 228.135 293.865 226.603 292.764 225.1L291.15 226.281ZM152.826 230.674C153.501 230.905 154.178 231.136 154.855 231.366H158.854L159.083 230.677C158.32 230.423 157.559 230.168 156.799 229.911H153.087L152.826 230.674ZM881.646 235.967C881.894 234.051 882.228 232.044 882.658 229.965L880.699 229.561C880.26 231.687 879.917 233.744 879.663 235.71L881.646 235.967ZM374.528 236.491C375.355 234.547 375.933 232.545 376.278 230.505L374.305 230.172C373.987 232.06 373.452 233.911 372.688 235.709L374.528 236.491ZM296.835 233.314C298.097 234.742 299.439 236.189 300.864 237.653L302.298 236.258C300.894 234.816 299.574 233.393 298.334 231.989L296.835 233.314ZM369.515 244.316C370.948 242.709 372.157 241.024 373.149 239.277L371.41 238.29C370.49 239.909 369.365 241.479 368.022 242.985L369.515 244.316ZM303.025 239.824C304.388 241.163 305.819 242.516 307.32 243.883L308.666 242.404C307.183 241.054 305.771 239.718 304.427 238.398L303.025 239.824ZM881.129 242C881.167 241.032 881.23 240.025 881.32 238.984L879.327 238.812C879.234 239.883 879.169 240.921 879.13 241.922L879.13 241.927C879.097 242.907 879.055 243.888 879.005 244.872L881.003 244.973C881.053 243.98 881.095 242.989 881.129 242ZM309.625 245.943C311.055 247.197 312.544 248.463 314.093 249.739L315.365 248.195C313.831 246.932 312.358 245.68 310.944 244.439L309.625 245.943ZM362.5 250.344C364.292 249.144 365.905 247.87 367.344 246.531L365.981 245.067C364.625 246.329 363.096 247.538 361.388 248.682L362.5 250.344ZM880.321 253.931C880.525 251.936 880.692 249.946 880.826 247.963L878.831 247.828C878.698 249.789 878.533 251.756 878.331 253.728L880.321 253.931ZM221.29 250.083C223.22 250.515 225.153 250.938 227.089 251.352L227.507 249.396C225.577 248.984 223.65 248.562 221.727 248.131L221.29 250.083ZM229.99 251.965C231.926 252.368 233.864 252.762 235.805 253.146L236.193 251.184C234.259 250.801 232.328 250.409 230.399 250.007L229.99 251.965ZM316.458 251.657C317.963 252.86 319.522 254.072 321.136 255.292L322.342 253.697C320.742 252.487 319.197 251.286 317.706 250.095L316.458 251.657ZM354.424 254.7C356.39 253.848 358.216 252.931 359.907 251.955L358.908 250.223C357.287 251.158 355.529 252.041 353.628 252.866L354.424 254.7ZM238.717 253.715C240.66 254.089 242.604 254.453 244.55 254.807L244.908 252.84C242.969 252.487 241.031 252.124 239.096 251.751L238.717 253.715ZM247.47 255.33C249.419 255.674 251.369 256.008 253.32 256.33L253.647 254.357C251.703 254.036 249.759 253.703 247.818 253.361L247.47 255.33ZM345.827 257.75C347.865 257.166 349.793 256.528 351.614 255.839L350.906 253.968C349.14 254.636 347.264 255.258 345.276 255.827L345.827 257.75ZM256.25 256.807C258.203 257.119 260.157 257.42 262.113 257.71L262.406 255.732C260.459 255.443 258.511 255.143 256.565 254.832L256.25 256.807ZM323.527 257.078C324.932 258.114 326.377 259.155 327.861 260.203L327.958 261.104C330.011 260.884 331.992 260.625 333.903 260.328L333.596 258.352C332.269 258.558 330.906 258.746 329.506 258.915C327.859 257.758 326.262 256.609 324.714 255.468L323.527 257.078ZM265.051 258.138C267.011 258.418 268.971 258.686 270.931 258.943L271.191 256.96C269.239 256.704 267.286 256.437 265.334 256.158L265.051 258.138ZM336.969 259.808C339.03 259.429 341.002 259.004 342.888 258.535L342.405 256.594C340.561 257.053 338.629 257.469 336.607 257.841L336.969 259.808ZM879.169 262.843C879.48 260.863 879.753 258.884 879.99 256.909L878.004 256.671C877.77 258.623 877.5 260.577 877.193 262.533L879.169 262.843ZM273.872 259.32C275.838 259.566 277.805 259.8 279.771 260.022L279.995 258.035C278.037 257.814 276.079 257.58 274.12 257.335L273.872 259.32ZM282.719 260.346C283.702 260.451 284.684 260.553 285.667 260.652C286.707 260.757 287.737 260.855 288.757 260.947L288.936 258.955C287.924 258.864 286.901 258.766 285.867 258.662C284.889 258.564 283.91 258.462 282.932 258.358L282.719 260.346ZM291.786 261.204C293.807 261.364 295.787 261.499 297.727 261.609L297.84 259.612C295.916 259.503 293.951 259.369 291.944 259.21L291.786 261.204ZM318.9 261.789C320.963 261.693 322.965 261.562 324.906 261.396L324.737 259.404C322.822 259.567 320.846 259.696 318.807 259.791L318.9 261.789ZM300.81 261.764C302.843 261.853 304.829 261.915 306.77 261.949L306.805 259.949C304.883 259.915 302.914 259.854 300.898 259.766L300.81 261.764ZM309.846 261.98C311.902 261.986 313.904 261.96 315.854 261.903L315.796 259.904C313.868 259.96 311.887 259.986 309.851 259.98L309.846 261.98ZM330.827 262.267C332.447 263.379 334.112 264.497 335.822 265.621L336.921 263.95C335.221 262.833 333.568 261.722 331.959 260.618L330.827 262.267ZM877.524 271.68C877.947 269.722 878.331 267.761 878.677 265.8L876.707 265.453C876.366 267.389 875.987 269.325 875.569 271.257L877.524 271.68ZM338.366 267.276C339.976 268.312 341.626 269.354 343.314 270.4L344.368 268.7C342.689 267.66 341.049 266.624 339.448 265.594L338.366 267.276ZM345.877 271.973C347.562 272.999 349.286 274.028 351.047 275.062L352.059 273.337C350.307 272.308 348.592 271.284 346.916 270.265L345.877 271.973ZM875.361 280.407C875.902 278.478 876.402 276.543 876.861 274.605L874.915 274.143C874.462 276.056 873.969 277.965 873.435 279.867L875.361 280.407ZM353.567 276.528C355.264 277.507 356.995 278.49 358.761 279.476L359.736 277.73C357.978 276.748 356.255 275.77 354.567 274.796L353.567 276.528ZM361.436 280.958C363.129 281.889 364.852 282.822 366.607 283.758L367.548 281.993C365.801 281.061 364.085 280.132 362.4 279.206L361.436 280.958ZM872.657 288.985C873.321 287.094 873.942 285.194 874.52 283.287L872.606 282.706C872.036 284.586 871.424 286.459 870.77 288.323L872.657 288.985ZM369.217 285.139C370.972 286.062 372.757 286.987 374.574 287.915L375.483 286.134C373.674 285.21 371.895 284.288 370.147 283.369L369.217 285.139ZM377.297 289.296C379.008 290.158 380.746 291.022 382.51 291.888L383.391 290.092C381.633 289.229 379.901 288.369 378.196 287.51L377.297 289.296ZM869.393 297.369C870.184 295.526 870.929 293.671 871.631 291.806L869.76 291.101C869.068 292.939 868.334 294.766 867.555 296.581L869.393 297.369ZM385.177 293.188C386.969 294.056 388.788 294.926 390.634 295.798L391.488 293.99C389.648 293.121 387.835 292.253 386.049 291.388L385.177 293.188ZM393.378 297.086C395.118 297.897 396.882 298.71 398.67 299.525L399.499 297.705C397.717 296.893 395.958 296.082 394.223 295.273L393.378 297.086ZM401.37 300.748C403.182 301.564 405.018 302.382 406.878 303.201L407.684 301.37C405.829 300.554 403.998 299.738 402.191 298.925L401.37 300.748ZM865.555 305.509C866.475 303.725 867.349 301.926 868.177 300.114L866.358 299.282C865.543 301.066 864.683 302.837 863.777 304.592L865.555 305.509ZM409.688 304.43C411.45 305.197 413.235 305.966 415.04 306.735L415.824 304.895C414.023 304.128 412.244 303.361 410.486 302.596L409.688 304.43ZM417.754 307.885C419.574 308.652 421.416 309.421 423.279 310.19L424.042 308.341C422.184 307.574 420.347 306.807 418.531 306.042L417.754 307.885ZM861.138 313.352C862.188 311.639 863.19 309.907 864.146 308.16L862.392 307.2C861.451 308.919 860.466 310.622 859.432 312.307L861.138 313.352ZM426.09 311.345C427.908 312.087 429.745 312.831 431.604 313.575L432.347 311.719C430.493 310.976 428.66 310.234 426.847 309.493L426.09 311.345ZM434.318 314.657C436.136 315.379 437.974 316.101 439.832 316.824L440.557 314.96C438.704 314.239 436.87 313.518 435.055 312.798L434.318 314.657ZM856.147 320.847C857.325 319.214 858.455 317.562 859.538 315.891L857.859 314.804C856.795 316.446 855.684 318.071 854.525 319.676L856.147 320.847ZM442.633 317.909C444.51 318.633 446.406 319.357 448.322 320.082L449.03 318.211C447.118 317.488 445.225 316.765 443.352 316.043L442.633 317.909ZM451.064 321.114C452.875 321.793 454.703 322.473 456.548 323.153L457.239 321.276C455.398 320.597 453.573 319.919 451.766 319.242L451.064 321.114ZM850.598 327.942C851.901 326.401 853.155 324.838 854.361 323.254L852.77 322.042C851.584 323.599 850.352 325.135 849.071 326.65L850.598 327.942ZM459.329 324.173C461.192 324.853 463.073 325.534 464.97 326.215L465.646 324.333C463.752 323.653 461.875 322.973 460.015 322.294L459.329 324.173ZM844.519 334.595C845.94 333.154 847.313 331.688 848.637 330.201L847.144 328.87C845.842 330.333 844.492 331.773 843.095 333.19L844.519 334.595ZM837.946 340.771C839.479 339.436 840.963 338.075 842.399 336.69L841.011 335.25C839.599 336.612 838.14 337.95 836.632 339.264L837.946 340.771ZM830.964 346.42C832.585 345.203 834.159 343.96 835.687 342.692L834.41 341.153C832.907 342.4 831.358 343.623 829.763 344.82L830.964 346.42ZM823.6 351.552C825.292 350.458 826.94 349.337 828.543 348.192L827.381 346.564C825.803 347.692 824.181 348.795 822.514 349.873L823.6 351.552ZM815.9 356.174C817.652 355.199 819.36 354.199 821.027 353.174L819.98 351.47C818.338 352.48 816.654 353.466 814.928 354.426L815.9 356.174ZM807.901 360.301C809.725 359.43 811.508 358.533 813.25 357.612L812.315 355.844C810.597 356.752 808.839 357.637 807.039 358.496L807.901 360.301ZM799.628 363.955C801.525 363.181 803.382 362.382 805.199 361.558L804.373 359.736C802.58 360.55 800.746 361.339 798.873 362.102L799.628 363.955ZM791.279 367.097C793.19 366.435 795.063 365.748 796.9 365.038L796.179 363.172C794.364 363.874 792.513 364.553 790.624 365.207L791.279 367.097ZM782.746 369.816C784.66 369.257 786.54 368.676 788.385 368.072L787.763 366.171C785.938 366.768 784.079 367.343 782.186 367.896L782.746 369.816ZM774.011 372.146C775.995 371.665 777.946 371.16 779.863 370.633L779.332 368.705C777.435 369.227 775.504 369.726 773.54 370.202L774.011 372.146ZM765.303 374.063C767.285 373.669 769.235 373.254 771.155 372.817L770.711 370.867C768.81 371.3 766.878 371.711 764.914 372.101L765.303 374.063ZM756.487 375.634C758.456 375.322 760.396 374.989 762.307 374.637L761.944 372.67C760.05 373.019 758.126 373.349 756.174 373.659L756.487 375.634ZM747.538 376.886C749.569 376.638 751.572 376.37 753.547 376.082L753.257 374.103C751.299 374.389 749.312 374.655 747.296 374.9L747.538 376.886Z" fill="white"/>
</svg>
