<svg width="369" height="380" viewBox="0 0 369 380" fill="none" xmlns="http://www.w3.org/2000/svg">
<mask id="path-1-inside-1_2_546" fill="white">
<path d="M367.464 331.513L358.535 315.899L364.283 258.921C367.196 230.053 355.688 201.657 333.501 182.96L286.666 143.495L237.808 58.0665C234.711 52.6506 229.689 48.7649 223.67 47.1256C217.65 45.4872 211.351 46.289 205.936 49.387L175.579 66.7489V31.2374C175.579 14.0129 161.566 0 144.342 0H31.2372C14.0127 0 -0.000213623 14.0129 -0.000213623 31.2374V267.993C-0.000213623 284.141 12.3148 297.465 28.0456 299.069V363.28C28.0456 365.868 29.3515 368.241 31.5394 369.626C33.728 371.011 36.4318 371.176 38.7711 370.068L50.9651 364.295L66.7078 371.117C67.6581 371.528 68.6745 371.734 69.6916 371.734C70.7473 371.734 71.803 371.513 72.7844 371.07L87.83 364.274L103.493 371.1C105.483 371.967 107.749 371.933 109.711 371.004L123.831 364.314L136.948 370.201C139.282 371.248 141.957 371.044 144.104 369.653C146.251 368.263 147.533 365.906 147.533 363.348V299.069C163.264 297.465 175.579 284.141 175.579 267.993V249.536L182.444 261.539C183.187 262.838 184.044 264.047 184.996 265.16L182.61 277.097C181.591 282.196 182.619 287.385 185.503 291.711C188.387 296.037 192.784 298.981 197.882 299.999C199.166 300.256 200.457 300.383 201.737 300.383C205.541 300.383 209.26 299.264 212.496 297.107C212.553 297.069 212.606 297.029 212.662 296.991C215.421 301.219 219.807 304.382 225.137 305.448C226.403 305.701 227.673 305.823 228.931 305.823C232.16 305.823 235.308 305.008 238.105 303.513C245.133 324.263 257.602 343.056 274.383 357.565L278.297 360.95L287.588 377.195C288.616 378.993 290.495 380 292.426 380C293.364 380 294.314 379.763 295.186 379.264C297.855 377.738 298.781 374.336 297.255 371.667L287.492 354.596C287.18 354.049 286.777 353.56 286.301 353.148L281.667 349.142C258.421 329.042 244.266 299.909 242.833 269.21L240.895 227.697C240.772 225.066 240.016 222.466 238.707 220.177L219.679 186.906C218.279 184.458 217.916 181.612 218.657 178.891C219.399 176.17 221.155 173.9 223.603 172.501C226.051 171.101 228.896 170.736 231.618 171.479C234.339 172.22 236.609 173.976 238.008 176.424L248.641 195.015C250.168 197.685 253.57 198.61 256.238 197.085C258.908 195.558 259.834 192.156 258.308 189.487L247.676 170.896C244.799 165.866 240.136 162.257 234.545 160.734C228.954 159.212 223.104 159.958 218.075 162.835C207.691 168.773 204.075 182.053 210.014 192.436L229.042 225.707C229.479 226.471 229.731 227.339 229.772 228.217L230.697 248.023L208.789 260.553C205.955 262.174 202.66 262.595 199.51 261.736C196.36 260.878 193.733 258.845 192.112 256.011L148.314 179.432C146.787 176.762 143.385 175.835 140.717 177.363C138.048 178.889 137.121 182.291 138.648 184.961L148.829 202.763C147.179 201.631 145.184 200.965 143.035 200.965H128.679C123.014 200.965 118.406 205.573 118.406 211.238V222.986C118.406 228.65 123.014 233.258 128.679 233.258H143.035C148.7 233.258 153.308 228.65 153.308 222.986V211.238C153.308 211 153.288 210.766 153.272 210.531L164.444 230.065C164.444 230.065 164.444 252.988 164.444 267.994C164.444 283 157 288.095 144.343 288.095C131.687 288.095 31.2372 288.095 31.2372 288.095C20.1531 288.095 11.1359 279.078 11.1359 267.994V31.2374C11.1359 20.1533 20.1531 11.1361 31.2372 11.1361H144.342C155.425 11.1361 164.442 20.1533 164.442 31.2374V73.118L153.306 79.4871V51.0485C153.306 46.1056 149.285 42.084 144.342 42.084H31.2372C26.2935 42.084 22.2719 46.1056 22.2719 51.0493V74.8122C22.2719 77.8872 24.7649 80.3802 27.84 80.3802C30.915 80.3802 33.408 77.8872 33.408 74.8122V53.22H142.17V85.8554L117.081 100.205C106.919 106.016 102.779 118.359 106.911 128.955H33.408V98.5409C33.408 95.4659 30.915 92.9729 27.84 92.9729C24.7649 92.9729 22.2719 95.4659 22.2719 98.5409V131.126C22.2719 136.069 26.2935 140.091 31.2372 140.091H112.985L126.866 164.363C128.394 167.031 131.794 167.958 134.464 166.432C137.134 164.905 138.06 161.504 136.533 158.834L118.069 126.55C114.723 120.699 116.761 113.218 122.611 109.872L211.466 59.0546C214.299 57.4339 217.594 57.013 220.744 57.872C223.894 58.7294 226.522 60.7629 228.142 63.5966L302.184 193.059C303.805 195.893 304.225 199.189 303.367 202.339C302.509 205.489 300.476 208.115 297.643 209.736L276.728 221.697L270.087 210.084C268.56 207.415 265.157 206.489 262.489 208.015C259.82 209.542 258.893 212.943 260.42 215.613L275.441 241.877C276.469 243.674 278.347 244.682 280.279 244.682C281.217 244.682 282.166 244.445 283.039 243.946C285.708 242.42 286.634 239.018 285.108 236.348L282.257 231.364L303.171 219.403C308.587 216.306 312.473 211.284 314.112 205.265C315.751 199.245 314.948 192.947 311.851 187.531L302.743 171.606L326.325 191.477C345.698 207.803 355.747 232.598 353.204 257.805L347.277 316.558C347.16 317.712 347.407 318.874 347.984 319.882L357.799 337.044C358.827 338.841 360.705 339.849 362.637 339.849C363.575 339.849 364.524 339.612 365.397 339.113C368.066 337.584 368.991 334.182 367.464 331.513ZM231.709 269.731C232.064 277.34 233.137 284.861 234.869 292.202C232.93 294.166 230.099 295.083 227.32 294.528C222.816 293.629 219.885 289.232 220.784 284.729L224.894 264.171L231.278 260.519L231.709 269.731ZM202.757 273.312C205.964 273.312 209.136 272.634 212.108 271.322L209.864 282.545C209.429 284.726 208.169 286.608 206.318 287.842C204.466 289.078 202.246 289.516 200.065 289.08C197.883 288.644 196.002 287.384 194.768 285.533C193.533 283.683 193.093 281.462 193.53 279.28L194.989 271.979C195.513 272.161 196.042 272.333 196.583 272.48C198.624 273.037 200.697 273.312 202.757 273.312ZM142.17 222.122H129.541V212.101H142.17V222.122ZM136.397 357.748L126.863 353.469C124.855 352.57 122.564 352.593 120.573 353.535L106.432 360.233L90.8041 353.423C88.8634 352.576 86.6429 352.591 84.7112 353.463L69.6619 360.261L53.8865 353.425C52.9325 353.011 51.9162 352.805 50.8991 352.805C49.8003 352.805 48.7015 353.046 47.6845 353.527L39.181 357.553V299.231H136.397V357.748Z"/>
</mask>
<path d="M367.464 331.513L358.535 315.899L364.283 258.921C367.196 230.053 355.688 201.657 333.501 182.96L286.666 143.495L237.808 58.0665C234.711 52.6506 229.689 48.7649 223.67 47.1256C217.65 45.4872 211.351 46.289 205.936 49.387L175.579 66.7489V31.2374C175.579 14.0129 161.566 0 144.342 0H31.2372C14.0127 0 -0.000213623 14.0129 -0.000213623 31.2374V267.993C-0.000213623 284.141 12.3148 297.465 28.0456 299.069V363.28C28.0456 365.868 29.3515 368.241 31.5394 369.626C33.728 371.011 36.4318 371.176 38.7711 370.068L50.9651 364.295L66.7078 371.117C67.6581 371.528 68.6745 371.734 69.6916 371.734C70.7473 371.734 71.803 371.513 72.7844 371.07L87.83 364.274L103.493 371.1C105.483 371.967 107.749 371.933 109.711 371.004L123.831 364.314L136.948 370.201C139.282 371.248 141.957 371.044 144.104 369.653C146.251 368.263 147.533 365.906 147.533 363.348V299.069C163.264 297.465 175.579 284.141 175.579 267.993V249.536L182.444 261.539C183.187 262.838 184.044 264.047 184.996 265.16L182.61 277.097C181.591 282.196 182.619 287.385 185.503 291.711C188.387 296.037 192.784 298.981 197.882 299.999C199.166 300.256 200.457 300.383 201.737 300.383C205.541 300.383 209.26 299.264 212.496 297.107C212.553 297.069 212.606 297.029 212.662 296.991C215.421 301.219 219.807 304.382 225.137 305.448C226.403 305.701 227.673 305.823 228.931 305.823C232.16 305.823 235.308 305.008 238.105 303.513C245.133 324.263 257.602 343.056 274.383 357.565L278.297 360.95L287.588 377.195C288.616 378.993 290.495 380 292.426 380C293.364 380 294.314 379.763 295.186 379.264C297.855 377.738 298.781 374.336 297.255 371.667L287.492 354.596C287.18 354.049 286.777 353.56 286.301 353.148L281.667 349.142C258.421 329.042 244.266 299.909 242.833 269.21L240.895 227.697C240.772 225.066 240.016 222.466 238.707 220.177L219.679 186.906C218.279 184.458 217.916 181.612 218.657 178.891C219.399 176.17 221.155 173.9 223.603 172.501C226.051 171.101 228.896 170.736 231.618 171.479C234.339 172.22 236.609 173.976 238.008 176.424L248.641 195.015C250.168 197.685 253.57 198.61 256.238 197.085C258.908 195.558 259.834 192.156 258.308 189.487L247.676 170.896C244.799 165.866 240.136 162.257 234.545 160.734C228.954 159.212 223.104 159.958 218.075 162.835C207.691 168.773 204.075 182.053 210.014 192.436L229.042 225.707C229.479 226.471 229.731 227.339 229.772 228.217L230.697 248.023L208.789 260.553C205.955 262.174 202.66 262.595 199.51 261.736C196.36 260.878 193.733 258.845 192.112 256.011L148.314 179.432C146.787 176.762 143.385 175.835 140.717 177.363C138.048 178.889 137.121 182.291 138.648 184.961L148.829 202.763C147.179 201.631 145.184 200.965 143.035 200.965H128.679C123.014 200.965 118.406 205.573 118.406 211.238V222.986C118.406 228.65 123.014 233.258 128.679 233.258H143.035C148.7 233.258 153.308 228.65 153.308 222.986V211.238C153.308 211 153.288 210.766 153.272 210.531L164.444 230.065C164.444 230.065 164.444 252.988 164.444 267.994C164.444 283 157 288.095 144.343 288.095C131.687 288.095 31.2372 288.095 31.2372 288.095C20.1531 288.095 11.1359 279.078 11.1359 267.994V31.2374C11.1359 20.1533 20.1531 11.1361 31.2372 11.1361H144.342C155.425 11.1361 164.442 20.1533 164.442 31.2374V73.118L153.306 79.4871V51.0485C153.306 46.1056 149.285 42.084 144.342 42.084H31.2372C26.2935 42.084 22.2719 46.1056 22.2719 51.0493V74.8122C22.2719 77.8872 24.7649 80.3802 27.84 80.3802C30.915 80.3802 33.408 77.8872 33.408 74.8122V53.22H142.17V85.8554L117.081 100.205C106.919 106.016 102.779 118.359 106.911 128.955H33.408V98.5409C33.408 95.4659 30.915 92.9729 27.84 92.9729C24.7649 92.9729 22.2719 95.4659 22.2719 98.5409V131.126C22.2719 136.069 26.2935 140.091 31.2372 140.091H112.985L126.866 164.363C128.394 167.031 131.794 167.958 134.464 166.432C137.134 164.905 138.06 161.504 136.533 158.834L118.069 126.55C114.723 120.699 116.761 113.218 122.611 109.872L211.466 59.0546C214.299 57.4339 217.594 57.013 220.744 57.872C223.894 58.7294 226.522 60.7629 228.142 63.5966L302.184 193.059C303.805 195.893 304.225 199.189 303.367 202.339C302.509 205.489 300.476 208.115 297.643 209.736L276.728 221.697L270.087 210.084C268.56 207.415 265.157 206.489 262.489 208.015C259.82 209.542 258.893 212.943 260.42 215.613L275.441 241.877C276.469 243.674 278.347 244.682 280.279 244.682C281.217 244.682 282.166 244.445 283.039 243.946C285.708 242.42 286.634 239.018 285.108 236.348L282.257 231.364L303.171 219.403C308.587 216.306 312.473 211.284 314.112 205.265C315.751 199.245 314.948 192.947 311.851 187.531L302.743 171.606L326.325 191.477C345.698 207.803 355.747 232.598 353.204 257.805L347.277 316.558C347.16 317.712 347.407 318.874 347.984 319.882L357.799 337.044C358.827 338.841 360.705 339.849 362.637 339.849C363.575 339.849 364.524 339.612 365.397 339.113C368.066 337.584 368.991 334.182 367.464 331.513ZM231.709 269.731C232.064 277.34 233.137 284.861 234.869 292.202C232.93 294.166 230.099 295.083 227.32 294.528C222.816 293.629 219.885 289.232 220.784 284.729L224.894 264.171L231.278 260.519L231.709 269.731ZM202.757 273.312C205.964 273.312 209.136 272.634 212.108 271.322L209.864 282.545C209.429 284.726 208.169 286.608 206.318 287.842C204.466 289.078 202.246 289.516 200.065 289.08C197.883 288.644 196.002 287.384 194.768 285.533C193.533 283.683 193.093 281.462 193.53 279.28L194.989 271.979C195.513 272.161 196.042 272.333 196.583 272.48C198.624 273.037 200.697 273.312 202.757 273.312ZM142.17 222.122H129.541V212.101H142.17V222.122ZM136.397 357.748L126.863 353.469C124.855 352.57 122.564 352.593 120.573 353.535L106.432 360.233L90.8041 353.423C88.8634 352.576 86.6429 352.591 84.7112 353.463L69.6619 360.261L53.8865 353.425C52.9325 353.011 51.9162 352.805 50.8991 352.805C49.8003 352.805 48.7015 353.046 47.6845 353.527L39.181 357.553V299.231H136.397V357.748Z" fill="white"/>
<path d="M367.464 331.513L358.535 315.899L364.283 258.921C367.196 230.053 355.688 201.657 333.501 182.96L286.666 143.495L237.808 58.0665C234.711 52.6506 229.689 48.7649 223.67 47.1256C217.65 45.4872 211.351 46.289 205.936 49.387L175.579 66.7489V31.2374C175.579 14.0129 161.566 0 144.342 0H31.2372C14.0127 0 -0.000213623 14.0129 -0.000213623 31.2374V267.993C-0.000213623 284.141 12.3148 297.465 28.0456 299.069V363.28C28.0456 365.868 29.3515 368.241 31.5394 369.626C33.728 371.011 36.4318 371.176 38.7711 370.068L50.9651 364.295L66.7078 371.117C67.6581 371.528 68.6745 371.734 69.6916 371.734C70.7473 371.734 71.803 371.513 72.7844 371.07L87.83 364.274L103.493 371.1C105.483 371.967 107.749 371.933 109.711 371.004L123.831 364.314L136.948 370.201C139.282 371.248 141.957 371.044 144.104 369.653C146.251 368.263 147.533 365.906 147.533 363.348V299.069C163.264 297.465 175.579 284.141 175.579 267.993V249.536L182.444 261.539C183.187 262.838 184.044 264.047 184.996 265.16L182.61 277.097C181.591 282.196 182.619 287.385 185.503 291.711C188.387 296.037 192.784 298.981 197.882 299.999C199.166 300.256 200.457 300.383 201.737 300.383C205.541 300.383 209.26 299.264 212.496 297.107C212.553 297.069 212.606 297.029 212.662 296.991C215.421 301.219 219.807 304.382 225.137 305.448C226.403 305.701 227.673 305.823 228.931 305.823C232.16 305.823 235.308 305.008 238.105 303.513C245.133 324.263 257.602 343.056 274.383 357.565L278.297 360.95L287.588 377.195C288.616 378.993 290.495 380 292.426 380C293.364 380 294.314 379.763 295.186 379.264C297.855 377.738 298.781 374.336 297.255 371.667L287.492 354.596C287.18 354.049 286.777 353.56 286.301 353.148L281.667 349.142C258.421 329.042 244.266 299.909 242.833 269.21L240.895 227.697C240.772 225.066 240.016 222.466 238.707 220.177L219.679 186.906C218.279 184.458 217.916 181.612 218.657 178.891C219.399 176.17 221.155 173.9 223.603 172.501C226.051 171.101 228.896 170.736 231.618 171.479C234.339 172.22 236.609 173.976 238.008 176.424L248.641 195.015C250.168 197.685 253.57 198.61 256.238 197.085C258.908 195.558 259.834 192.156 258.308 189.487L247.676 170.896C244.799 165.866 240.136 162.257 234.545 160.734C228.954 159.212 223.104 159.958 218.075 162.835C207.691 168.773 204.075 182.053 210.014 192.436L229.042 225.707C229.479 226.471 229.731 227.339 229.772 228.217L230.697 248.023L208.789 260.553C205.955 262.174 202.66 262.595 199.51 261.736C196.36 260.878 193.733 258.845 192.112 256.011L148.314 179.432C146.787 176.762 143.385 175.835 140.717 177.363C138.048 178.889 137.121 182.291 138.648 184.961L148.829 202.763C147.179 201.631 145.184 200.965 143.035 200.965H128.679C123.014 200.965 118.406 205.573 118.406 211.238V222.986C118.406 228.65 123.014 233.258 128.679 233.258H143.035C148.7 233.258 153.308 228.65 153.308 222.986V211.238C153.308 211 153.288 210.766 153.272 210.531L164.444 230.065C164.444 230.065 164.444 252.988 164.444 267.994C164.444 283 157 288.095 144.343 288.095C131.687 288.095 31.2372 288.095 31.2372 288.095C20.1531 288.095 11.1359 279.078 11.1359 267.994V31.2374C11.1359 20.1533 20.1531 11.1361 31.2372 11.1361H144.342C155.425 11.1361 164.442 20.1533 164.442 31.2374V73.118L153.306 79.4871V51.0485C153.306 46.1056 149.285 42.084 144.342 42.084H31.2372C26.2935 42.084 22.2719 46.1056 22.2719 51.0493V74.8122C22.2719 77.8872 24.7649 80.3802 27.84 80.3802C30.915 80.3802 33.408 77.8872 33.408 74.8122V53.22H142.17V85.8554L117.081 100.205C106.919 106.016 102.779 118.359 106.911 128.955H33.408V98.5409C33.408 95.4659 30.915 92.9729 27.84 92.9729C24.7649 92.9729 22.2719 95.4659 22.2719 98.5409V131.126C22.2719 136.069 26.2935 140.091 31.2372 140.091H112.985L126.866 164.363C128.394 167.031 131.794 167.958 134.464 166.432C137.134 164.905 138.06 161.504 136.533 158.834L118.069 126.55C114.723 120.699 116.761 113.218 122.611 109.872L211.466 59.0546C214.299 57.4339 217.594 57.013 220.744 57.872C223.894 58.7294 226.522 60.7629 228.142 63.5966L302.184 193.059C303.805 195.893 304.225 199.189 303.367 202.339C302.509 205.489 300.476 208.115 297.643 209.736L276.728 221.697L270.087 210.084C268.56 207.415 265.157 206.489 262.489 208.015C259.82 209.542 258.893 212.943 260.42 215.613L275.441 241.877C276.469 243.674 278.347 244.682 280.279 244.682C281.217 244.682 282.166 244.445 283.039 243.946C285.708 242.42 286.634 239.018 285.108 236.348L282.257 231.364L303.171 219.403C308.587 216.306 312.473 211.284 314.112 205.265C315.751 199.245 314.948 192.947 311.851 187.531L302.743 171.606L326.325 191.477C345.698 207.803 355.747 232.598 353.204 257.805L347.277 316.558C347.16 317.712 347.407 318.874 347.984 319.882L357.799 337.044C358.827 338.841 360.705 339.849 362.637 339.849C363.575 339.849 364.524 339.612 365.397 339.113C368.066 337.584 368.991 334.182 367.464 331.513ZM231.709 269.731C232.064 277.34 233.137 284.861 234.869 292.202C232.93 294.166 230.099 295.083 227.32 294.528C222.816 293.629 219.885 289.232 220.784 284.729L224.894 264.171L231.278 260.519L231.709 269.731ZM202.757 273.312C205.964 273.312 209.136 272.634 212.108 271.322L209.864 282.545C209.429 284.726 208.169 286.608 206.318 287.842C204.466 289.078 202.246 289.516 200.065 289.08C197.883 288.644 196.002 287.384 194.768 285.533C193.533 283.683 193.093 281.462 193.53 279.28L194.989 271.979C195.513 272.161 196.042 272.333 196.583 272.48C198.624 273.037 200.697 273.312 202.757 273.312ZM142.17 222.122H129.541V212.101H142.17V222.122ZM136.397 357.748L126.863 353.469C124.855 352.57 122.564 352.593 120.573 353.535L106.432 360.233L90.8041 353.423C88.8634 352.576 86.6429 352.591 84.7112 353.463L69.6619 360.261L53.8865 353.425C52.9325 353.011 51.9162 352.805 50.8991 352.805C49.8003 352.805 48.7015 353.046 47.6845 353.527L39.181 357.553V299.231H136.397V357.748Z" stroke="#7700D1" stroke-width="4" mask="url(#path-1-inside-1_2_546)"/>
</svg>
