<svg width="369" height="380" viewBox="0 0 369 380" fill="none" xmlns="http://www.w3.org/2000/svg">
<path d="M94.1038 180.837H95.1038V179.837V169.816V168.816H94.1038H81.4733H80.4733V169.816V179.837V180.837H81.4733H94.1038ZM94.9672 159.681C100.08 159.681 104.24 163.841 104.24 168.953V180.701C104.24 185.813 100.079 189.973 94.9672 189.973H80.6098C75.4976 189.973 71.3372 185.813 71.3372 180.701V168.953C71.3372 163.841 75.4975 159.681 80.6098 159.681H94.9672Z" fill="white" stroke="#7700D1" stroke-width="2"/>
<path d="M46.0376 180.837H47.0376V179.837V169.816V168.816H46.0376H33.4078H32.4078V169.816V179.837V180.837H33.4078H46.0376ZM46.901 159.681C52.0134 159.681 56.1737 163.841 56.1737 168.953V180.701C56.1737 185.813 52.0133 189.973 46.901 189.973H32.5444C27.4322 189.973 23.2718 185.813 23.2718 180.701V168.953C23.2718 163.841 27.4321 159.681 32.5444 159.681H46.901Z" fill="white" stroke="#7700D1" stroke-width="2"/>
<path d="M94.1038 223.122H95.1038V222.122V212.101V211.101H94.1038H81.4733H80.4733V212.101V222.122V223.122H81.4733H94.1038ZM94.9672 201.965C100.079 201.965 104.24 206.125 104.24 211.237V222.985C104.24 228.097 100.08 232.257 94.9672 232.257H80.6098C75.4975 232.257 71.3372 228.097 71.3372 222.985V211.237C71.3372 206.125 75.4976 201.965 80.6098 201.965H94.9672Z" fill="white" stroke="#7700D1" stroke-width="2"/>
<path d="M46.0377 223.122H47.0377V222.122V212.101V211.101H46.0377H33.4079H32.4079V212.101V222.122V223.122H33.4079H46.0377ZM46.9011 201.965C52.0134 201.965 56.1738 206.125 56.1738 211.237V222.985C56.1738 228.097 52.0134 232.257 46.9011 232.257H32.5445C27.4322 232.257 23.2718 228.097 23.2718 222.985V211.237C23.2718 206.125 27.4322 201.965 32.5445 201.965H46.9011Z" fill="white" stroke="#7700D1" stroke-width="2"/>
<path d="M94.1038 265.406H95.1038V264.406V254.385V253.385H94.1038H81.4733H80.4733V254.385V264.406V265.406H81.4733H94.1038ZM80.6106 244.25H94.968C100.079 244.25 104.24 248.41 104.241 253.522C104.241 253.522 104.241 253.522 104.241 253.522V265.27C104.241 270.382 100.08 274.543 94.968 274.543H80.6106C75.4983 274.543 71.338 270.382 71.338 265.27V253.522C71.338 248.41 75.4984 244.25 80.6106 244.25Z" fill="white" stroke="#7700D1" stroke-width="2"/>
<path d="M46.0377 265.406H47.0377V264.406V254.385V253.385H46.0377H33.4079H32.4079V254.385V264.406V265.406H33.4079H46.0377ZM32.5445 244.25H46.9011C52.0134 244.25 56.1738 248.41 56.1738 253.522V265.27C56.1738 270.382 52.0134 274.543 46.9011 274.543H32.5445C27.4322 274.543 23.2718 270.382 23.2718 265.27V253.522C23.2718 248.41 27.4322 244.25 32.5445 244.25Z" fill="white" stroke="#7700D1" stroke-width="2"/>
<path d="M129.541 253.386H128.541V254.386V264.407V265.407H129.541H142.17H143.17V264.407V254.386V253.386H142.17H129.541ZM143.034 274.542H128.677C123.565 274.542 119.405 270.382 119.405 265.269V253.522C119.405 248.409 123.565 244.249 128.677 244.249H143.034C148.146 244.249 152.307 248.409 152.307 253.522V265.269C152.307 270.382 148.146 274.542 143.034 274.542Z" fill="white" stroke="#7700D1" stroke-width="2"/>
<mask id="path-8-inside-1_2_528" fill="white">
<path d="M367.464 331.513L358.535 315.899L364.283 258.921C367.196 230.053 355.688 201.657 333.501 182.96L286.666 143.495L237.808 58.0665C234.711 52.6506 229.689 48.7649 223.67 47.1256C217.65 45.4872 211.351 46.289 205.936 49.387L175.579 66.7489V31.2374C175.579 14.0129 161.566 0 144.342 0H31.2372C14.0127 0 -0.000213623 14.0129 -0.000213623 31.2374V267.993C-0.000213623 284.141 12.3148 297.465 28.0456 299.069V363.28C28.0456 365.868 29.3515 368.241 31.5394 369.626C33.728 371.011 36.4318 371.176 38.7711 370.068L50.9651 364.295L66.7078 371.117C67.6581 371.528 68.6745 371.734 69.6916 371.734C70.7473 371.734 71.803 371.513 72.7844 371.07L87.83 364.274L103.493 371.1C105.483 371.967 107.749 371.933 109.711 371.004L123.831 364.314L136.948 370.201C139.282 371.248 141.957 371.044 144.104 369.653C146.251 368.263 147.533 365.906 147.533 363.348V299.069C163.264 297.465 175.579 284.141 175.579 267.993V249.536L182.444 261.539C183.187 262.838 184.044 264.047 184.996 265.16L182.61 277.097C181.591 282.196 182.619 287.385 185.503 291.711C188.387 296.037 192.784 298.981 197.882 299.999C199.166 300.256 200.457 300.383 201.737 300.383C205.541 300.383 209.26 299.264 212.496 297.107C212.553 297.069 212.606 297.029 212.662 296.991C215.421 301.219 219.807 304.382 225.137 305.448C226.403 305.701 227.673 305.823 228.931 305.823C232.16 305.823 235.308 305.008 238.105 303.513C245.133 324.263 257.602 343.056 274.383 357.565L278.297 360.95L287.588 377.195C288.616 378.993 290.495 380 292.426 380C293.364 380 294.314 379.763 295.186 379.264C297.855 377.738 298.781 374.336 297.255 371.667L287.492 354.596C287.18 354.049 286.777 353.56 286.301 353.148L281.667 349.142C258.421 329.042 244.266 299.909 242.833 269.21L240.895 227.697C240.772 225.066 240.016 222.466 238.707 220.177L219.679 186.906C218.279 184.458 217.916 181.612 218.657 178.891C219.399 176.17 221.155 173.9 223.603 172.501C226.051 171.101 228.896 170.736 231.618 171.479C234.339 172.22 236.609 173.976 238.008 176.424L248.641 195.015C250.168 197.685 253.57 198.61 256.238 197.085C258.908 195.558 259.834 192.156 258.308 189.487L247.676 170.896C244.799 165.866 240.136 162.257 234.545 160.734C228.954 159.212 223.104 159.958 218.075 162.835C207.691 168.773 204.075 182.053 210.014 192.436L229.042 225.707C229.479 226.471 229.731 227.339 229.772 228.217L230.697 248.023L208.789 260.553C205.955 262.174 202.66 262.595 199.51 261.736C196.36 260.878 193.733 258.845 192.112 256.011L148.314 179.432C146.787 176.762 143.385 175.835 140.717 177.363C138.048 178.889 137.121 182.291 138.648 184.961L148.829 202.763C147.179 201.631 145.184 200.965 143.035 200.965H128.679C123.014 200.965 118.406 205.573 118.406 211.238V222.986C118.406 228.65 123.014 233.258 128.679 233.258H143.035C148.7 233.258 153.308 228.65 153.308 222.986V211.238C153.308 211 153.288 210.766 153.272 210.531L164.444 230.065C164.444 230.065 164.444 252.988 164.444 267.994C164.444 283 157 288.095 144.343 288.095C131.687 288.095 31.2372 288.095 31.2372 288.095C20.1531 288.095 11.1359 279.078 11.1359 267.994V31.2374C11.1359 20.1533 20.1531 11.1361 31.2372 11.1361H144.342C155.425 11.1361 164.442 20.1533 164.442 31.2374V73.118L153.306 79.4871V51.0485C153.306 46.1056 149.285 42.084 144.342 42.084H31.2372C26.2935 42.084 22.2719 46.1056 22.2719 51.0493V74.8122C22.2719 77.8872 24.7649 80.3802 27.84 80.3802C30.915 80.3802 33.408 77.8872 33.408 74.8122V53.22H142.17V85.8554L117.081 100.205C106.919 106.016 102.779 118.359 106.911 128.955H33.408V98.5409C33.408 95.4659 30.915 92.9729 27.84 92.9729C24.7649 92.9729 22.2719 95.4659 22.2719 98.5409V131.126C22.2719 136.069 26.2935 140.091 31.2372 140.091H112.985L126.866 164.363C128.394 167.031 131.794 167.958 134.464 166.432C137.134 164.905 138.06 161.504 136.533 158.834L118.069 126.55C114.723 120.699 116.761 113.218 122.611 109.872L211.466 59.0546C214.299 57.4339 217.594 57.013 220.744 57.872C223.894 58.7294 226.522 60.7629 228.142 63.5966L302.184 193.059C303.805 195.893 304.225 199.189 303.367 202.339C302.509 205.489 300.476 208.115 297.643 209.736L276.728 221.697L270.087 210.084C268.56 207.415 265.157 206.489 262.489 208.015C259.82 209.542 258.893 212.943 260.42 215.613L275.441 241.877C276.469 243.674 278.347 244.682 280.279 244.682C281.217 244.682 282.166 244.445 283.039 243.946C285.708 242.42 286.634 239.018 285.108 236.348L282.257 231.364L303.171 219.403C308.587 216.306 312.473 211.284 314.112 205.265C315.751 199.245 314.948 192.947 311.851 187.531L302.743 171.606L326.325 191.477C345.698 207.803 355.747 232.598 353.204 257.805L347.277 316.558C347.16 317.712 347.407 318.874 347.984 319.882L357.799 337.044C358.827 338.841 360.705 339.849 362.637 339.849C363.575 339.849 364.524 339.612 365.397 339.113C368.066 337.584 368.991 334.182 367.464 331.513ZM231.709 269.731C232.064 277.34 233.137 284.861 234.869 292.202C232.93 294.166 230.099 295.083 227.32 294.528C222.816 293.629 219.885 289.232 220.784 284.729L224.894 264.171L231.278 260.519L231.709 269.731ZM202.757 273.312C205.964 273.312 209.136 272.634 212.108 271.322L209.864 282.545C209.429 284.726 208.169 286.608 206.318 287.842C204.466 289.078 202.246 289.516 200.065 289.08C197.883 288.644 196.002 287.384 194.768 285.533C193.533 283.683 193.093 281.462 193.53 279.28L194.989 271.979C195.513 272.161 196.042 272.333 196.583 272.48C198.624 273.037 200.697 273.312 202.757 273.312ZM142.17 222.122H129.541V212.101H142.17V222.122ZM136.397 357.748L126.863 353.469C124.855 352.57 122.564 352.593 120.573 353.535L106.432 360.233L90.8041 353.423C88.8634 352.576 86.6429 352.591 84.7112 353.463L69.6619 360.261L53.8865 353.425C52.9325 353.011 51.9162 352.805 50.8991 352.805C49.8003 352.805 48.7015 353.046 47.6845 353.527L39.181 357.553V299.231H136.397V357.748Z"/>
</mask>
<path d="M367.464 331.513L358.535 315.899L364.283 258.921C367.196 230.053 355.688 201.657 333.501 182.96L286.666 143.495L237.808 58.0665C234.711 52.6506 229.689 48.7649 223.67 47.1256C217.65 45.4872 211.351 46.289 205.936 49.387L175.579 66.7489V31.2374C175.579 14.0129 161.566 0 144.342 0H31.2372C14.0127 0 -0.000213623 14.0129 -0.000213623 31.2374V267.993C-0.000213623 284.141 12.3148 297.465 28.0456 299.069V363.28C28.0456 365.868 29.3515 368.241 31.5394 369.626C33.728 371.011 36.4318 371.176 38.7711 370.068L50.9651 364.295L66.7078 371.117C67.6581 371.528 68.6745 371.734 69.6916 371.734C70.7473 371.734 71.803 371.513 72.7844 371.07L87.83 364.274L103.493 371.1C105.483 371.967 107.749 371.933 109.711 371.004L123.831 364.314L136.948 370.201C139.282 371.248 141.957 371.044 144.104 369.653C146.251 368.263 147.533 365.906 147.533 363.348V299.069C163.264 297.465 175.579 284.141 175.579 267.993V249.536L182.444 261.539C183.187 262.838 184.044 264.047 184.996 265.16L182.61 277.097C181.591 282.196 182.619 287.385 185.503 291.711C188.387 296.037 192.784 298.981 197.882 299.999C199.166 300.256 200.457 300.383 201.737 300.383C205.541 300.383 209.26 299.264 212.496 297.107C212.553 297.069 212.606 297.029 212.662 296.991C215.421 301.219 219.807 304.382 225.137 305.448C226.403 305.701 227.673 305.823 228.931 305.823C232.16 305.823 235.308 305.008 238.105 303.513C245.133 324.263 257.602 343.056 274.383 357.565L278.297 360.95L287.588 377.195C288.616 378.993 290.495 380 292.426 380C293.364 380 294.314 379.763 295.186 379.264C297.855 377.738 298.781 374.336 297.255 371.667L287.492 354.596C287.18 354.049 286.777 353.56 286.301 353.148L281.667 349.142C258.421 329.042 244.266 299.909 242.833 269.21L240.895 227.697C240.772 225.066 240.016 222.466 238.707 220.177L219.679 186.906C218.279 184.458 217.916 181.612 218.657 178.891C219.399 176.17 221.155 173.9 223.603 172.501C226.051 171.101 228.896 170.736 231.618 171.479C234.339 172.22 236.609 173.976 238.008 176.424L248.641 195.015C250.168 197.685 253.57 198.61 256.238 197.085C258.908 195.558 259.834 192.156 258.308 189.487L247.676 170.896C244.799 165.866 240.136 162.257 234.545 160.734C228.954 159.212 223.104 159.958 218.075 162.835C207.691 168.773 204.075 182.053 210.014 192.436L229.042 225.707C229.479 226.471 229.731 227.339 229.772 228.217L230.697 248.023L208.789 260.553C205.955 262.174 202.66 262.595 199.51 261.736C196.36 260.878 193.733 258.845 192.112 256.011L148.314 179.432C146.787 176.762 143.385 175.835 140.717 177.363C138.048 178.889 137.121 182.291 138.648 184.961L148.829 202.763C147.179 201.631 145.184 200.965 143.035 200.965H128.679C123.014 200.965 118.406 205.573 118.406 211.238V222.986C118.406 228.65 123.014 233.258 128.679 233.258H143.035C148.7 233.258 153.308 228.65 153.308 222.986V211.238C153.308 211 153.288 210.766 153.272 210.531L164.444 230.065C164.444 230.065 164.444 252.988 164.444 267.994C164.444 283 157 288.095 144.343 288.095C131.687 288.095 31.2372 288.095 31.2372 288.095C20.1531 288.095 11.1359 279.078 11.1359 267.994V31.2374C11.1359 20.1533 20.1531 11.1361 31.2372 11.1361H144.342C155.425 11.1361 164.442 20.1533 164.442 31.2374V73.118L153.306 79.4871V51.0485C153.306 46.1056 149.285 42.084 144.342 42.084H31.2372C26.2935 42.084 22.2719 46.1056 22.2719 51.0493V74.8122C22.2719 77.8872 24.7649 80.3802 27.84 80.3802C30.915 80.3802 33.408 77.8872 33.408 74.8122V53.22H142.17V85.8554L117.081 100.205C106.919 106.016 102.779 118.359 106.911 128.955H33.408V98.5409C33.408 95.4659 30.915 92.9729 27.84 92.9729C24.7649 92.9729 22.2719 95.4659 22.2719 98.5409V131.126C22.2719 136.069 26.2935 140.091 31.2372 140.091H112.985L126.866 164.363C128.394 167.031 131.794 167.958 134.464 166.432C137.134 164.905 138.06 161.504 136.533 158.834L118.069 126.55C114.723 120.699 116.761 113.218 122.611 109.872L211.466 59.0546C214.299 57.4339 217.594 57.013 220.744 57.872C223.894 58.7294 226.522 60.7629 228.142 63.5966L302.184 193.059C303.805 195.893 304.225 199.189 303.367 202.339C302.509 205.489 300.476 208.115 297.643 209.736L276.728 221.697L270.087 210.084C268.56 207.415 265.157 206.489 262.489 208.015C259.82 209.542 258.893 212.943 260.42 215.613L275.441 241.877C276.469 243.674 278.347 244.682 280.279 244.682C281.217 244.682 282.166 244.445 283.039 243.946C285.708 242.42 286.634 239.018 285.108 236.348L282.257 231.364L303.171 219.403C308.587 216.306 312.473 211.284 314.112 205.265C315.751 199.245 314.948 192.947 311.851 187.531L302.743 171.606L326.325 191.477C345.698 207.803 355.747 232.598 353.204 257.805L347.277 316.558C347.16 317.712 347.407 318.874 347.984 319.882L357.799 337.044C358.827 338.841 360.705 339.849 362.637 339.849C363.575 339.849 364.524 339.612 365.397 339.113C368.066 337.584 368.991 334.182 367.464 331.513ZM231.709 269.731C232.064 277.34 233.137 284.861 234.869 292.202C232.93 294.166 230.099 295.083 227.32 294.528C222.816 293.629 219.885 289.232 220.784 284.729L224.894 264.171L231.278 260.519L231.709 269.731ZM202.757 273.312C205.964 273.312 209.136 272.634 212.108 271.322L209.864 282.545C209.429 284.726 208.169 286.608 206.318 287.842C204.466 289.078 202.246 289.516 200.065 289.08C197.883 288.644 196.002 287.384 194.768 285.533C193.533 283.683 193.093 281.462 193.53 279.28L194.989 271.979C195.513 272.161 196.042 272.333 196.583 272.48C198.624 273.037 200.697 273.312 202.757 273.312ZM142.17 222.122H129.541V212.101H142.17V222.122ZM136.397 357.748L126.863 353.469C124.855 352.57 122.564 352.593 120.573 353.535L106.432 360.233L90.8041 353.423C88.8634 352.576 86.6429 352.591 84.7112 353.463L69.6619 360.261L53.8865 353.425C52.9325 353.011 51.9162 352.805 50.8991 352.805C49.8003 352.805 48.7015 353.046 47.6845 353.527L39.181 357.553V299.231H136.397V357.748Z" fill="white"/>
<path d="M367.464 331.513L358.535 315.899L364.283 258.921C367.196 230.053 355.688 201.657 333.501 182.96L286.666 143.495L237.808 58.0665C234.711 52.6506 229.689 48.7649 223.67 47.1256C217.65 45.4872 211.351 46.289 205.936 49.387L175.579 66.7489V31.2374C175.579 14.0129 161.566 0 144.342 0H31.2372C14.0127 0 -0.000213623 14.0129 -0.000213623 31.2374V267.993C-0.000213623 284.141 12.3148 297.465 28.0456 299.069V363.28C28.0456 365.868 29.3515 368.241 31.5394 369.626C33.728 371.011 36.4318 371.176 38.7711 370.068L50.9651 364.295L66.7078 371.117C67.6581 371.528 68.6745 371.734 69.6916 371.734C70.7473 371.734 71.803 371.513 72.7844 371.07L87.83 364.274L103.493 371.1C105.483 371.967 107.749 371.933 109.711 371.004L123.831 364.314L136.948 370.201C139.282 371.248 141.957 371.044 144.104 369.653C146.251 368.263 147.533 365.906 147.533 363.348V299.069C163.264 297.465 175.579 284.141 175.579 267.993V249.536L182.444 261.539C183.187 262.838 184.044 264.047 184.996 265.16L182.61 277.097C181.591 282.196 182.619 287.385 185.503 291.711C188.387 296.037 192.784 298.981 197.882 299.999C199.166 300.256 200.457 300.383 201.737 300.383C205.541 300.383 209.26 299.264 212.496 297.107C212.553 297.069 212.606 297.029 212.662 296.991C215.421 301.219 219.807 304.382 225.137 305.448C226.403 305.701 227.673 305.823 228.931 305.823C232.16 305.823 235.308 305.008 238.105 303.513C245.133 324.263 257.602 343.056 274.383 357.565L278.297 360.95L287.588 377.195C288.616 378.993 290.495 380 292.426 380C293.364 380 294.314 379.763 295.186 379.264C297.855 377.738 298.781 374.336 297.255 371.667L287.492 354.596C287.18 354.049 286.777 353.56 286.301 353.148L281.667 349.142C258.421 329.042 244.266 299.909 242.833 269.21L240.895 227.697C240.772 225.066 240.016 222.466 238.707 220.177L219.679 186.906C218.279 184.458 217.916 181.612 218.657 178.891C219.399 176.17 221.155 173.9 223.603 172.501C226.051 171.101 228.896 170.736 231.618 171.479C234.339 172.22 236.609 173.976 238.008 176.424L248.641 195.015C250.168 197.685 253.57 198.61 256.238 197.085C258.908 195.558 259.834 192.156 258.308 189.487L247.676 170.896C244.799 165.866 240.136 162.257 234.545 160.734C228.954 159.212 223.104 159.958 218.075 162.835C207.691 168.773 204.075 182.053 210.014 192.436L229.042 225.707C229.479 226.471 229.731 227.339 229.772 228.217L230.697 248.023L208.789 260.553C205.955 262.174 202.66 262.595 199.51 261.736C196.36 260.878 193.733 258.845 192.112 256.011L148.314 179.432C146.787 176.762 143.385 175.835 140.717 177.363C138.048 178.889 137.121 182.291 138.648 184.961L148.829 202.763C147.179 201.631 145.184 200.965 143.035 200.965H128.679C123.014 200.965 118.406 205.573 118.406 211.238V222.986C118.406 228.65 123.014 233.258 128.679 233.258H143.035C148.7 233.258 153.308 228.65 153.308 222.986V211.238C153.308 211 153.288 210.766 153.272 210.531L164.444 230.065C164.444 230.065 164.444 252.988 164.444 267.994C164.444 283 157 288.095 144.343 288.095C131.687 288.095 31.2372 288.095 31.2372 288.095C20.1531 288.095 11.1359 279.078 11.1359 267.994V31.2374C11.1359 20.1533 20.1531 11.1361 31.2372 11.1361H144.342C155.425 11.1361 164.442 20.1533 164.442 31.2374V73.118L153.306 79.4871V51.0485C153.306 46.1056 149.285 42.084 144.342 42.084H31.2372C26.2935 42.084 22.2719 46.1056 22.2719 51.0493V74.8122C22.2719 77.8872 24.7649 80.3802 27.84 80.3802C30.915 80.3802 33.408 77.8872 33.408 74.8122V53.22H142.17V85.8554L117.081 100.205C106.919 106.016 102.779 118.359 106.911 128.955H33.408V98.5409C33.408 95.4659 30.915 92.9729 27.84 92.9729C24.7649 92.9729 22.2719 95.4659 22.2719 98.5409V131.126C22.2719 136.069 26.2935 140.091 31.2372 140.091H112.985L126.866 164.363C128.394 167.031 131.794 167.958 134.464 166.432C137.134 164.905 138.06 161.504 136.533 158.834L118.069 126.55C114.723 120.699 116.761 113.218 122.611 109.872L211.466 59.0546C214.299 57.4339 217.594 57.013 220.744 57.872C223.894 58.7294 226.522 60.7629 228.142 63.5966L302.184 193.059C303.805 195.893 304.225 199.189 303.367 202.339C302.509 205.489 300.476 208.115 297.643 209.736L276.728 221.697L270.087 210.084C268.56 207.415 265.157 206.489 262.489 208.015C259.82 209.542 258.893 212.943 260.42 215.613L275.441 241.877C276.469 243.674 278.347 244.682 280.279 244.682C281.217 244.682 282.166 244.445 283.039 243.946C285.708 242.42 286.634 239.018 285.108 236.348L282.257 231.364L303.171 219.403C308.587 216.306 312.473 211.284 314.112 205.265C315.751 199.245 314.948 192.947 311.851 187.531L302.743 171.606L326.325 191.477C345.698 207.803 355.747 232.598 353.204 257.805L347.277 316.558C347.16 317.712 347.407 318.874 347.984 319.882L357.799 337.044C358.827 338.841 360.705 339.849 362.637 339.849C363.575 339.849 364.524 339.612 365.397 339.113C368.066 337.584 368.991 334.182 367.464 331.513ZM231.709 269.731C232.064 277.34 233.137 284.861 234.869 292.202C232.93 294.166 230.099 295.083 227.32 294.528C222.816 293.629 219.885 289.232 220.784 284.729L224.894 264.171L231.278 260.519L231.709 269.731ZM202.757 273.312C205.964 273.312 209.136 272.634 212.108 271.322L209.864 282.545C209.429 284.726 208.169 286.608 206.318 287.842C204.466 289.078 202.246 289.516 200.065 289.08C197.883 288.644 196.002 287.384 194.768 285.533C193.533 283.683 193.093 281.462 193.53 279.28L194.989 271.979C195.513 272.161 196.042 272.333 196.583 272.48C198.624 273.037 200.697 273.312 202.757 273.312ZM142.17 222.122H129.541V212.101H142.17V222.122ZM136.397 357.748L126.863 353.469C124.855 352.57 122.564 352.593 120.573 353.535L106.432 360.233L90.8041 353.423C88.8634 352.576 86.6429 352.591 84.7112 353.463L69.6619 360.261L53.8865 353.425C52.9325 353.011 51.9162 352.805 50.8991 352.805C49.8003 352.805 48.7015 353.046 47.6845 353.527L39.181 357.553V299.231H136.397V357.748Z" stroke="#7700D1" stroke-width="4" mask="url(#path-8-inside-1_2_528)"/>
<path d="M209.536 94.8159L209.536 94.8159C198.828 91.9003 187.63 93.3273 177.996 98.8372C168.363 104.347 161.455 113.274 158.539 123.983L209.536 94.8159ZM209.536 94.8159C211.971 95.4785 213.406 97.989 212.744 100.424M209.536 94.8159L212.744 100.424M161.746 129.591L161.746 129.591C162.15 129.701 162.554 129.753 162.949 129.753C164.959 129.753 166.8 128.415 167.354 126.384C169.628 118.034 175.02 111.064 182.532 106.769C190.045 102.472 198.785 101.358 207.136 103.632L161.746 129.591ZM161.746 129.591C159.312 128.928 157.876 126.418 158.539 123.983L161.746 129.591ZM212.744 100.424C212.081 102.857 209.569 104.294 207.136 103.632L212.744 100.424Z" fill="white" stroke="#7700D1" stroke-width="2"/>
<path d="M183.243 135.443L183.243 135.443C183.647 135.553 184.051 135.606 184.447 135.606C186.456 135.606 188.297 134.268 188.851 132.237C189.562 129.623 191.248 127.441 193.591 126.101L193.591 126.1C195.935 124.761 198.67 124.415 201.282 125.127C203.715 125.788 206.227 124.353 206.891 121.92L183.243 135.443ZM183.243 135.443C180.809 134.781 179.373 132.27 180.036 129.836L183.243 135.443ZM189.055 118.17C193.52 115.617 198.712 114.958 203.684 116.312L189.055 118.17ZM203.684 116.312C206.118 116.975 207.554 119.486 206.891 121.92L203.684 116.312ZM180.036 129.835C181.39 124.862 184.591 120.722 189.055 118.17L180.036 129.835Z" fill="white" stroke="#7700D1" stroke-width="2"/>
<path d="M199.561 136.541L199.561 136.541C197.371 137.793 196.611 140.584 197.863 142.774C197.863 142.774 197.863 142.774 197.863 142.774L199.713 146.008C200.556 147.482 202.095 148.31 203.683 148.31C204.451 148.31 205.229 148.116 205.946 147.706L206.442 148.574L205.946 147.706C208.135 146.454 208.896 143.663 207.643 141.472L199.561 136.541ZM199.561 136.541C201.75 135.288 204.541 136.048 205.794 138.239C205.794 138.239 205.794 138.239 205.794 138.239L207.643 141.472L199.561 136.541Z" fill="white" stroke="#7700D1" stroke-width="2"/>
<rect x="108.995" y="207.701" width="39.0325" height="39.7442" transform="rotate(-29.7722 108.995 207.701)" fill="#7700D1"/>
<path d="M141.542 223.122H142.542V222.122V212.101V211.101H141.542H128.911H127.911V212.101V222.122V223.122H128.911H141.542ZM142.405 201.965C147.518 201.965 151.678 206.125 151.678 211.237V222.985C151.678 228.097 147.518 232.257 142.405 232.257H128.048C122.936 232.257 118.775 228.097 118.775 222.985V211.237C118.775 206.125 122.936 201.965 128.048 201.965H142.405Z" fill="white" stroke="#7700D1" stroke-width="2"/>
<rect x="127.902" y="162.168" width="7.24946" height="30.1653" transform="rotate(-29.6467 127.902 162.168)" fill="white"/>
<rect x="247.58" y="189.143" width="7.33374" height="30.1653" transform="rotate(-29.6467 247.58 189.143)" fill="white"/>
<path d="M287.042 152.334L301.068 172.649L304.121 170.199L287.042 152.334Z" fill="#7700D1"/>
<rect x="24.2718" y="71.6179" width="7.15535" height="30.1653" fill="white"/>
</svg>
