<svg width="60" height="83" viewBox="0 0 60 83" fill="none" xmlns="http://www.w3.org/2000/svg">
<g id="Group">
<g id="Group_2" opacity="0.97">
<path id="Vector" opacity="0.97" d="M28.0194 82.094C27.7323 81.8308 20.9609 75.3465 14.0938 65.7518C4.73831 52.6636 0.000732422 40.6044 0.000732422 29.885C0.000732422 13.3992 13.3999 0 29.8857 0C46.3715 0 59.7707 13.3992 59.7707 29.885C59.7707 40.5086 55.0332 52.5679 45.6776 65.68C38.8106 75.2987 32.0392 81.8308 31.752 82.094H28.0194ZM29.8857 5.43146C16.3908 5.43146 5.43219 16.414 5.43219 29.885C5.43219 49.2421 23.8561 70.0108 29.8857 76.2797C35.8914 69.9629 54.3393 49.0506 54.3393 29.885C54.3393 16.3901 43.3806 5.43146 29.8857 5.43146Z" fill="white"/>
<path id="Vector_2" opacity="0.97" d="M29.8857 43.6671C22.2769 43.6671 16.1037 37.4939 16.1037 29.8851C16.1037 22.2762 22.2769 16.103 29.8857 16.103C37.4946 16.103 43.6678 22.2762 43.6678 29.8851C43.6678 37.4939 37.4946 43.6671 29.8857 43.6671ZM29.8857 21.5345C25.2678 21.5345 21.5352 25.2671 21.5352 29.8851C21.5352 34.503 25.2917 38.2356 29.8857 38.2356C34.5037 38.2356 38.2363 34.4791 38.2363 29.8851C38.2363 25.291 34.5037 21.5345 29.8857 21.5345Z" fill="white"/>
</g>
</g>
</svg>
