<svg width="380" height="500" viewBox="0 0 380 500" fill="none" xmlns="http://www.w3.org/2000/svg">
<g opacity="0.05" clip-path="url(#clip0_51_476)">
<path d="M-118.581 186.622H151.311L155.282 190.603V221.572L151.311 225.553H139.013V307.219C139.013 309.438 137.221 311.2 135.043 311.2C132.864 311.2 131.072 309.403 131.072 307.219V271.248H-98.2367V518.57C-98.2367 520.79 -100.029 522.551 -102.207 522.551C-104.386 522.551 -106.178 520.755 -106.178 518.57V225.588H-118.476L-122.447 221.607V190.639L-118.581 186.622ZM131.037 263.285V248.418H-98.2719V263.285H131.037ZM-98.2719 240.42H131.037V225.588H-98.2719V240.42ZM-114.576 217.591H-102.278H135.007H147.306V194.62H-114.611V217.591H-114.576Z" fill="white"/>
<path fill-rule="evenodd" clip-rule="evenodd" d="M252.305 68.9997V99.8477L248.335 103.829H-165.552L-169.522 99.8477V15.8214L-165.552 11.8403H193.902V19.8026H-161.581V95.8666H244.329V68.9997H252.305Z" fill="white"/>
<path d="M-512.651 53.8358H-339.07C-336.857 53.8358 -335.1 55.6326 -335.1 57.8169C-335.1 60.0365 -336.892 61.798 -339.07 61.798H-508.68V122.466H-489.354H225.101H244.427V61.8333H74.8169C72.6032 61.8333 70.8464 60.0365 70.8464 57.8522C70.8464 55.6326 72.6384 53.871 74.8169 53.871H248.397L252.368 57.8522V126.518L248.397 130.499H229.071V306.725C229.071 308.945 227.28 310.706 225.101 310.706C222.922 310.706 221.13 308.909 221.13 306.725V130.499H-485.348V514.589H225.136C227.35 514.589 229.107 516.386 229.107 518.57C229.107 520.754 227.315 522.551 225.136 522.551H-489.319L-493.29 518.57V130.499H-512.615L-516.586 126.518V57.8169L-512.651 53.8358Z" fill="white"/>
<rect x="-517.646" y="41.0474" width="770.013" height="54.81" fill="#7700D1"/>
<rect x="-360.36" y="19.6807" width="554.262" height="53.1196" fill="#7700D1"/>
<rect x="229.399" y="58.389" width="38.9119" height="31.4622" fill="#7700D1"/>
<rect x="229.399" y="43.4022" width="38.9119" height="10.5687" fill="#7700D1"/>
<path fill-rule="evenodd" clip-rule="evenodd" d="M188.015 19.9022V11.8892C188.658 11.8567 189.306 11.8403 189.958 11.8403H214.305C235.292 11.8403 252.305 28.8535 252.305 49.8403V95.8574H244.305V49.8403C244.305 33.2718 230.874 19.8403 214.305 19.8403H189.958C189.305 19.8403 188.657 19.8612 188.015 19.9022Z" fill="white"/>
</g>
<defs>
<clipPath id="clip0_51_476">
<rect width="955" height="500" fill="white" transform="matrix(-1 0 0 1 380 0.00012207)"/>
</clipPath>
</defs>
</svg>
