<svg width="537" height="311" viewBox="0 0 537 311" fill="none" xmlns="http://www.w3.org/2000/svg">
<g clip-path="url(#clip0_2_1325)">
<path d="M89.6514 123.851H241.413L243.646 126.086V143.471L241.413 145.706H234.498V310.197L232.265 312.432H98.8389L96.6063 310.197V145.725H89.691L87.4584 143.49V126.106L89.6514 123.851ZM101.052 307.962H229.993V299.616H101.052V307.962ZM101.052 295.146H229.993V286.8H101.052V295.146ZM101.052 282.311H229.993V273.964H101.052V282.311ZM101.052 269.495H229.993V261.148H101.052V269.495ZM101.052 256.659H229.993V248.313H101.052V256.659ZM101.052 243.843H229.993V235.497H101.052V243.843ZM101.052 231.007H229.993V222.661H101.052V231.007ZM101.052 218.191H229.993V209.845H101.052V218.191ZM101.052 205.355H229.993V197.009H101.052V205.355ZM101.052 192.539H229.993V184.193H101.052V192.539ZM101.052 179.704H229.993V171.357H101.052V179.704ZM101.052 166.888H229.993V158.541H101.052V166.888ZM101.052 154.052H229.993V145.725H101.052V154.052ZM91.8842 141.236H98.7995H232.226H239.141V128.341H91.8644V141.236H91.8842Z" fill="white"/>
<path d="M256.646 123.851H408.408L410.64 126.086V143.471L408.408 145.706H401.492V191.55C401.492 192.796 400.485 193.785 399.26 193.785C398.035 193.785 397.027 192.777 397.027 191.55V171.357H268.086V310.197C268.086 311.443 267.078 312.432 265.853 312.432C264.628 312.432 263.62 311.424 263.62 310.197V145.725H256.705L254.472 143.49V126.106L256.646 123.851ZM397.007 166.888V158.541H268.066V166.888H397.007ZM268.066 154.052H397.007V145.725H268.066V154.052ZM258.898 141.236H265.814H399.24H406.155V128.341H258.878V141.236H258.898Z" fill="white"/>
<path fill-rule="evenodd" clip-rule="evenodd" d="M267.964 77.3732H35.2341L33.0015 75.1383V72.8981H37.4668V72.9034H265.712V30.2032H93.8896V25.7334H267.964L270.197 27.9683V75.1383L267.964 77.3732Z" fill="white"/>
<path fill-rule="evenodd" clip-rule="evenodd" d="M465.197 72.8981V75.1383L462.964 77.3732H230.234L228.002 75.1383V27.9683L230.234 25.7334H410.923V30.2032H232.467V72.9034H460.712V72.8981H465.197Z" fill="white"/>
<path d="M35.0593 49.3086H132.664C133.909 49.3086 134.897 50.3173 134.897 51.5435C134.897 52.7895 133.889 53.7784 132.664 53.7784H37.2919V87.8357H48.1588H449.9H460.767V53.7982H365.394C364.15 53.7982 363.162 52.7895 363.162 51.5633C363.162 50.3173 364.169 49.3284 365.394 49.3284H462.999L465.232 51.5633V90.1101L462.999 92.345H452.132V191.273C452.132 192.519 451.125 193.508 449.9 193.508C448.675 193.508 447.667 192.5 447.667 191.273V92.345H50.4113V307.962H449.919C451.164 307.962 452.152 308.971 452.152 310.197C452.152 311.423 451.144 312.432 449.919 312.432H48.1786L45.946 310.197V92.345H35.079L32.8463 90.1101V51.5435L35.0593 49.3086Z" fill="white"/>
<rect x="32.2506" y="42.1294" width="432.981" height="30.7688" fill="#7700D1"/>
<rect x="120.693" y="30.1348" width="311.664" height="29.8199" fill="#7700D1"/>
<path fill-rule="evenodd" clip-rule="evenodd" d="M133.194 72.8981V73.1899H128.844V72.8981H133.194ZM97.137 30.1386V25.7822C96.4934 25.7498 95.8455 25.7334 95.1939 25.7334H70.8463C49.8595 25.7334 32.8463 42.7466 32.8463 63.7334V73.1899H37.1963V63.7334C37.1963 45.149 52.2619 30.0834 70.8463 30.0834H95.1939C95.8461 30.0834 96.4939 30.102 97.137 30.1386Z" fill="white"/>
<path fill-rule="evenodd" clip-rule="evenodd" d="M364.884 72.8981V73.1899H369.234V72.8981H364.884ZM400.941 30.1386V25.7822C401.585 25.7498 402.233 25.7334 402.884 25.7334H427.232C448.219 25.7334 465.232 42.7466 465.232 63.7334V73.1899H460.882V63.7334C460.882 45.149 445.816 30.0834 427.232 30.0834H402.884C402.232 30.0834 401.584 30.102 400.941 30.1386Z" fill="white"/>
<path fill-rule="evenodd" clip-rule="evenodd" d="M353.023 239.202V200.384H357.704V239.202H353.023ZM365.093 249.43V244.765H404.703V249.43H365.093ZM416.773 200.384H412.112V239.202H416.773L416.773 200.384ZM399.947 185.616H369.993V190.302H399.947V185.616Z" fill="white"/>
<path fill-rule="evenodd" clip-rule="evenodd" d="M370.716 211.942H379.887H389.626H398.797L401.219 209.586V191.183C401.219 189.883 400.133 188.826 398.797 188.826C397.462 188.826 396.376 189.883 396.376 191.183V207.189H389.626H379.887H373.137V191.183C373.137 189.883 372.051 188.826 370.716 188.826C369.38 188.826 368.294 189.883 368.294 191.183V209.586L370.716 211.942Z" fill="white"/>
<path fill-rule="evenodd" clip-rule="evenodd" d="M371.702 190.705V185.674C371.268 185.636 370.828 185.616 370.384 185.616H367.708C359.598 185.616 353.023 192.191 353.023 200.302L353.023 200.384H358.023C358.023 200.357 358.023 200.329 358.023 200.302C358.023 194.952 362.359 190.616 367.708 190.616H370.384C370.831 190.616 371.271 190.646 371.702 190.705Z" fill="white"/>
<path fill-rule="evenodd" clip-rule="evenodd" d="M398.094 190.676V185.655C398.452 185.629 398.814 185.616 399.179 185.616H402.412C410.523 185.616 417.098 192.191 417.098 200.302L417.098 200.384H412.098C412.098 200.357 412.098 200.329 412.098 200.302C412.098 194.952 407.762 190.616 402.412 190.616H399.179C398.812 190.616 398.45 190.636 398.094 190.676Z" fill="white"/>
<path fill-rule="evenodd" clip-rule="evenodd" d="M394.608 244.73V249.43H404.144C411.119 249.43 416.773 243.776 416.773 236.801L416.773 236.73H412.073C412.073 236.753 412.073 236.777 412.073 236.801C412.073 241.18 408.523 244.73 404.144 244.73H394.608Z" fill="white"/>
<path fill-rule="evenodd" clip-rule="evenodd" d="M375.188 244.73V249.43H365.652C358.677 249.43 353.023 243.776 353.023 236.801L353.023 236.73H357.723C357.723 236.753 357.723 236.777 357.723 236.801C357.723 241.18 361.273 244.73 365.652 244.73H375.188Z" fill="white"/>
<path fill-rule="evenodd" clip-rule="evenodd" d="M322.483 302.202V263.384H327.165V302.202H322.483ZM334.553 312.43V307.765H374.163V312.43H334.553ZM386.233 263.384H381.572V302.202H386.233L386.233 263.384ZM369.407 248.616H339.453V253.302H369.407V248.616Z" fill="white"/>
<path fill-rule="evenodd" clip-rule="evenodd" d="M340.176 274.942H349.347H359.086H368.258L370.679 272.586V254.183C370.679 252.883 369.593 251.826 368.258 251.826C366.922 251.826 365.836 252.883 365.836 254.183V270.189H359.086H349.347H342.597V254.183C342.597 252.883 341.511 251.826 340.176 251.826C338.84 251.826 337.754 252.883 337.754 254.183V272.586L340.176 274.942Z" fill="white"/>
<path fill-rule="evenodd" clip-rule="evenodd" d="M341.162 253.705V248.674C340.728 248.636 340.288 248.616 339.844 248.616H337.168C329.058 248.616 322.483 255.191 322.483 263.302L322.483 263.384H327.483C327.483 263.357 327.483 263.329 327.483 263.302C327.483 257.952 331.819 253.616 337.168 253.616H339.844C340.291 253.616 340.731 253.646 341.162 253.705Z" fill="white"/>
<path fill-rule="evenodd" clip-rule="evenodd" d="M367.554 253.675V248.655C367.909 248.629 368.267 248.616 368.628 248.616H371.888C379.998 248.616 386.573 255.191 386.573 263.302L386.573 263.384H381.573C381.573 263.357 381.573 263.329 381.573 263.302C381.573 257.952 377.237 253.616 371.888 253.616H368.628C368.265 253.616 367.907 253.636 367.554 253.675Z" fill="white"/>
<path fill-rule="evenodd" clip-rule="evenodd" d="M364.068 307.73V312.43H373.604C380.579 312.43 386.233 306.776 386.233 299.801L386.233 299.73H381.533C381.533 299.753 381.533 299.777 381.533 299.801C381.533 304.18 377.983 307.73 373.604 307.73H364.068Z" fill="white"/>
<path fill-rule="evenodd" clip-rule="evenodd" d="M344.648 307.73V312.43H335.112C328.137 312.43 322.483 306.776 322.483 299.801L322.483 299.73H327.183C327.183 299.753 327.183 299.777 327.183 299.801C327.183 304.18 330.733 307.73 335.112 307.73H344.648Z" fill="white"/>
<path fill-rule="evenodd" clip-rule="evenodd" d="M412.472 239.202V200.384H417.154V239.202H412.472ZM424.543 249.43V244.765H464.152V249.43H424.543ZM476.223 200.384H471.561V239.202H476.223L476.223 200.384ZM459.396 185.616H429.443V190.302H459.396V185.616Z" fill="white"/>
<path fill-rule="evenodd" clip-rule="evenodd" d="M430.165 211.942H439.336H449.075H458.247L460.668 209.586V191.183C460.668 189.883 459.583 188.826 458.247 188.826C456.911 188.826 455.826 189.883 455.826 191.183V207.189H449.075H439.336H432.586V191.183C432.586 189.883 431.501 188.826 430.165 188.826C428.829 188.826 427.744 189.883 427.744 191.183V209.586L430.165 211.942Z" fill="white"/>
<path fill-rule="evenodd" clip-rule="evenodd" d="M431.151 190.674V185.654C430.8 185.629 430.446 185.616 430.088 185.616H426.802C418.692 185.616 412.117 192.191 412.117 200.302L412.117 200.384H417.117C417.117 200.357 417.117 200.329 417.117 200.302C417.117 194.952 421.453 190.616 426.802 190.616H430.088C430.447 190.616 430.802 190.636 431.151 190.674Z" fill="white"/>
<path fill-rule="evenodd" clip-rule="evenodd" d="M457.544 190.705V185.674C457.978 185.636 458.417 185.616 458.861 185.616H461.537C469.648 185.616 476.223 192.191 476.223 200.302L476.222 200.384H471.222C471.223 200.357 471.223 200.329 471.223 200.302C471.223 194.952 466.886 190.616 461.537 190.616H458.861C458.414 190.616 457.974 190.646 457.544 190.705Z" fill="white"/>
<path fill-rule="evenodd" clip-rule="evenodd" d="M454.057 244.73V249.43H463.593C470.568 249.43 476.223 243.776 476.223 236.801L476.222 236.73H471.522C471.523 236.753 471.523 236.777 471.523 236.801C471.523 241.18 467.973 244.73 463.593 244.73H454.057Z" fill="white"/>
<path fill-rule="evenodd" clip-rule="evenodd" d="M434.637 244.73V249.43H425.102C418.126 249.43 412.472 243.776 412.472 236.801L412.472 236.73H417.172C417.172 236.753 417.172 236.777 417.172 236.801C417.172 241.18 420.722 244.73 425.102 244.73H434.637Z" fill="white"/>
<rect x="437.972" y="190.236" width="16.8584" height="16.9554" fill="#7700D1"/>
<rect x="437.972" y="211.942" width="22.6959" height="32.6528" fill="#7700D1"/>
<path fill-rule="evenodd" clip-rule="evenodd" d="M381.932 302.202V263.384H386.614V302.202H381.932ZM394.003 312.43V307.765H433.612V312.43H394.003ZM445.683 263.384H441.021V302.202H445.683L445.683 263.384ZM428.856 248.616H398.903V253.302H428.856V248.616Z" fill="white"/>
<path fill-rule="evenodd" clip-rule="evenodd" d="M399.625 274.942H408.796H418.535H427.707L430.128 272.586V254.183C430.128 252.883 429.043 251.826 427.707 251.826C426.371 251.826 425.286 252.883 425.286 254.183V270.189H418.535H408.796H402.046V254.183C402.046 252.883 400.961 251.826 399.625 251.826C398.289 251.826 397.204 252.883 397.204 254.183V272.586L399.625 274.942Z" fill="white"/>
<path fill-rule="evenodd" clip-rule="evenodd" d="M400.611 253.705V248.674C400.177 248.636 399.738 248.616 399.294 248.616H396.316C388.206 248.616 381.631 255.191 381.631 263.302L381.631 263.384H386.631C386.631 263.357 386.631 263.329 386.631 263.302C386.631 257.952 390.967 253.616 396.316 253.616H399.294C399.741 253.616 400.18 253.646 400.611 253.705Z" fill="white"/>
<path fill-rule="evenodd" clip-rule="evenodd" d="M427.004 253.705V248.674C427.438 248.636 427.877 248.616 428.321 248.616H431.334C439.444 248.616 446.019 255.191 446.019 263.302L446.019 263.384H441.019C441.019 263.357 441.019 263.329 441.019 263.302C441.019 257.952 436.683 253.616 431.334 253.616H428.321C427.874 253.616 427.434 253.646 427.004 253.705Z" fill="white"/>
<path fill-rule="evenodd" clip-rule="evenodd" d="M423.517 307.73V312.43H433.053C440.028 312.43 445.683 306.776 445.683 299.801L445.683 299.73H440.982C440.983 299.753 440.983 299.777 440.983 299.801C440.983 304.18 437.433 307.73 433.053 307.73H423.517Z" fill="white"/>
<path fill-rule="evenodd" clip-rule="evenodd" d="M404.097 307.73V312.43H394.562C387.586 312.43 381.932 306.776 381.932 299.801L381.932 299.73H386.632C386.632 299.753 386.632 299.777 386.632 299.801C386.632 304.18 390.182 307.73 394.562 307.73H404.097Z" fill="white"/>
<path fill-rule="evenodd" clip-rule="evenodd" d="M441.943 302.202V263.384H446.625V302.202H441.943ZM454.014 312.43V307.765H493.623V312.43H454.014ZM505.694 263.384H501.032V302.202H505.694L505.694 263.384ZM488.867 248.616H458.914V253.302H488.867V248.616Z" fill="white"/>
<path fill-rule="evenodd" clip-rule="evenodd" d="M459.636 274.942H468.807H478.546H487.718L490.139 272.586V254.183C490.139 252.883 489.054 251.826 487.718 251.826C486.382 251.826 485.297 252.883 485.297 254.183V270.189H478.546H468.807H462.057V254.183C462.057 252.883 460.972 251.826 459.636 251.826C458.3 251.826 457.215 252.883 457.215 254.183V272.586L459.636 274.942Z" fill="white"/>
<path fill-rule="evenodd" clip-rule="evenodd" d="M460.622 253.705V248.674C460.188 248.636 459.749 248.616 459.305 248.616H456.331C448.221 248.616 441.646 255.191 441.646 263.302L441.646 263.384H446.646C446.646 263.357 446.646 263.329 446.646 263.302C446.646 257.952 450.982 253.616 456.331 253.616H459.305C459.752 253.616 460.191 253.646 460.622 253.705Z" fill="white"/>
<path fill-rule="evenodd" clip-rule="evenodd" d="M487.014 253.705V248.674C487.448 248.636 487.888 248.616 488.332 248.616H491.008C499.119 248.616 505.694 255.191 505.694 263.302L505.693 263.384H500.693C500.694 263.357 500.694 263.329 500.694 263.302C500.694 257.952 496.357 253.616 491.008 253.616H488.332C487.885 253.616 487.445 253.646 487.014 253.705Z" fill="white"/>
<path fill-rule="evenodd" clip-rule="evenodd" d="M483.528 307.73V312.43H493.064C500.039 312.43 505.694 306.776 505.694 299.801L505.693 299.73H500.993C500.994 299.753 500.994 299.777 500.994 299.801C500.994 304.18 497.444 307.73 493.064 307.73H483.528Z" fill="white"/>
<path fill-rule="evenodd" clip-rule="evenodd" d="M464.108 307.73V312.43H454.572C447.597 312.43 441.943 306.776 441.943 299.801L441.943 299.73H446.643C446.643 299.753 446.643 299.777 446.643 299.801C446.643 304.18 450.193 307.73 454.572 307.73H464.108Z" fill="white"/>
</g>
<defs>
<clipPath id="clip0_2_1325">
<rect width="537" height="311" fill="white" transform="matrix(-1 0 0 1 537 0)"/>
</clipPath>
</defs>
</svg>
