<svg width="67" height="68" viewBox="0 0 67 68" fill="none" xmlns="http://www.w3.org/2000/svg">
<path id="Vector" d="M14.5654 31.7515L14.5149 32.1949H14.0686H2.23357C1.26541 32.1949 0.500854 32.9595 0.500854 33.9298C0.500854 34.8832 1.26829 35.6647 2.23357 35.6647H14.0686H14.5151L14.5654 36.1083C14.9694 39.6704 16.3733 42.906 18.4915 45.5852L18.7673 45.9341L18.453 46.2487L10.0756 54.6345C9.40126 55.3095 9.40126 56.4172 10.0756 57.0922C10.412 57.4289 10.8557 57.5982 11.3025 57.5982C11.7493 57.5982 12.193 57.4289 12.5294 57.0922L20.9068 48.7064L21.2217 48.3912L21.571 48.6679C24.2472 50.7878 27.4992 52.1934 31.0383 52.5977L31.4815 52.6483V53.0944V64.9413C31.4815 65.8919 32.2658 66.6762 33.2142 66.6762C34.1654 66.6762 34.9468 65.9088 34.9468 64.9413V53.0944V52.648L35.3903 52.5976C38.9486 52.1933 42.1808 50.7881 44.8573 48.6679L45.2066 48.3912L45.5215 48.7064L53.8989 57.0922C54.2353 57.4289 54.679 57.5982 55.1258 57.5982C55.5726 57.5982 56.0164 57.4289 56.3528 57.0922C57.0271 56.4172 57.0271 55.3095 56.3528 54.6345L47.9754 46.2487L47.6611 45.9341L47.9369 45.5852C50.0547 42.9064 51.459 39.651 51.8629 36.108L51.9135 35.6647H52.3597H64.1948C65.1461 35.6647 65.9275 34.8972 65.9275 33.9298C65.9275 32.9764 65.1601 32.1949 64.1948 32.1949H52.3597H51.9132L51.8629 31.7512C51.459 28.1892 50.055 24.9536 47.9369 22.2743L47.6611 21.9255L47.9754 21.6109L56.3528 13.2251C57.0271 12.5501 57.0271 11.4424 56.3528 10.7674C55.6787 10.0927 54.573 10.0927 53.8989 10.7674L45.5215 19.1532L45.2066 19.4684L44.8573 19.1917C42.1812 17.0718 38.9292 15.6662 35.39 15.2619L34.9468 15.2113V14.7651V2.91824C34.9468 1.96767 34.1625 1.18335 33.2142 1.18335C32.2629 1.18335 31.4815 1.95078 31.4815 2.91824V14.7651V15.2115L31.038 15.2619C27.4798 15.6662 24.2476 17.0715 21.571 19.1917L21.2217 19.4684L20.9068 19.1532L12.5294 10.7674C11.8554 10.0927 10.7496 10.0927 10.0756 10.7674C9.40126 11.4424 9.40126 12.5501 10.0756 13.2251L18.453 21.6109L18.7673 21.9255L18.4915 22.2743C16.3736 24.9532 14.9694 28.2086 14.5654 31.7515ZM48.5525 33.9298C48.5525 42.3939 41.6702 49.2631 33.2339 49.2631C24.7973 49.2631 17.9154 42.3737 17.9154 33.9298C17.9154 25.4661 24.7775 18.5965 33.2339 18.5965C41.6908 18.5965 48.5525 25.4863 48.5525 33.9298Z" fill="white" fill-opacity="0.2" stroke="#7700D1"/>
</svg>
