<svg width="40" height="24" viewBox="0 0 40 24" fill="none" xmlns="http://www.w3.org/2000/svg">
<path id="Vector" fill-rule="evenodd" clip-rule="evenodd" d="M28.302 1.05832C31.6833 1.84295 32.9768 3.82014 34.5984 6.5415H28.302V1.05832ZM8.54135 6.77002C9.20339 6.77002 9.68393 7.08958 9.68393 7.83643C9.68393 8.46633 9.17423 8.97722 8.54462 8.979H1.64185C1.01075 8.979 0.499268 9.49078 0.499268 10.1216C0.499268 10.7527 1.01075 11.2642 1.64185 11.2642H11.925C12.5621 11.2642 13.0721 11.7753 13.0721 12.4067C13.0721 13.0378 12.5606 13.5493 11.9295 13.5493H1.64185C1.01075 13.5493 0.499268 14.0608 0.499268 14.6919C0.499268 15.323 1.01075 15.8345 1.64185 15.8345H4.15552V19.2622C4.15552 19.8933 4.667 20.4048 5.2981 20.4048H7.59486C8.00428 22.4216 9.78629 23.9087 11.887 23.9087C13.9876 23.9087 15.7696 22.4216 16.1791 20.4048H27.7804C28.1898 22.4216 29.9718 23.9087 32.0725 23.9087C34.1732 23.9087 35.9552 22.4216 36.3646 20.4048H38.3567C38.9878 20.4048 39.4993 19.8933 39.4993 19.2622V12.4067C39.4993 9.05428 35.9632 8.83172 35.96 8.82666H27.1594C26.5283 8.82666 26.0168 8.31518 26.0168 7.68408V0.828613H5.2981C4.667 0.828613 4.15552 1.3401 4.15552 1.97119V4.48486H2.78442C2.15333 4.48486 1.64185 4.99635 1.64185 5.62744C1.64185 6.25854 2.15333 6.77002 2.78442 6.77002H8.54135ZM33.5537 18.0476C34.3717 18.8656 34.3717 20.1923 33.5537 21.0103C32.2379 22.326 29.9778 21.39 29.9778 19.5288C29.9778 17.668 32.2379 16.7319 33.5537 18.0476ZM13.3681 18.0476C14.1861 18.8656 14.1861 20.1923 13.3681 21.0103C12.0524 22.326 9.79224 21.39 9.79224 19.5288C9.79224 17.668 12.0524 16.7319 13.3681 18.0476Z" fill="white"/>
</svg>
