<svg width="60" height="41" viewBox="0 0 60 41" fill="none" xmlns="http://www.w3.org/2000/svg">
<rect y="0.68335" width="60" height="40" rx="20" fill="#48DB45"/>
<path d="M36.0482 21.7983L36.04 21.8671C34.0242 20.8624 33.8134 20.7286 33.553 21.1191C33.3725 21.3895 32.8463 22.0028 32.6877 22.1843C32.5273 22.363 32.3678 22.3768 32.0955 22.253C31.8205 22.1155 30.9378 21.8268 29.8928 20.8918C29.0788 20.163 28.5325 19.2693 28.3711 18.9943C28.1025 18.5304 28.6645 18.4644 29.176 17.4964C29.2676 17.3039 29.2209 17.1527 29.153 17.0161C29.0843 16.8786 28.537 15.5311 28.3079 14.9939C28.0879 14.4586 27.8615 14.5264 27.6919 14.5264C27.1639 14.4806 26.778 14.4879 26.4379 14.8418C24.9584 16.4679 25.3315 18.1454 26.5974 19.9293C29.0852 23.1853 30.4107 23.7848 32.8344 24.6171C33.4889 24.8252 34.0856 24.7958 34.5577 24.728C35.0839 24.6446 36.1775 24.0671 36.4057 23.4208C36.6395 22.7746 36.6395 22.2383 36.5707 22.1146C36.5029 21.9908 36.3232 21.9221 36.0482 21.7983Z" fill="white"/>
<path d="M38.81 11.8448C31.7617 5.03126 20.0972 9.97301 20.0926 19.5852C20.0926 21.5065 20.5958 23.3802 21.5547 25.0347L20 30.6832L25.8071 29.1689C33.0533 33.0831 41.9963 27.8856 42 19.5907C42 16.6793 40.8633 13.9394 38.7962 11.8806L38.81 11.8448ZM40.1685 19.5604C40.163 26.5573 32.4822 30.9271 26.4075 27.3557L26.0775 27.1596L22.64 28.0533L23.5612 24.7121L23.3422 24.3683C19.5618 18.3504 23.905 10.4854 31.066 10.4854C33.4988 10.4854 35.7822 11.4342 37.5019 13.1529C39.2207 14.857 40.1685 17.1404 40.1685 19.5604Z" fill="white"/>
</svg>
